G04 #@! TF.GenerationSoftware,KiCad,Pcbnew,(5.1.2)-2*
G04 #@! TF.CreationDate,2019-06-29T16:51:37+09:00*
G04 #@! TF.ProjectId,pcb,7063622e-6b69-4636-9164-5f7063625858,rev?*
G04 #@! TF.SameCoordinates,Original*
G04 #@! TF.FileFunction,Soldermask,Top*
G04 #@! TF.FilePolarity,Negative*
%FSLAX46Y46*%
G04 Gerber Fmt 4.6, Leading zero omitted, Abs format (unit mm)*
G04 Created by KiCad (PCBNEW (5.1.2)-2) date 2019-06-29 16:51:37*
%MOMM*%
%LPD*%
G04 APERTURE LIST*
%ADD10C,0.100000*%
G04 APERTURE END LIST*
D10*
G36*
X150426000Y-104306000D02*
G01*
X148024000Y-104306000D01*
X148024000Y-102704000D01*
X150426000Y-102704000D01*
X150426000Y-104306000D01*
X150426000Y-104306000D01*
G37*
G36*
X151776000Y-99841000D02*
G01*
X149574000Y-99841000D01*
X149574000Y-97939000D01*
X151776000Y-97939000D01*
X151776000Y-99841000D01*
X151776000Y-99841000D01*
G37*
G36*
X148876000Y-99841000D02*
G01*
X146674000Y-99841000D01*
X146674000Y-97939000D01*
X148876000Y-97939000D01*
X148876000Y-99841000D01*
X148876000Y-99841000D01*
G37*
G36*
X148876000Y-97641000D02*
G01*
X146674000Y-97641000D01*
X146674000Y-95739000D01*
X148876000Y-95739000D01*
X148876000Y-97641000D01*
X148876000Y-97641000D01*
G37*
G36*
X151776000Y-97641000D02*
G01*
X149574000Y-97641000D01*
X149574000Y-95739000D01*
X151776000Y-95739000D01*
X151776000Y-97641000D01*
X151776000Y-97641000D01*
G37*
G36*
X107663276Y-91561884D02*
G01*
X107880569Y-91651890D01*
X107880571Y-91651891D01*
X108076130Y-91782560D01*
X108242440Y-91948870D01*
X108373110Y-92144431D01*
X108463116Y-92361724D01*
X108509000Y-92592400D01*
X108509000Y-92827600D01*
X108463116Y-93058276D01*
X108373110Y-93275569D01*
X108373109Y-93275571D01*
X108242440Y-93471130D01*
X108076130Y-93637440D01*
X107880571Y-93768109D01*
X107880570Y-93768110D01*
X107880569Y-93768110D01*
X107663276Y-93858116D01*
X107432600Y-93904000D01*
X107197400Y-93904000D01*
X106966724Y-93858116D01*
X106749431Y-93768110D01*
X106749430Y-93768110D01*
X106749429Y-93768109D01*
X106553870Y-93637440D01*
X106387560Y-93471130D01*
X106256891Y-93275571D01*
X106256890Y-93275569D01*
X106166884Y-93058276D01*
X106121000Y-92827600D01*
X106121000Y-92592400D01*
X106166884Y-92361724D01*
X106256890Y-92144431D01*
X106387560Y-91948870D01*
X106553870Y-91782560D01*
X106749429Y-91651891D01*
X106749431Y-91651890D01*
X106966724Y-91561884D01*
X107197400Y-91516000D01*
X107432600Y-91516000D01*
X107663276Y-91561884D01*
X107663276Y-91561884D01*
G37*
G36*
X260063276Y-91561884D02*
G01*
X260280569Y-91651890D01*
X260280571Y-91651891D01*
X260476130Y-91782560D01*
X260642440Y-91948870D01*
X260773110Y-92144431D01*
X260863116Y-92361724D01*
X260909000Y-92592400D01*
X260909000Y-92827600D01*
X260863116Y-93058276D01*
X260773110Y-93275569D01*
X260773109Y-93275571D01*
X260642440Y-93471130D01*
X260476130Y-93637440D01*
X260280571Y-93768109D01*
X260280570Y-93768110D01*
X260280569Y-93768110D01*
X260063276Y-93858116D01*
X259832600Y-93904000D01*
X259597400Y-93904000D01*
X259366724Y-93858116D01*
X259149431Y-93768110D01*
X259149430Y-93768110D01*
X259149429Y-93768109D01*
X258953870Y-93637440D01*
X258787560Y-93471130D01*
X258656891Y-93275571D01*
X258656890Y-93275569D01*
X258566884Y-93058276D01*
X258521000Y-92827600D01*
X258521000Y-92592400D01*
X258566884Y-92361724D01*
X258656890Y-92144431D01*
X258787560Y-91948870D01*
X258953870Y-91782560D01*
X259149429Y-91651891D01*
X259149431Y-91651890D01*
X259366724Y-91561884D01*
X259597400Y-91516000D01*
X259832600Y-91516000D01*
X260063276Y-91561884D01*
X260063276Y-91561884D01*
G37*
G36*
X241013276Y-91561884D02*
G01*
X241230569Y-91651890D01*
X241230571Y-91651891D01*
X241426130Y-91782560D01*
X241592440Y-91948870D01*
X241723110Y-92144431D01*
X241813116Y-92361724D01*
X241859000Y-92592400D01*
X241859000Y-92827600D01*
X241813116Y-93058276D01*
X241723110Y-93275569D01*
X241723109Y-93275571D01*
X241592440Y-93471130D01*
X241426130Y-93637440D01*
X241230571Y-93768109D01*
X241230570Y-93768110D01*
X241230569Y-93768110D01*
X241013276Y-93858116D01*
X240782600Y-93904000D01*
X240547400Y-93904000D01*
X240316724Y-93858116D01*
X240099431Y-93768110D01*
X240099430Y-93768110D01*
X240099429Y-93768109D01*
X239903870Y-93637440D01*
X239737560Y-93471130D01*
X239606891Y-93275571D01*
X239606890Y-93275569D01*
X239516884Y-93058276D01*
X239471000Y-92827600D01*
X239471000Y-92592400D01*
X239516884Y-92361724D01*
X239606890Y-92144431D01*
X239737560Y-91948870D01*
X239903870Y-91782560D01*
X240099429Y-91651891D01*
X240099431Y-91651890D01*
X240316724Y-91561884D01*
X240547400Y-91516000D01*
X240782600Y-91516000D01*
X241013276Y-91561884D01*
X241013276Y-91561884D01*
G37*
G36*
X183863276Y-91561884D02*
G01*
X184080569Y-91651890D01*
X184080571Y-91651891D01*
X184276130Y-91782560D01*
X184442440Y-91948870D01*
X184573110Y-92144431D01*
X184663116Y-92361724D01*
X184709000Y-92592400D01*
X184709000Y-92827600D01*
X184663116Y-93058276D01*
X184573110Y-93275569D01*
X184573109Y-93275571D01*
X184442440Y-93471130D01*
X184276130Y-93637440D01*
X184080571Y-93768109D01*
X184080570Y-93768110D01*
X184080569Y-93768110D01*
X183863276Y-93858116D01*
X183632600Y-93904000D01*
X183397400Y-93904000D01*
X183166724Y-93858116D01*
X182949431Y-93768110D01*
X182949430Y-93768110D01*
X182949429Y-93768109D01*
X182753870Y-93637440D01*
X182587560Y-93471130D01*
X182456891Y-93275571D01*
X182456890Y-93275569D01*
X182366884Y-93058276D01*
X182321000Y-92827600D01*
X182321000Y-92592400D01*
X182366884Y-92361724D01*
X182456890Y-92144431D01*
X182587560Y-91948870D01*
X182753870Y-91782560D01*
X182949429Y-91651891D01*
X182949431Y-91651890D01*
X183166724Y-91561884D01*
X183397400Y-91516000D01*
X183632600Y-91516000D01*
X183863276Y-91561884D01*
X183863276Y-91561884D01*
G37*
G36*
X126713276Y-91561884D02*
G01*
X126930569Y-91651890D01*
X126930571Y-91651891D01*
X127126130Y-91782560D01*
X127292440Y-91948870D01*
X127423110Y-92144431D01*
X127513116Y-92361724D01*
X127559000Y-92592400D01*
X127559000Y-92827600D01*
X127513116Y-93058276D01*
X127423110Y-93275569D01*
X127423109Y-93275571D01*
X127292440Y-93471130D01*
X127126130Y-93637440D01*
X126930571Y-93768109D01*
X126930570Y-93768110D01*
X126930569Y-93768110D01*
X126713276Y-93858116D01*
X126482600Y-93904000D01*
X126247400Y-93904000D01*
X126016724Y-93858116D01*
X125799431Y-93768110D01*
X125799430Y-93768110D01*
X125799429Y-93768109D01*
X125603870Y-93637440D01*
X125437560Y-93471130D01*
X125306891Y-93275571D01*
X125306890Y-93275569D01*
X125216884Y-93058276D01*
X125171000Y-92827600D01*
X125171000Y-92592400D01*
X125216884Y-92361724D01*
X125306890Y-92144431D01*
X125437560Y-91948870D01*
X125603870Y-91782560D01*
X125799429Y-91651891D01*
X125799431Y-91651890D01*
X126016724Y-91561884D01*
X126247400Y-91516000D01*
X126482600Y-91516000D01*
X126713276Y-91561884D01*
X126713276Y-91561884D01*
G37*
G36*
X88613276Y-91561884D02*
G01*
X88830569Y-91651890D01*
X88830571Y-91651891D01*
X89026130Y-91782560D01*
X89192440Y-91948870D01*
X89323110Y-92144431D01*
X89413116Y-92361724D01*
X89459000Y-92592400D01*
X89459000Y-92827600D01*
X89413116Y-93058276D01*
X89323110Y-93275569D01*
X89323109Y-93275571D01*
X89192440Y-93471130D01*
X89026130Y-93637440D01*
X88830571Y-93768109D01*
X88830570Y-93768110D01*
X88830569Y-93768110D01*
X88613276Y-93858116D01*
X88382600Y-93904000D01*
X88147400Y-93904000D01*
X87916724Y-93858116D01*
X87699431Y-93768110D01*
X87699430Y-93768110D01*
X87699429Y-93768109D01*
X87503870Y-93637440D01*
X87337560Y-93471130D01*
X87206891Y-93275571D01*
X87206890Y-93275569D01*
X87116884Y-93058276D01*
X87071000Y-92827600D01*
X87071000Y-92592400D01*
X87116884Y-92361724D01*
X87206890Y-92144431D01*
X87337560Y-91948870D01*
X87503870Y-91782560D01*
X87699429Y-91651891D01*
X87699431Y-91651890D01*
X87916724Y-91561884D01*
X88147400Y-91516000D01*
X88382600Y-91516000D01*
X88613276Y-91561884D01*
X88613276Y-91561884D01*
G37*
G36*
X69563276Y-91561884D02*
G01*
X69780569Y-91651890D01*
X69780571Y-91651891D01*
X69976130Y-91782560D01*
X70142440Y-91948870D01*
X70273110Y-92144431D01*
X70363116Y-92361724D01*
X70409000Y-92592400D01*
X70409000Y-92827600D01*
X70363116Y-93058276D01*
X70273110Y-93275569D01*
X70273109Y-93275571D01*
X70142440Y-93471130D01*
X69976130Y-93637440D01*
X69780571Y-93768109D01*
X69780570Y-93768110D01*
X69780569Y-93768110D01*
X69563276Y-93858116D01*
X69332600Y-93904000D01*
X69097400Y-93904000D01*
X68866724Y-93858116D01*
X68649431Y-93768110D01*
X68649430Y-93768110D01*
X68649429Y-93768109D01*
X68453870Y-93637440D01*
X68287560Y-93471130D01*
X68156891Y-93275571D01*
X68156890Y-93275569D01*
X68066884Y-93058276D01*
X68021000Y-92827600D01*
X68021000Y-92592400D01*
X68066884Y-92361724D01*
X68156890Y-92144431D01*
X68287560Y-91948870D01*
X68453870Y-91782560D01*
X68649429Y-91651891D01*
X68649431Y-91651890D01*
X68866724Y-91561884D01*
X69097400Y-91516000D01*
X69332600Y-91516000D01*
X69563276Y-91561884D01*
X69563276Y-91561884D01*
G37*
G36*
X50513276Y-91561884D02*
G01*
X50730569Y-91651890D01*
X50730571Y-91651891D01*
X50926130Y-91782560D01*
X51092440Y-91948870D01*
X51223110Y-92144431D01*
X51313116Y-92361724D01*
X51359000Y-92592400D01*
X51359000Y-92827600D01*
X51313116Y-93058276D01*
X51223110Y-93275569D01*
X51223109Y-93275571D01*
X51092440Y-93471130D01*
X50926130Y-93637440D01*
X50730571Y-93768109D01*
X50730570Y-93768110D01*
X50730569Y-93768110D01*
X50513276Y-93858116D01*
X50282600Y-93904000D01*
X50047400Y-93904000D01*
X49816724Y-93858116D01*
X49599431Y-93768110D01*
X49599430Y-93768110D01*
X49599429Y-93768109D01*
X49403870Y-93637440D01*
X49237560Y-93471130D01*
X49106891Y-93275571D01*
X49106890Y-93275569D01*
X49016884Y-93058276D01*
X48971000Y-92827600D01*
X48971000Y-92592400D01*
X49016884Y-92361724D01*
X49106890Y-92144431D01*
X49237560Y-91948870D01*
X49403870Y-91782560D01*
X49599429Y-91651891D01*
X49599431Y-91651890D01*
X49816724Y-91561884D01*
X50047400Y-91516000D01*
X50282600Y-91516000D01*
X50513276Y-91561884D01*
X50513276Y-91561884D01*
G37*
G36*
X31463276Y-91561884D02*
G01*
X31680569Y-91651890D01*
X31680571Y-91651891D01*
X31876130Y-91782560D01*
X32042440Y-91948870D01*
X32173110Y-92144431D01*
X32263116Y-92361724D01*
X32309000Y-92592400D01*
X32309000Y-92827600D01*
X32263116Y-93058276D01*
X32173110Y-93275569D01*
X32173109Y-93275571D01*
X32042440Y-93471130D01*
X31876130Y-93637440D01*
X31680571Y-93768109D01*
X31680570Y-93768110D01*
X31680569Y-93768110D01*
X31463276Y-93858116D01*
X31232600Y-93904000D01*
X30997400Y-93904000D01*
X30766724Y-93858116D01*
X30549431Y-93768110D01*
X30549430Y-93768110D01*
X30549429Y-93768109D01*
X30353870Y-93637440D01*
X30187560Y-93471130D01*
X30056891Y-93275571D01*
X30056890Y-93275569D01*
X29966884Y-93058276D01*
X29921000Y-92827600D01*
X29921000Y-92592400D01*
X29966884Y-92361724D01*
X30056890Y-92144431D01*
X30187560Y-91948870D01*
X30353870Y-91782560D01*
X30549429Y-91651891D01*
X30549431Y-91651890D01*
X30766724Y-91561884D01*
X30997400Y-91516000D01*
X31232600Y-91516000D01*
X31463276Y-91561884D01*
X31463276Y-91561884D01*
G37*
G36*
X221963276Y-91561884D02*
G01*
X222180569Y-91651890D01*
X222180571Y-91651891D01*
X222376130Y-91782560D01*
X222542440Y-91948870D01*
X222673110Y-92144431D01*
X222763116Y-92361724D01*
X222809000Y-92592400D01*
X222809000Y-92827600D01*
X222763116Y-93058276D01*
X222673110Y-93275569D01*
X222673109Y-93275571D01*
X222542440Y-93471130D01*
X222376130Y-93637440D01*
X222180571Y-93768109D01*
X222180570Y-93768110D01*
X222180569Y-93768110D01*
X221963276Y-93858116D01*
X221732600Y-93904000D01*
X221497400Y-93904000D01*
X221266724Y-93858116D01*
X221049431Y-93768110D01*
X221049430Y-93768110D01*
X221049429Y-93768109D01*
X220853870Y-93637440D01*
X220687560Y-93471130D01*
X220556891Y-93275571D01*
X220556890Y-93275569D01*
X220466884Y-93058276D01*
X220421000Y-92827600D01*
X220421000Y-92592400D01*
X220466884Y-92361724D01*
X220556890Y-92144431D01*
X220687560Y-91948870D01*
X220853870Y-91782560D01*
X221049429Y-91651891D01*
X221049431Y-91651890D01*
X221266724Y-91561884D01*
X221497400Y-91516000D01*
X221732600Y-91516000D01*
X221963276Y-91561884D01*
X221963276Y-91561884D01*
G37*
G36*
X164813276Y-91561884D02*
G01*
X165030569Y-91651890D01*
X165030571Y-91651891D01*
X165226130Y-91782560D01*
X165392440Y-91948870D01*
X165523110Y-92144431D01*
X165613116Y-92361724D01*
X165659000Y-92592400D01*
X165659000Y-92827600D01*
X165613116Y-93058276D01*
X165523110Y-93275569D01*
X165523109Y-93275571D01*
X165392440Y-93471130D01*
X165226130Y-93637440D01*
X165030571Y-93768109D01*
X165030570Y-93768110D01*
X165030569Y-93768110D01*
X164813276Y-93858116D01*
X164582600Y-93904000D01*
X164347400Y-93904000D01*
X164116724Y-93858116D01*
X163899431Y-93768110D01*
X163899430Y-93768110D01*
X163899429Y-93768109D01*
X163703870Y-93637440D01*
X163537560Y-93471130D01*
X163406891Y-93275571D01*
X163406890Y-93275569D01*
X163316884Y-93058276D01*
X163271000Y-92827600D01*
X163271000Y-92592400D01*
X163316884Y-92361724D01*
X163406890Y-92144431D01*
X163537560Y-91948870D01*
X163703870Y-91782560D01*
X163899429Y-91651891D01*
X163899431Y-91651890D01*
X164116724Y-91561884D01*
X164347400Y-91516000D01*
X164582600Y-91516000D01*
X164813276Y-91561884D01*
X164813276Y-91561884D01*
G37*
G36*
X202913276Y-91561884D02*
G01*
X203130569Y-91651890D01*
X203130571Y-91651891D01*
X203326130Y-91782560D01*
X203492440Y-91948870D01*
X203623110Y-92144431D01*
X203713116Y-92361724D01*
X203759000Y-92592400D01*
X203759000Y-92827600D01*
X203713116Y-93058276D01*
X203623110Y-93275569D01*
X203623109Y-93275571D01*
X203492440Y-93471130D01*
X203326130Y-93637440D01*
X203130571Y-93768109D01*
X203130570Y-93768110D01*
X203130569Y-93768110D01*
X202913276Y-93858116D01*
X202682600Y-93904000D01*
X202447400Y-93904000D01*
X202216724Y-93858116D01*
X201999431Y-93768110D01*
X201999430Y-93768110D01*
X201999429Y-93768109D01*
X201803870Y-93637440D01*
X201637560Y-93471130D01*
X201506891Y-93275571D01*
X201506890Y-93275569D01*
X201416884Y-93058276D01*
X201371000Y-92827600D01*
X201371000Y-92592400D01*
X201416884Y-92361724D01*
X201506890Y-92144431D01*
X201637560Y-91948870D01*
X201803870Y-91782560D01*
X201999429Y-91651891D01*
X201999431Y-91651890D01*
X202216724Y-91561884D01*
X202447400Y-91516000D01*
X202682600Y-91516000D01*
X202913276Y-91561884D01*
X202913276Y-91561884D01*
G37*
G36*
X153810562Y-90898181D02*
G01*
X153845481Y-90908774D01*
X153877663Y-90925976D01*
X153905873Y-90949127D01*
X153929024Y-90977337D01*
X153946226Y-91009519D01*
X153956819Y-91044438D01*
X153961000Y-91086895D01*
X153961000Y-92228105D01*
X153956819Y-92270562D01*
X153946226Y-92305481D01*
X153929024Y-92337663D01*
X153905873Y-92365873D01*
X153877663Y-92389024D01*
X153845481Y-92406226D01*
X153810562Y-92416819D01*
X153768105Y-92421000D01*
X152301895Y-92421000D01*
X152259438Y-92416819D01*
X152224519Y-92406226D01*
X152192337Y-92389024D01*
X152164127Y-92365873D01*
X152140976Y-92337663D01*
X152123774Y-92305481D01*
X152113181Y-92270562D01*
X152109000Y-92228105D01*
X152109000Y-91086895D01*
X152113181Y-91044438D01*
X152123774Y-91009519D01*
X152140976Y-90977337D01*
X152164127Y-90949127D01*
X152192337Y-90925976D01*
X152224519Y-90908774D01*
X152259438Y-90898181D01*
X152301895Y-90894000D01*
X153768105Y-90894000D01*
X153810562Y-90898181D01*
X153810562Y-90898181D01*
G37*
G36*
X146190562Y-90898181D02*
G01*
X146225481Y-90908774D01*
X146257663Y-90925976D01*
X146285873Y-90949127D01*
X146309024Y-90977337D01*
X146326226Y-91009519D01*
X146336819Y-91044438D01*
X146341000Y-91086895D01*
X146341000Y-92228105D01*
X146336819Y-92270562D01*
X146326226Y-92305481D01*
X146309024Y-92337663D01*
X146285873Y-92365873D01*
X146257663Y-92389024D01*
X146225481Y-92406226D01*
X146190562Y-92416819D01*
X146148105Y-92421000D01*
X144681895Y-92421000D01*
X144639438Y-92416819D01*
X144604519Y-92406226D01*
X144572337Y-92389024D01*
X144544127Y-92365873D01*
X144520976Y-92337663D01*
X144503774Y-92305481D01*
X144493181Y-92270562D01*
X144489000Y-92228105D01*
X144489000Y-91086895D01*
X144493181Y-91044438D01*
X144503774Y-91009519D01*
X144520976Y-90977337D01*
X144544127Y-90949127D01*
X144572337Y-90925976D01*
X144604519Y-90908774D01*
X144639438Y-90898181D01*
X144681895Y-90894000D01*
X146148105Y-90894000D01*
X146190562Y-90898181D01*
X146190562Y-90898181D01*
G37*
G36*
X37813276Y-89021884D02*
G01*
X38030569Y-89111890D01*
X38030571Y-89111891D01*
X38129667Y-89178105D01*
X38226130Y-89242560D01*
X38392440Y-89408870D01*
X38523110Y-89604431D01*
X38613116Y-89821724D01*
X38659000Y-90052400D01*
X38659000Y-90287600D01*
X38613116Y-90518276D01*
X38523110Y-90735569D01*
X38523109Y-90735571D01*
X38392440Y-90931130D01*
X38226130Y-91097440D01*
X38030571Y-91228109D01*
X38030570Y-91228110D01*
X38030569Y-91228110D01*
X37813276Y-91318116D01*
X37582600Y-91364000D01*
X37347400Y-91364000D01*
X37116724Y-91318116D01*
X36899431Y-91228110D01*
X36899430Y-91228110D01*
X36899429Y-91228109D01*
X36703870Y-91097440D01*
X36537560Y-90931130D01*
X36406891Y-90735571D01*
X36406890Y-90735569D01*
X36316884Y-90518276D01*
X36271000Y-90287600D01*
X36271000Y-90052400D01*
X36316884Y-89821724D01*
X36406890Y-89604431D01*
X36537560Y-89408870D01*
X36703870Y-89242560D01*
X36800333Y-89178105D01*
X36899429Y-89111891D01*
X36899431Y-89111890D01*
X37116724Y-89021884D01*
X37347400Y-88976000D01*
X37582600Y-88976000D01*
X37813276Y-89021884D01*
X37813276Y-89021884D01*
G37*
G36*
X266413276Y-89021884D02*
G01*
X266630569Y-89111890D01*
X266630571Y-89111891D01*
X266729667Y-89178105D01*
X266826130Y-89242560D01*
X266992440Y-89408870D01*
X267123110Y-89604431D01*
X267213116Y-89821724D01*
X267259000Y-90052400D01*
X267259000Y-90287600D01*
X267213116Y-90518276D01*
X267123110Y-90735569D01*
X267123109Y-90735571D01*
X266992440Y-90931130D01*
X266826130Y-91097440D01*
X266630571Y-91228109D01*
X266630570Y-91228110D01*
X266630569Y-91228110D01*
X266413276Y-91318116D01*
X266182600Y-91364000D01*
X265947400Y-91364000D01*
X265716724Y-91318116D01*
X265499431Y-91228110D01*
X265499430Y-91228110D01*
X265499429Y-91228109D01*
X265303870Y-91097440D01*
X265137560Y-90931130D01*
X265006891Y-90735571D01*
X265006890Y-90735569D01*
X264916884Y-90518276D01*
X264871000Y-90287600D01*
X264871000Y-90052400D01*
X264916884Y-89821724D01*
X265006890Y-89604431D01*
X265137560Y-89408870D01*
X265303870Y-89242560D01*
X265400333Y-89178105D01*
X265499429Y-89111891D01*
X265499431Y-89111890D01*
X265716724Y-89021884D01*
X265947400Y-88976000D01*
X266182600Y-88976000D01*
X266413276Y-89021884D01*
X266413276Y-89021884D01*
G37*
G36*
X247363276Y-89021884D02*
G01*
X247580569Y-89111890D01*
X247580571Y-89111891D01*
X247679667Y-89178105D01*
X247776130Y-89242560D01*
X247942440Y-89408870D01*
X248073110Y-89604431D01*
X248163116Y-89821724D01*
X248209000Y-90052400D01*
X248209000Y-90287600D01*
X248163116Y-90518276D01*
X248073110Y-90735569D01*
X248073109Y-90735571D01*
X247942440Y-90931130D01*
X247776130Y-91097440D01*
X247580571Y-91228109D01*
X247580570Y-91228110D01*
X247580569Y-91228110D01*
X247363276Y-91318116D01*
X247132600Y-91364000D01*
X246897400Y-91364000D01*
X246666724Y-91318116D01*
X246449431Y-91228110D01*
X246449430Y-91228110D01*
X246449429Y-91228109D01*
X246253870Y-91097440D01*
X246087560Y-90931130D01*
X245956891Y-90735571D01*
X245956890Y-90735569D01*
X245866884Y-90518276D01*
X245821000Y-90287600D01*
X245821000Y-90052400D01*
X245866884Y-89821724D01*
X245956890Y-89604431D01*
X246087560Y-89408870D01*
X246253870Y-89242560D01*
X246350333Y-89178105D01*
X246449429Y-89111891D01*
X246449431Y-89111890D01*
X246666724Y-89021884D01*
X246897400Y-88976000D01*
X247132600Y-88976000D01*
X247363276Y-89021884D01*
X247363276Y-89021884D01*
G37*
G36*
X228313276Y-89021884D02*
G01*
X228530569Y-89111890D01*
X228530571Y-89111891D01*
X228629667Y-89178105D01*
X228726130Y-89242560D01*
X228892440Y-89408870D01*
X229023110Y-89604431D01*
X229113116Y-89821724D01*
X229159000Y-90052400D01*
X229159000Y-90287600D01*
X229113116Y-90518276D01*
X229023110Y-90735569D01*
X229023109Y-90735571D01*
X228892440Y-90931130D01*
X228726130Y-91097440D01*
X228530571Y-91228109D01*
X228530570Y-91228110D01*
X228530569Y-91228110D01*
X228313276Y-91318116D01*
X228082600Y-91364000D01*
X227847400Y-91364000D01*
X227616724Y-91318116D01*
X227399431Y-91228110D01*
X227399430Y-91228110D01*
X227399429Y-91228109D01*
X227203870Y-91097440D01*
X227037560Y-90931130D01*
X226906891Y-90735571D01*
X226906890Y-90735569D01*
X226816884Y-90518276D01*
X226771000Y-90287600D01*
X226771000Y-90052400D01*
X226816884Y-89821724D01*
X226906890Y-89604431D01*
X227037560Y-89408870D01*
X227203870Y-89242560D01*
X227300333Y-89178105D01*
X227399429Y-89111891D01*
X227399431Y-89111890D01*
X227616724Y-89021884D01*
X227847400Y-88976000D01*
X228082600Y-88976000D01*
X228313276Y-89021884D01*
X228313276Y-89021884D01*
G37*
G36*
X209263276Y-89021884D02*
G01*
X209480569Y-89111890D01*
X209480571Y-89111891D01*
X209579667Y-89178105D01*
X209676130Y-89242560D01*
X209842440Y-89408870D01*
X209973110Y-89604431D01*
X210063116Y-89821724D01*
X210109000Y-90052400D01*
X210109000Y-90287600D01*
X210063116Y-90518276D01*
X209973110Y-90735569D01*
X209973109Y-90735571D01*
X209842440Y-90931130D01*
X209676130Y-91097440D01*
X209480571Y-91228109D01*
X209480570Y-91228110D01*
X209480569Y-91228110D01*
X209263276Y-91318116D01*
X209032600Y-91364000D01*
X208797400Y-91364000D01*
X208566724Y-91318116D01*
X208349431Y-91228110D01*
X208349430Y-91228110D01*
X208349429Y-91228109D01*
X208153870Y-91097440D01*
X207987560Y-90931130D01*
X207856891Y-90735571D01*
X207856890Y-90735569D01*
X207766884Y-90518276D01*
X207721000Y-90287600D01*
X207721000Y-90052400D01*
X207766884Y-89821724D01*
X207856890Y-89604431D01*
X207987560Y-89408870D01*
X208153870Y-89242560D01*
X208250333Y-89178105D01*
X208349429Y-89111891D01*
X208349431Y-89111890D01*
X208566724Y-89021884D01*
X208797400Y-88976000D01*
X209032600Y-88976000D01*
X209263276Y-89021884D01*
X209263276Y-89021884D01*
G37*
G36*
X190213276Y-89021884D02*
G01*
X190430569Y-89111890D01*
X190430571Y-89111891D01*
X190529667Y-89178105D01*
X190626130Y-89242560D01*
X190792440Y-89408870D01*
X190923110Y-89604431D01*
X191013116Y-89821724D01*
X191059000Y-90052400D01*
X191059000Y-90287600D01*
X191013116Y-90518276D01*
X190923110Y-90735569D01*
X190923109Y-90735571D01*
X190792440Y-90931130D01*
X190626130Y-91097440D01*
X190430571Y-91228109D01*
X190430570Y-91228110D01*
X190430569Y-91228110D01*
X190213276Y-91318116D01*
X189982600Y-91364000D01*
X189747400Y-91364000D01*
X189516724Y-91318116D01*
X189299431Y-91228110D01*
X189299430Y-91228110D01*
X189299429Y-91228109D01*
X189103870Y-91097440D01*
X188937560Y-90931130D01*
X188806891Y-90735571D01*
X188806890Y-90735569D01*
X188716884Y-90518276D01*
X188671000Y-90287600D01*
X188671000Y-90052400D01*
X188716884Y-89821724D01*
X188806890Y-89604431D01*
X188937560Y-89408870D01*
X189103870Y-89242560D01*
X189200333Y-89178105D01*
X189299429Y-89111891D01*
X189299431Y-89111890D01*
X189516724Y-89021884D01*
X189747400Y-88976000D01*
X189982600Y-88976000D01*
X190213276Y-89021884D01*
X190213276Y-89021884D01*
G37*
G36*
X171163276Y-89021884D02*
G01*
X171380569Y-89111890D01*
X171380571Y-89111891D01*
X171479667Y-89178105D01*
X171576130Y-89242560D01*
X171742440Y-89408870D01*
X171873110Y-89604431D01*
X171963116Y-89821724D01*
X172009000Y-90052400D01*
X172009000Y-90287600D01*
X171963116Y-90518276D01*
X171873110Y-90735569D01*
X171873109Y-90735571D01*
X171742440Y-90931130D01*
X171576130Y-91097440D01*
X171380571Y-91228109D01*
X171380570Y-91228110D01*
X171380569Y-91228110D01*
X171163276Y-91318116D01*
X170932600Y-91364000D01*
X170697400Y-91364000D01*
X170466724Y-91318116D01*
X170249431Y-91228110D01*
X170249430Y-91228110D01*
X170249429Y-91228109D01*
X170053870Y-91097440D01*
X169887560Y-90931130D01*
X169756891Y-90735571D01*
X169756890Y-90735569D01*
X169666884Y-90518276D01*
X169621000Y-90287600D01*
X169621000Y-90052400D01*
X169666884Y-89821724D01*
X169756890Y-89604431D01*
X169887560Y-89408870D01*
X170053870Y-89242560D01*
X170150333Y-89178105D01*
X170249429Y-89111891D01*
X170249431Y-89111890D01*
X170466724Y-89021884D01*
X170697400Y-88976000D01*
X170932600Y-88976000D01*
X171163276Y-89021884D01*
X171163276Y-89021884D01*
G37*
G36*
X133063276Y-89021884D02*
G01*
X133280569Y-89111890D01*
X133280571Y-89111891D01*
X133379667Y-89178105D01*
X133476130Y-89242560D01*
X133642440Y-89408870D01*
X133773110Y-89604431D01*
X133863116Y-89821724D01*
X133909000Y-90052400D01*
X133909000Y-90287600D01*
X133863116Y-90518276D01*
X133773110Y-90735569D01*
X133773109Y-90735571D01*
X133642440Y-90931130D01*
X133476130Y-91097440D01*
X133280571Y-91228109D01*
X133280570Y-91228110D01*
X133280569Y-91228110D01*
X133063276Y-91318116D01*
X132832600Y-91364000D01*
X132597400Y-91364000D01*
X132366724Y-91318116D01*
X132149431Y-91228110D01*
X132149430Y-91228110D01*
X132149429Y-91228109D01*
X131953870Y-91097440D01*
X131787560Y-90931130D01*
X131656891Y-90735571D01*
X131656890Y-90735569D01*
X131566884Y-90518276D01*
X131521000Y-90287600D01*
X131521000Y-90052400D01*
X131566884Y-89821724D01*
X131656890Y-89604431D01*
X131787560Y-89408870D01*
X131953870Y-89242560D01*
X132050333Y-89178105D01*
X132149429Y-89111891D01*
X132149431Y-89111890D01*
X132366724Y-89021884D01*
X132597400Y-88976000D01*
X132832600Y-88976000D01*
X133063276Y-89021884D01*
X133063276Y-89021884D01*
G37*
G36*
X56863276Y-89021884D02*
G01*
X57080569Y-89111890D01*
X57080571Y-89111891D01*
X57179667Y-89178105D01*
X57276130Y-89242560D01*
X57442440Y-89408870D01*
X57573110Y-89604431D01*
X57663116Y-89821724D01*
X57709000Y-90052400D01*
X57709000Y-90287600D01*
X57663116Y-90518276D01*
X57573110Y-90735569D01*
X57573109Y-90735571D01*
X57442440Y-90931130D01*
X57276130Y-91097440D01*
X57080571Y-91228109D01*
X57080570Y-91228110D01*
X57080569Y-91228110D01*
X56863276Y-91318116D01*
X56632600Y-91364000D01*
X56397400Y-91364000D01*
X56166724Y-91318116D01*
X55949431Y-91228110D01*
X55949430Y-91228110D01*
X55949429Y-91228109D01*
X55753870Y-91097440D01*
X55587560Y-90931130D01*
X55456891Y-90735571D01*
X55456890Y-90735569D01*
X55366884Y-90518276D01*
X55321000Y-90287600D01*
X55321000Y-90052400D01*
X55366884Y-89821724D01*
X55456890Y-89604431D01*
X55587560Y-89408870D01*
X55753870Y-89242560D01*
X55850333Y-89178105D01*
X55949429Y-89111891D01*
X55949431Y-89111890D01*
X56166724Y-89021884D01*
X56397400Y-88976000D01*
X56632600Y-88976000D01*
X56863276Y-89021884D01*
X56863276Y-89021884D01*
G37*
G36*
X94963276Y-89021884D02*
G01*
X95180569Y-89111890D01*
X95180571Y-89111891D01*
X95279667Y-89178105D01*
X95376130Y-89242560D01*
X95542440Y-89408870D01*
X95673110Y-89604431D01*
X95763116Y-89821724D01*
X95809000Y-90052400D01*
X95809000Y-90287600D01*
X95763116Y-90518276D01*
X95673110Y-90735569D01*
X95673109Y-90735571D01*
X95542440Y-90931130D01*
X95376130Y-91097440D01*
X95180571Y-91228109D01*
X95180570Y-91228110D01*
X95180569Y-91228110D01*
X94963276Y-91318116D01*
X94732600Y-91364000D01*
X94497400Y-91364000D01*
X94266724Y-91318116D01*
X94049431Y-91228110D01*
X94049430Y-91228110D01*
X94049429Y-91228109D01*
X93853870Y-91097440D01*
X93687560Y-90931130D01*
X93556891Y-90735571D01*
X93556890Y-90735569D01*
X93466884Y-90518276D01*
X93421000Y-90287600D01*
X93421000Y-90052400D01*
X93466884Y-89821724D01*
X93556890Y-89604431D01*
X93687560Y-89408870D01*
X93853870Y-89242560D01*
X93950333Y-89178105D01*
X94049429Y-89111891D01*
X94049431Y-89111890D01*
X94266724Y-89021884D01*
X94497400Y-88976000D01*
X94732600Y-88976000D01*
X94963276Y-89021884D01*
X94963276Y-89021884D01*
G37*
G36*
X114013276Y-89021884D02*
G01*
X114230569Y-89111890D01*
X114230571Y-89111891D01*
X114329667Y-89178105D01*
X114426130Y-89242560D01*
X114592440Y-89408870D01*
X114723110Y-89604431D01*
X114813116Y-89821724D01*
X114859000Y-90052400D01*
X114859000Y-90287600D01*
X114813116Y-90518276D01*
X114723110Y-90735569D01*
X114723109Y-90735571D01*
X114592440Y-90931130D01*
X114426130Y-91097440D01*
X114230571Y-91228109D01*
X114230570Y-91228110D01*
X114230569Y-91228110D01*
X114013276Y-91318116D01*
X113782600Y-91364000D01*
X113547400Y-91364000D01*
X113316724Y-91318116D01*
X113099431Y-91228110D01*
X113099430Y-91228110D01*
X113099429Y-91228109D01*
X112903870Y-91097440D01*
X112737560Y-90931130D01*
X112606891Y-90735571D01*
X112606890Y-90735569D01*
X112516884Y-90518276D01*
X112471000Y-90287600D01*
X112471000Y-90052400D01*
X112516884Y-89821724D01*
X112606890Y-89604431D01*
X112737560Y-89408870D01*
X112903870Y-89242560D01*
X113000333Y-89178105D01*
X113099429Y-89111891D01*
X113099431Y-89111890D01*
X113316724Y-89021884D01*
X113547400Y-88976000D01*
X113782600Y-88976000D01*
X114013276Y-89021884D01*
X114013276Y-89021884D01*
G37*
G36*
X75913276Y-89021884D02*
G01*
X76130569Y-89111890D01*
X76130571Y-89111891D01*
X76229667Y-89178105D01*
X76326130Y-89242560D01*
X76492440Y-89408870D01*
X76623110Y-89604431D01*
X76713116Y-89821724D01*
X76759000Y-90052400D01*
X76759000Y-90287600D01*
X76713116Y-90518276D01*
X76623110Y-90735569D01*
X76623109Y-90735571D01*
X76492440Y-90931130D01*
X76326130Y-91097440D01*
X76130571Y-91228109D01*
X76130570Y-91228110D01*
X76130569Y-91228110D01*
X75913276Y-91318116D01*
X75682600Y-91364000D01*
X75447400Y-91364000D01*
X75216724Y-91318116D01*
X74999431Y-91228110D01*
X74999430Y-91228110D01*
X74999429Y-91228109D01*
X74803870Y-91097440D01*
X74637560Y-90931130D01*
X74506891Y-90735571D01*
X74506890Y-90735569D01*
X74416884Y-90518276D01*
X74371000Y-90287600D01*
X74371000Y-90052400D01*
X74416884Y-89821724D01*
X74506890Y-89604431D01*
X74637560Y-89408870D01*
X74803870Y-89242560D01*
X74900333Y-89178105D01*
X74999429Y-89111891D01*
X74999431Y-89111890D01*
X75216724Y-89021884D01*
X75447400Y-88976000D01*
X75682600Y-88976000D01*
X75913276Y-89021884D01*
X75913276Y-89021884D01*
G37*
G36*
X153810562Y-87923181D02*
G01*
X153845481Y-87933774D01*
X153877663Y-87950976D01*
X153905873Y-87974127D01*
X153929024Y-88002337D01*
X153946226Y-88034519D01*
X153956819Y-88069438D01*
X153961000Y-88111895D01*
X153961000Y-89253105D01*
X153956819Y-89295562D01*
X153946226Y-89330481D01*
X153929024Y-89362663D01*
X153905873Y-89390873D01*
X153877663Y-89414024D01*
X153845481Y-89431226D01*
X153810562Y-89441819D01*
X153768105Y-89446000D01*
X152301895Y-89446000D01*
X152259438Y-89441819D01*
X152224519Y-89431226D01*
X152192337Y-89414024D01*
X152164127Y-89390873D01*
X152140976Y-89362663D01*
X152123774Y-89330481D01*
X152113181Y-89295562D01*
X152109000Y-89253105D01*
X152109000Y-88111895D01*
X152113181Y-88069438D01*
X152123774Y-88034519D01*
X152140976Y-88002337D01*
X152164127Y-87974127D01*
X152192337Y-87950976D01*
X152224519Y-87933774D01*
X152259438Y-87923181D01*
X152301895Y-87919000D01*
X153768105Y-87919000D01*
X153810562Y-87923181D01*
X153810562Y-87923181D01*
G37*
G36*
X146190562Y-87923181D02*
G01*
X146225481Y-87933774D01*
X146257663Y-87950976D01*
X146285873Y-87974127D01*
X146309024Y-88002337D01*
X146326226Y-88034519D01*
X146336819Y-88069438D01*
X146341000Y-88111895D01*
X146341000Y-89253105D01*
X146336819Y-89295562D01*
X146326226Y-89330481D01*
X146309024Y-89362663D01*
X146285873Y-89390873D01*
X146257663Y-89414024D01*
X146225481Y-89431226D01*
X146190562Y-89441819D01*
X146148105Y-89446000D01*
X144681895Y-89446000D01*
X144639438Y-89441819D01*
X144604519Y-89431226D01*
X144572337Y-89414024D01*
X144544127Y-89390873D01*
X144520976Y-89362663D01*
X144503774Y-89330481D01*
X144493181Y-89295562D01*
X144489000Y-89253105D01*
X144489000Y-88111895D01*
X144493181Y-88069438D01*
X144503774Y-88034519D01*
X144520976Y-88002337D01*
X144544127Y-87974127D01*
X144572337Y-87950976D01*
X144604519Y-87933774D01*
X144639438Y-87923181D01*
X144681895Y-87919000D01*
X146148105Y-87919000D01*
X146190562Y-87923181D01*
X146190562Y-87923181D01*
G37*
G36*
X254525331Y-83993211D02*
G01*
X254853092Y-84128974D01*
X255148070Y-84326072D01*
X255398928Y-84576930D01*
X255596026Y-84871908D01*
X255731789Y-85199669D01*
X255801000Y-85547616D01*
X255801000Y-85902384D01*
X255731789Y-86250331D01*
X255596026Y-86578092D01*
X255398928Y-86873070D01*
X255148070Y-87123928D01*
X254853092Y-87321026D01*
X254525331Y-87456789D01*
X254177384Y-87526000D01*
X253822616Y-87526000D01*
X253474669Y-87456789D01*
X253146908Y-87321026D01*
X252851930Y-87123928D01*
X252601072Y-86873070D01*
X252403974Y-86578092D01*
X252268211Y-86250331D01*
X252199000Y-85902384D01*
X252199000Y-85547616D01*
X252268211Y-85199669D01*
X252403974Y-84871908D01*
X252601072Y-84576930D01*
X252851930Y-84326072D01*
X253146908Y-84128974D01*
X253474669Y-83993211D01*
X253822616Y-83924000D01*
X254177384Y-83924000D01*
X254525331Y-83993211D01*
X254525331Y-83993211D01*
G37*
G36*
X197375331Y-83993211D02*
G01*
X197703092Y-84128974D01*
X197998070Y-84326072D01*
X198248928Y-84576930D01*
X198446026Y-84871908D01*
X198581789Y-85199669D01*
X198651000Y-85547616D01*
X198651000Y-85902384D01*
X198581789Y-86250331D01*
X198446026Y-86578092D01*
X198248928Y-86873070D01*
X197998070Y-87123928D01*
X197703092Y-87321026D01*
X197375331Y-87456789D01*
X197027384Y-87526000D01*
X196672616Y-87526000D01*
X196324669Y-87456789D01*
X195996908Y-87321026D01*
X195701930Y-87123928D01*
X195451072Y-86873070D01*
X195253974Y-86578092D01*
X195118211Y-86250331D01*
X195049000Y-85902384D01*
X195049000Y-85547616D01*
X195118211Y-85199669D01*
X195253974Y-84871908D01*
X195451072Y-84576930D01*
X195701930Y-84326072D01*
X195996908Y-84128974D01*
X196324669Y-83993211D01*
X196672616Y-83924000D01*
X197027384Y-83924000D01*
X197375331Y-83993211D01*
X197375331Y-83993211D01*
G37*
G36*
X102125331Y-83993211D02*
G01*
X102453092Y-84128974D01*
X102748070Y-84326072D01*
X102998928Y-84576930D01*
X103196026Y-84871908D01*
X103331789Y-85199669D01*
X103401000Y-85547616D01*
X103401000Y-85902384D01*
X103331789Y-86250331D01*
X103196026Y-86578092D01*
X102998928Y-86873070D01*
X102748070Y-87123928D01*
X102453092Y-87321026D01*
X102125331Y-87456789D01*
X101777384Y-87526000D01*
X101422616Y-87526000D01*
X101074669Y-87456789D01*
X100746908Y-87321026D01*
X100451930Y-87123928D01*
X100201072Y-86873070D01*
X100003974Y-86578092D01*
X99868211Y-86250331D01*
X99799000Y-85902384D01*
X99799000Y-85547616D01*
X99868211Y-85199669D01*
X100003974Y-84871908D01*
X100201072Y-84576930D01*
X100451930Y-84326072D01*
X100746908Y-84128974D01*
X101074669Y-83993211D01*
X101422616Y-83924000D01*
X101777384Y-83924000D01*
X102125331Y-83993211D01*
X102125331Y-83993211D01*
G37*
G36*
X44975331Y-83993211D02*
G01*
X45303092Y-84128974D01*
X45598070Y-84326072D01*
X45848928Y-84576930D01*
X46046026Y-84871908D01*
X46181789Y-85199669D01*
X46251000Y-85547616D01*
X46251000Y-85902384D01*
X46181789Y-86250331D01*
X46046026Y-86578092D01*
X45848928Y-86873070D01*
X45598070Y-87123928D01*
X45303092Y-87321026D01*
X44975331Y-87456789D01*
X44627384Y-87526000D01*
X44272616Y-87526000D01*
X43924669Y-87456789D01*
X43596908Y-87321026D01*
X43301930Y-87123928D01*
X43051072Y-86873070D01*
X42853974Y-86578092D01*
X42718211Y-86250331D01*
X42649000Y-85902384D01*
X42649000Y-85547616D01*
X42718211Y-85199669D01*
X42853974Y-84871908D01*
X43051072Y-84576930D01*
X43301930Y-84326072D01*
X43596908Y-84128974D01*
X43924669Y-83993211D01*
X44272616Y-83924000D01*
X44627384Y-83924000D01*
X44975331Y-83993211D01*
X44975331Y-83993211D01*
G37*
G36*
X143650562Y-81373181D02*
G01*
X143685481Y-81383774D01*
X143717663Y-81400976D01*
X143745873Y-81424127D01*
X143769024Y-81452337D01*
X143786226Y-81484519D01*
X143796819Y-81519438D01*
X143801000Y-81561895D01*
X143801000Y-82703105D01*
X143796819Y-82745562D01*
X143786226Y-82780481D01*
X143769024Y-82812663D01*
X143745873Y-82840873D01*
X143717663Y-82864024D01*
X143685481Y-82881226D01*
X143650562Y-82891819D01*
X143608105Y-82896000D01*
X142141895Y-82896000D01*
X142099438Y-82891819D01*
X142064519Y-82881226D01*
X142032337Y-82864024D01*
X142004127Y-82840873D01*
X141980976Y-82812663D01*
X141963774Y-82780481D01*
X141953181Y-82745562D01*
X141949000Y-82703105D01*
X141949000Y-81561895D01*
X141953181Y-81519438D01*
X141963774Y-81484519D01*
X141980976Y-81452337D01*
X142004127Y-81424127D01*
X142032337Y-81400976D01*
X142064519Y-81383774D01*
X142099438Y-81373181D01*
X142141895Y-81369000D01*
X143608105Y-81369000D01*
X143650562Y-81373181D01*
X143650562Y-81373181D01*
G37*
G36*
X151270562Y-81373181D02*
G01*
X151305481Y-81383774D01*
X151337663Y-81400976D01*
X151365873Y-81424127D01*
X151389024Y-81452337D01*
X151406226Y-81484519D01*
X151416819Y-81519438D01*
X151421000Y-81561895D01*
X151421000Y-82703105D01*
X151416819Y-82745562D01*
X151406226Y-82780481D01*
X151389024Y-82812663D01*
X151365873Y-82840873D01*
X151337663Y-82864024D01*
X151305481Y-82881226D01*
X151270562Y-82891819D01*
X151228105Y-82896000D01*
X149761895Y-82896000D01*
X149719438Y-82891819D01*
X149684519Y-82881226D01*
X149652337Y-82864024D01*
X149624127Y-82840873D01*
X149600976Y-82812663D01*
X149583774Y-82780481D01*
X149573181Y-82745562D01*
X149569000Y-82703105D01*
X149569000Y-81561895D01*
X149573181Y-81519438D01*
X149583774Y-81484519D01*
X149600976Y-81452337D01*
X149624127Y-81424127D01*
X149652337Y-81400976D01*
X149684519Y-81383774D01*
X149719438Y-81373181D01*
X149761895Y-81369000D01*
X151228105Y-81369000D01*
X151270562Y-81373181D01*
X151270562Y-81373181D01*
G37*
G36*
X146190562Y-81373181D02*
G01*
X146225481Y-81383774D01*
X146257663Y-81400976D01*
X146285873Y-81424127D01*
X146309024Y-81452337D01*
X146326226Y-81484519D01*
X146336819Y-81519438D01*
X146341000Y-81561895D01*
X146341000Y-82703105D01*
X146336819Y-82745562D01*
X146326226Y-82780481D01*
X146309024Y-82812663D01*
X146285873Y-82840873D01*
X146257663Y-82864024D01*
X146225481Y-82881226D01*
X146190562Y-82891819D01*
X146148105Y-82896000D01*
X144681895Y-82896000D01*
X144639438Y-82891819D01*
X144604519Y-82881226D01*
X144572337Y-82864024D01*
X144544127Y-82840873D01*
X144520976Y-82812663D01*
X144503774Y-82780481D01*
X144493181Y-82745562D01*
X144489000Y-82703105D01*
X144489000Y-81561895D01*
X144493181Y-81519438D01*
X144503774Y-81484519D01*
X144520976Y-81452337D01*
X144544127Y-81424127D01*
X144572337Y-81400976D01*
X144604519Y-81383774D01*
X144639438Y-81373181D01*
X144681895Y-81369000D01*
X146148105Y-81369000D01*
X146190562Y-81373181D01*
X146190562Y-81373181D01*
G37*
G36*
X146190562Y-78398181D02*
G01*
X146225481Y-78408774D01*
X146257663Y-78425976D01*
X146285873Y-78449127D01*
X146309024Y-78477337D01*
X146326226Y-78509519D01*
X146336819Y-78544438D01*
X146341000Y-78586895D01*
X146341000Y-79728105D01*
X146336819Y-79770562D01*
X146326226Y-79805481D01*
X146309024Y-79837663D01*
X146285873Y-79865873D01*
X146257663Y-79889024D01*
X146225481Y-79906226D01*
X146190562Y-79916819D01*
X146148105Y-79921000D01*
X144681895Y-79921000D01*
X144639438Y-79916819D01*
X144604519Y-79906226D01*
X144572337Y-79889024D01*
X144544127Y-79865873D01*
X144520976Y-79837663D01*
X144503774Y-79805481D01*
X144493181Y-79770562D01*
X144489000Y-79728105D01*
X144489000Y-78586895D01*
X144493181Y-78544438D01*
X144503774Y-78509519D01*
X144520976Y-78477337D01*
X144544127Y-78449127D01*
X144572337Y-78425976D01*
X144604519Y-78408774D01*
X144639438Y-78398181D01*
X144681895Y-78394000D01*
X146148105Y-78394000D01*
X146190562Y-78398181D01*
X146190562Y-78398181D01*
G37*
G36*
X151270562Y-78398181D02*
G01*
X151305481Y-78408774D01*
X151337663Y-78425976D01*
X151365873Y-78449127D01*
X151389024Y-78477337D01*
X151406226Y-78509519D01*
X151416819Y-78544438D01*
X151421000Y-78586895D01*
X151421000Y-79728105D01*
X151416819Y-79770562D01*
X151406226Y-79805481D01*
X151389024Y-79837663D01*
X151365873Y-79865873D01*
X151337663Y-79889024D01*
X151305481Y-79906226D01*
X151270562Y-79916819D01*
X151228105Y-79921000D01*
X149761895Y-79921000D01*
X149719438Y-79916819D01*
X149684519Y-79906226D01*
X149652337Y-79889024D01*
X149624127Y-79865873D01*
X149600976Y-79837663D01*
X149583774Y-79805481D01*
X149573181Y-79770562D01*
X149569000Y-79728105D01*
X149569000Y-78586895D01*
X149573181Y-78544438D01*
X149583774Y-78509519D01*
X149600976Y-78477337D01*
X149624127Y-78449127D01*
X149652337Y-78425976D01*
X149684519Y-78408774D01*
X149719438Y-78398181D01*
X149761895Y-78394000D01*
X151228105Y-78394000D01*
X151270562Y-78398181D01*
X151270562Y-78398181D01*
G37*
G36*
X143650562Y-78398181D02*
G01*
X143685481Y-78408774D01*
X143717663Y-78425976D01*
X143745873Y-78449127D01*
X143769024Y-78477337D01*
X143786226Y-78509519D01*
X143796819Y-78544438D01*
X143801000Y-78586895D01*
X143801000Y-79728105D01*
X143796819Y-79770562D01*
X143786226Y-79805481D01*
X143769024Y-79837663D01*
X143745873Y-79865873D01*
X143717663Y-79889024D01*
X143685481Y-79906226D01*
X143650562Y-79916819D01*
X143608105Y-79921000D01*
X142141895Y-79921000D01*
X142099438Y-79916819D01*
X142064519Y-79906226D01*
X142032337Y-79889024D01*
X142004127Y-79865873D01*
X141980976Y-79837663D01*
X141963774Y-79805481D01*
X141953181Y-79770562D01*
X141949000Y-79728105D01*
X141949000Y-78586895D01*
X141953181Y-78544438D01*
X141963774Y-78509519D01*
X141980976Y-78477337D01*
X142004127Y-78449127D01*
X142032337Y-78425976D01*
X142064519Y-78408774D01*
X142099438Y-78398181D01*
X142141895Y-78394000D01*
X143608105Y-78394000D01*
X143650562Y-78398181D01*
X143650562Y-78398181D01*
G37*
G36*
X260063276Y-72511884D02*
G01*
X260280569Y-72601890D01*
X260280571Y-72601891D01*
X260328309Y-72633789D01*
X260476130Y-72732560D01*
X260642440Y-72898870D01*
X260773110Y-73094431D01*
X260863116Y-73311724D01*
X260909000Y-73542400D01*
X260909000Y-73777600D01*
X260863116Y-74008276D01*
X260773110Y-74225569D01*
X260773109Y-74225571D01*
X260642440Y-74421130D01*
X260476130Y-74587440D01*
X260280571Y-74718109D01*
X260280570Y-74718110D01*
X260280569Y-74718110D01*
X260063276Y-74808116D01*
X259832600Y-74854000D01*
X259597400Y-74854000D01*
X259366724Y-74808116D01*
X259149431Y-74718110D01*
X259149430Y-74718110D01*
X259149429Y-74718109D01*
X258953870Y-74587440D01*
X258787560Y-74421130D01*
X258656891Y-74225571D01*
X258656890Y-74225569D01*
X258566884Y-74008276D01*
X258521000Y-73777600D01*
X258521000Y-73542400D01*
X258566884Y-73311724D01*
X258656890Y-73094431D01*
X258787560Y-72898870D01*
X258953870Y-72732560D01*
X259101691Y-72633789D01*
X259149429Y-72601891D01*
X259149431Y-72601890D01*
X259366724Y-72511884D01*
X259597400Y-72466000D01*
X259832600Y-72466000D01*
X260063276Y-72511884D01*
X260063276Y-72511884D01*
G37*
G36*
X241013276Y-72511884D02*
G01*
X241230569Y-72601890D01*
X241230571Y-72601891D01*
X241278309Y-72633789D01*
X241426130Y-72732560D01*
X241592440Y-72898870D01*
X241723110Y-73094431D01*
X241813116Y-73311724D01*
X241859000Y-73542400D01*
X241859000Y-73777600D01*
X241813116Y-74008276D01*
X241723110Y-74225569D01*
X241723109Y-74225571D01*
X241592440Y-74421130D01*
X241426130Y-74587440D01*
X241230571Y-74718109D01*
X241230570Y-74718110D01*
X241230569Y-74718110D01*
X241013276Y-74808116D01*
X240782600Y-74854000D01*
X240547400Y-74854000D01*
X240316724Y-74808116D01*
X240099431Y-74718110D01*
X240099430Y-74718110D01*
X240099429Y-74718109D01*
X239903870Y-74587440D01*
X239737560Y-74421130D01*
X239606891Y-74225571D01*
X239606890Y-74225569D01*
X239516884Y-74008276D01*
X239471000Y-73777600D01*
X239471000Y-73542400D01*
X239516884Y-73311724D01*
X239606890Y-73094431D01*
X239737560Y-72898870D01*
X239903870Y-72732560D01*
X240051691Y-72633789D01*
X240099429Y-72601891D01*
X240099431Y-72601890D01*
X240316724Y-72511884D01*
X240547400Y-72466000D01*
X240782600Y-72466000D01*
X241013276Y-72511884D01*
X241013276Y-72511884D01*
G37*
G36*
X221963276Y-72511884D02*
G01*
X222180569Y-72601890D01*
X222180571Y-72601891D01*
X222228309Y-72633789D01*
X222376130Y-72732560D01*
X222542440Y-72898870D01*
X222673110Y-73094431D01*
X222763116Y-73311724D01*
X222809000Y-73542400D01*
X222809000Y-73777600D01*
X222763116Y-74008276D01*
X222673110Y-74225569D01*
X222673109Y-74225571D01*
X222542440Y-74421130D01*
X222376130Y-74587440D01*
X222180571Y-74718109D01*
X222180570Y-74718110D01*
X222180569Y-74718110D01*
X221963276Y-74808116D01*
X221732600Y-74854000D01*
X221497400Y-74854000D01*
X221266724Y-74808116D01*
X221049431Y-74718110D01*
X221049430Y-74718110D01*
X221049429Y-74718109D01*
X220853870Y-74587440D01*
X220687560Y-74421130D01*
X220556891Y-74225571D01*
X220556890Y-74225569D01*
X220466884Y-74008276D01*
X220421000Y-73777600D01*
X220421000Y-73542400D01*
X220466884Y-73311724D01*
X220556890Y-73094431D01*
X220687560Y-72898870D01*
X220853870Y-72732560D01*
X221001691Y-72633789D01*
X221049429Y-72601891D01*
X221049431Y-72601890D01*
X221266724Y-72511884D01*
X221497400Y-72466000D01*
X221732600Y-72466000D01*
X221963276Y-72511884D01*
X221963276Y-72511884D01*
G37*
G36*
X202913276Y-72511884D02*
G01*
X203130569Y-72601890D01*
X203130571Y-72601891D01*
X203178309Y-72633789D01*
X203326130Y-72732560D01*
X203492440Y-72898870D01*
X203623110Y-73094431D01*
X203713116Y-73311724D01*
X203759000Y-73542400D01*
X203759000Y-73777600D01*
X203713116Y-74008276D01*
X203623110Y-74225569D01*
X203623109Y-74225571D01*
X203492440Y-74421130D01*
X203326130Y-74587440D01*
X203130571Y-74718109D01*
X203130570Y-74718110D01*
X203130569Y-74718110D01*
X202913276Y-74808116D01*
X202682600Y-74854000D01*
X202447400Y-74854000D01*
X202216724Y-74808116D01*
X201999431Y-74718110D01*
X201999430Y-74718110D01*
X201999429Y-74718109D01*
X201803870Y-74587440D01*
X201637560Y-74421130D01*
X201506891Y-74225571D01*
X201506890Y-74225569D01*
X201416884Y-74008276D01*
X201371000Y-73777600D01*
X201371000Y-73542400D01*
X201416884Y-73311724D01*
X201506890Y-73094431D01*
X201637560Y-72898870D01*
X201803870Y-72732560D01*
X201951691Y-72633789D01*
X201999429Y-72601891D01*
X201999431Y-72601890D01*
X202216724Y-72511884D01*
X202447400Y-72466000D01*
X202682600Y-72466000D01*
X202913276Y-72511884D01*
X202913276Y-72511884D01*
G37*
G36*
X183863276Y-72511884D02*
G01*
X184080569Y-72601890D01*
X184080571Y-72601891D01*
X184128309Y-72633789D01*
X184276130Y-72732560D01*
X184442440Y-72898870D01*
X184573110Y-73094431D01*
X184663116Y-73311724D01*
X184709000Y-73542400D01*
X184709000Y-73777600D01*
X184663116Y-74008276D01*
X184573110Y-74225569D01*
X184573109Y-74225571D01*
X184442440Y-74421130D01*
X184276130Y-74587440D01*
X184080571Y-74718109D01*
X184080570Y-74718110D01*
X184080569Y-74718110D01*
X183863276Y-74808116D01*
X183632600Y-74854000D01*
X183397400Y-74854000D01*
X183166724Y-74808116D01*
X182949431Y-74718110D01*
X182949430Y-74718110D01*
X182949429Y-74718109D01*
X182753870Y-74587440D01*
X182587560Y-74421130D01*
X182456891Y-74225571D01*
X182456890Y-74225569D01*
X182366884Y-74008276D01*
X182321000Y-73777600D01*
X182321000Y-73542400D01*
X182366884Y-73311724D01*
X182456890Y-73094431D01*
X182587560Y-72898870D01*
X182753870Y-72732560D01*
X182901691Y-72633789D01*
X182949429Y-72601891D01*
X182949431Y-72601890D01*
X183166724Y-72511884D01*
X183397400Y-72466000D01*
X183632600Y-72466000D01*
X183863276Y-72511884D01*
X183863276Y-72511884D01*
G37*
G36*
X164813276Y-72511884D02*
G01*
X165030569Y-72601890D01*
X165030571Y-72601891D01*
X165078309Y-72633789D01*
X165226130Y-72732560D01*
X165392440Y-72898870D01*
X165523110Y-73094431D01*
X165613116Y-73311724D01*
X165659000Y-73542400D01*
X165659000Y-73777600D01*
X165613116Y-74008276D01*
X165523110Y-74225569D01*
X165523109Y-74225571D01*
X165392440Y-74421130D01*
X165226130Y-74587440D01*
X165030571Y-74718109D01*
X165030570Y-74718110D01*
X165030569Y-74718110D01*
X164813276Y-74808116D01*
X164582600Y-74854000D01*
X164347400Y-74854000D01*
X164116724Y-74808116D01*
X163899431Y-74718110D01*
X163899430Y-74718110D01*
X163899429Y-74718109D01*
X163703870Y-74587440D01*
X163537560Y-74421130D01*
X163406891Y-74225571D01*
X163406890Y-74225569D01*
X163316884Y-74008276D01*
X163271000Y-73777600D01*
X163271000Y-73542400D01*
X163316884Y-73311724D01*
X163406890Y-73094431D01*
X163537560Y-72898870D01*
X163703870Y-72732560D01*
X163851691Y-72633789D01*
X163899429Y-72601891D01*
X163899431Y-72601890D01*
X164116724Y-72511884D01*
X164347400Y-72466000D01*
X164582600Y-72466000D01*
X164813276Y-72511884D01*
X164813276Y-72511884D01*
G37*
G36*
X126713276Y-72511884D02*
G01*
X126930569Y-72601890D01*
X126930571Y-72601891D01*
X126978309Y-72633789D01*
X127126130Y-72732560D01*
X127292440Y-72898870D01*
X127423110Y-73094431D01*
X127513116Y-73311724D01*
X127559000Y-73542400D01*
X127559000Y-73777600D01*
X127513116Y-74008276D01*
X127423110Y-74225569D01*
X127423109Y-74225571D01*
X127292440Y-74421130D01*
X127126130Y-74587440D01*
X126930571Y-74718109D01*
X126930570Y-74718110D01*
X126930569Y-74718110D01*
X126713276Y-74808116D01*
X126482600Y-74854000D01*
X126247400Y-74854000D01*
X126016724Y-74808116D01*
X125799431Y-74718110D01*
X125799430Y-74718110D01*
X125799429Y-74718109D01*
X125603870Y-74587440D01*
X125437560Y-74421130D01*
X125306891Y-74225571D01*
X125306890Y-74225569D01*
X125216884Y-74008276D01*
X125171000Y-73777600D01*
X125171000Y-73542400D01*
X125216884Y-73311724D01*
X125306890Y-73094431D01*
X125437560Y-72898870D01*
X125603870Y-72732560D01*
X125751691Y-72633789D01*
X125799429Y-72601891D01*
X125799431Y-72601890D01*
X126016724Y-72511884D01*
X126247400Y-72466000D01*
X126482600Y-72466000D01*
X126713276Y-72511884D01*
X126713276Y-72511884D01*
G37*
G36*
X107663276Y-72511884D02*
G01*
X107880569Y-72601890D01*
X107880571Y-72601891D01*
X107928309Y-72633789D01*
X108076130Y-72732560D01*
X108242440Y-72898870D01*
X108373110Y-73094431D01*
X108463116Y-73311724D01*
X108509000Y-73542400D01*
X108509000Y-73777600D01*
X108463116Y-74008276D01*
X108373110Y-74225569D01*
X108373109Y-74225571D01*
X108242440Y-74421130D01*
X108076130Y-74587440D01*
X107880571Y-74718109D01*
X107880570Y-74718110D01*
X107880569Y-74718110D01*
X107663276Y-74808116D01*
X107432600Y-74854000D01*
X107197400Y-74854000D01*
X106966724Y-74808116D01*
X106749431Y-74718110D01*
X106749430Y-74718110D01*
X106749429Y-74718109D01*
X106553870Y-74587440D01*
X106387560Y-74421130D01*
X106256891Y-74225571D01*
X106256890Y-74225569D01*
X106166884Y-74008276D01*
X106121000Y-73777600D01*
X106121000Y-73542400D01*
X106166884Y-73311724D01*
X106256890Y-73094431D01*
X106387560Y-72898870D01*
X106553870Y-72732560D01*
X106701691Y-72633789D01*
X106749429Y-72601891D01*
X106749431Y-72601890D01*
X106966724Y-72511884D01*
X107197400Y-72466000D01*
X107432600Y-72466000D01*
X107663276Y-72511884D01*
X107663276Y-72511884D01*
G37*
G36*
X88613276Y-72511884D02*
G01*
X88830569Y-72601890D01*
X88830571Y-72601891D01*
X88878309Y-72633789D01*
X89026130Y-72732560D01*
X89192440Y-72898870D01*
X89323110Y-73094431D01*
X89413116Y-73311724D01*
X89459000Y-73542400D01*
X89459000Y-73777600D01*
X89413116Y-74008276D01*
X89323110Y-74225569D01*
X89323109Y-74225571D01*
X89192440Y-74421130D01*
X89026130Y-74587440D01*
X88830571Y-74718109D01*
X88830570Y-74718110D01*
X88830569Y-74718110D01*
X88613276Y-74808116D01*
X88382600Y-74854000D01*
X88147400Y-74854000D01*
X87916724Y-74808116D01*
X87699431Y-74718110D01*
X87699430Y-74718110D01*
X87699429Y-74718109D01*
X87503870Y-74587440D01*
X87337560Y-74421130D01*
X87206891Y-74225571D01*
X87206890Y-74225569D01*
X87116884Y-74008276D01*
X87071000Y-73777600D01*
X87071000Y-73542400D01*
X87116884Y-73311724D01*
X87206890Y-73094431D01*
X87337560Y-72898870D01*
X87503870Y-72732560D01*
X87651691Y-72633789D01*
X87699429Y-72601891D01*
X87699431Y-72601890D01*
X87916724Y-72511884D01*
X88147400Y-72466000D01*
X88382600Y-72466000D01*
X88613276Y-72511884D01*
X88613276Y-72511884D01*
G37*
G36*
X69563276Y-72511884D02*
G01*
X69780569Y-72601890D01*
X69780571Y-72601891D01*
X69828309Y-72633789D01*
X69976130Y-72732560D01*
X70142440Y-72898870D01*
X70273110Y-73094431D01*
X70363116Y-73311724D01*
X70409000Y-73542400D01*
X70409000Y-73777600D01*
X70363116Y-74008276D01*
X70273110Y-74225569D01*
X70273109Y-74225571D01*
X70142440Y-74421130D01*
X69976130Y-74587440D01*
X69780571Y-74718109D01*
X69780570Y-74718110D01*
X69780569Y-74718110D01*
X69563276Y-74808116D01*
X69332600Y-74854000D01*
X69097400Y-74854000D01*
X68866724Y-74808116D01*
X68649431Y-74718110D01*
X68649430Y-74718110D01*
X68649429Y-74718109D01*
X68453870Y-74587440D01*
X68287560Y-74421130D01*
X68156891Y-74225571D01*
X68156890Y-74225569D01*
X68066884Y-74008276D01*
X68021000Y-73777600D01*
X68021000Y-73542400D01*
X68066884Y-73311724D01*
X68156890Y-73094431D01*
X68287560Y-72898870D01*
X68453870Y-72732560D01*
X68601691Y-72633789D01*
X68649429Y-72601891D01*
X68649431Y-72601890D01*
X68866724Y-72511884D01*
X69097400Y-72466000D01*
X69332600Y-72466000D01*
X69563276Y-72511884D01*
X69563276Y-72511884D01*
G37*
G36*
X31463276Y-72511884D02*
G01*
X31680569Y-72601890D01*
X31680571Y-72601891D01*
X31728309Y-72633789D01*
X31876130Y-72732560D01*
X32042440Y-72898870D01*
X32173110Y-73094431D01*
X32263116Y-73311724D01*
X32309000Y-73542400D01*
X32309000Y-73777600D01*
X32263116Y-74008276D01*
X32173110Y-74225569D01*
X32173109Y-74225571D01*
X32042440Y-74421130D01*
X31876130Y-74587440D01*
X31680571Y-74718109D01*
X31680570Y-74718110D01*
X31680569Y-74718110D01*
X31463276Y-74808116D01*
X31232600Y-74854000D01*
X30997400Y-74854000D01*
X30766724Y-74808116D01*
X30549431Y-74718110D01*
X30549430Y-74718110D01*
X30549429Y-74718109D01*
X30353870Y-74587440D01*
X30187560Y-74421130D01*
X30056891Y-74225571D01*
X30056890Y-74225569D01*
X29966884Y-74008276D01*
X29921000Y-73777600D01*
X29921000Y-73542400D01*
X29966884Y-73311724D01*
X30056890Y-73094431D01*
X30187560Y-72898870D01*
X30353870Y-72732560D01*
X30501691Y-72633789D01*
X30549429Y-72601891D01*
X30549431Y-72601890D01*
X30766724Y-72511884D01*
X30997400Y-72466000D01*
X31232600Y-72466000D01*
X31463276Y-72511884D01*
X31463276Y-72511884D01*
G37*
G36*
X50513276Y-72511884D02*
G01*
X50730569Y-72601890D01*
X50730571Y-72601891D01*
X50778309Y-72633789D01*
X50926130Y-72732560D01*
X51092440Y-72898870D01*
X51223110Y-73094431D01*
X51313116Y-73311724D01*
X51359000Y-73542400D01*
X51359000Y-73777600D01*
X51313116Y-74008276D01*
X51223110Y-74225569D01*
X51223109Y-74225571D01*
X51092440Y-74421130D01*
X50926130Y-74587440D01*
X50730571Y-74718109D01*
X50730570Y-74718110D01*
X50730569Y-74718110D01*
X50513276Y-74808116D01*
X50282600Y-74854000D01*
X50047400Y-74854000D01*
X49816724Y-74808116D01*
X49599431Y-74718110D01*
X49599430Y-74718110D01*
X49599429Y-74718109D01*
X49403870Y-74587440D01*
X49237560Y-74421130D01*
X49106891Y-74225571D01*
X49106890Y-74225569D01*
X49016884Y-74008276D01*
X48971000Y-73777600D01*
X48971000Y-73542400D01*
X49016884Y-73311724D01*
X49106890Y-73094431D01*
X49237560Y-72898870D01*
X49403870Y-72732560D01*
X49551691Y-72633789D01*
X49599429Y-72601891D01*
X49599431Y-72601890D01*
X49816724Y-72511884D01*
X50047400Y-72466000D01*
X50282600Y-72466000D01*
X50513276Y-72511884D01*
X50513276Y-72511884D01*
G37*
G36*
X143179238Y-67557471D02*
G01*
X143179244Y-67557476D01*
X144382727Y-68760959D01*
X144382732Y-68760965D01*
X144876294Y-69254527D01*
X144876300Y-69254532D01*
X145514098Y-69892330D01*
X145514103Y-69892336D01*
X146007665Y-70385898D01*
X146007671Y-70385903D01*
X146645469Y-71023701D01*
X146645474Y-71023707D01*
X147139036Y-71517269D01*
X147139042Y-71517274D01*
X148342525Y-72720757D01*
X148342530Y-72720763D01*
X148819827Y-73198060D01*
X147687042Y-74330845D01*
X147137627Y-73781430D01*
X147137622Y-73781424D01*
X146078375Y-72722177D01*
X146078369Y-72722172D01*
X145440571Y-72084374D01*
X145440566Y-72084368D01*
X144947004Y-71590806D01*
X144946998Y-71590801D01*
X144309200Y-70953003D01*
X144309195Y-70952997D01*
X143815633Y-70459435D01*
X143815627Y-70459430D01*
X143177829Y-69821632D01*
X143177824Y-69821626D01*
X142118577Y-68762379D01*
X142118571Y-68762374D01*
X141569155Y-68212958D01*
X142701940Y-67080173D01*
X143179238Y-67557471D01*
X143179238Y-67557471D01*
G37*
G36*
X156880845Y-68212958D02*
G01*
X156331424Y-68762379D01*
X155765738Y-69328064D01*
X155272177Y-69821626D01*
X152371626Y-72722177D01*
X151805940Y-73287862D01*
X151312379Y-73781424D01*
X150762958Y-74330845D01*
X149630173Y-73198060D01*
X150091206Y-72737027D01*
X150107471Y-72720763D01*
X150107480Y-72720752D01*
X151310954Y-71517278D01*
X151310965Y-71517269D01*
X151327230Y-71501005D01*
X151327229Y-71501004D01*
X151788262Y-71039971D01*
X151788263Y-71039972D01*
X151804527Y-71023707D01*
X151804536Y-71023696D01*
X152442325Y-70385907D01*
X152442336Y-70385898D01*
X152458601Y-70369634D01*
X152458600Y-70369633D01*
X152919633Y-69908600D01*
X152919634Y-69908601D01*
X152935898Y-69892336D01*
X152935907Y-69892325D01*
X153573696Y-69254536D01*
X153573707Y-69254527D01*
X153589972Y-69238263D01*
X153589971Y-69238262D01*
X154051004Y-68777229D01*
X154051005Y-68777230D01*
X154067269Y-68760965D01*
X154067278Y-68760954D01*
X155270752Y-67557480D01*
X155270763Y-67557471D01*
X155287027Y-67541206D01*
X155748060Y-67080173D01*
X156880845Y-68212958D01*
X156880845Y-68212958D01*
G37*
G36*
X266413276Y-69971884D02*
G01*
X266630569Y-70061890D01*
X266630571Y-70061891D01*
X266826130Y-70192560D01*
X266992440Y-70358870D01*
X267123110Y-70554431D01*
X267213116Y-70771724D01*
X267259000Y-71002400D01*
X267259000Y-71237600D01*
X267213116Y-71468276D01*
X267162364Y-71590801D01*
X267123109Y-71685571D01*
X266992440Y-71881130D01*
X266826130Y-72047440D01*
X266630571Y-72178109D01*
X266630570Y-72178110D01*
X266630569Y-72178110D01*
X266413276Y-72268116D01*
X266182600Y-72314000D01*
X265947400Y-72314000D01*
X265716724Y-72268116D01*
X265499431Y-72178110D01*
X265499430Y-72178110D01*
X265499429Y-72178109D01*
X265303870Y-72047440D01*
X265137560Y-71881130D01*
X265006891Y-71685571D01*
X264967636Y-71590801D01*
X264916884Y-71468276D01*
X264871000Y-71237600D01*
X264871000Y-71002400D01*
X264916884Y-70771724D01*
X265006890Y-70554431D01*
X265137560Y-70358870D01*
X265303870Y-70192560D01*
X265499429Y-70061891D01*
X265499431Y-70061890D01*
X265716724Y-69971884D01*
X265947400Y-69926000D01*
X266182600Y-69926000D01*
X266413276Y-69971884D01*
X266413276Y-69971884D01*
G37*
G36*
X56863276Y-69971884D02*
G01*
X57080569Y-70061890D01*
X57080571Y-70061891D01*
X57276130Y-70192560D01*
X57442440Y-70358870D01*
X57573110Y-70554431D01*
X57663116Y-70771724D01*
X57709000Y-71002400D01*
X57709000Y-71237600D01*
X57663116Y-71468276D01*
X57612364Y-71590801D01*
X57573109Y-71685571D01*
X57442440Y-71881130D01*
X57276130Y-72047440D01*
X57080571Y-72178109D01*
X57080570Y-72178110D01*
X57080569Y-72178110D01*
X56863276Y-72268116D01*
X56632600Y-72314000D01*
X56397400Y-72314000D01*
X56166724Y-72268116D01*
X55949431Y-72178110D01*
X55949430Y-72178110D01*
X55949429Y-72178109D01*
X55753870Y-72047440D01*
X55587560Y-71881130D01*
X55456891Y-71685571D01*
X55417636Y-71590801D01*
X55366884Y-71468276D01*
X55321000Y-71237600D01*
X55321000Y-71002400D01*
X55366884Y-70771724D01*
X55456890Y-70554431D01*
X55587560Y-70358870D01*
X55753870Y-70192560D01*
X55949429Y-70061891D01*
X55949431Y-70061890D01*
X56166724Y-69971884D01*
X56397400Y-69926000D01*
X56632600Y-69926000D01*
X56863276Y-69971884D01*
X56863276Y-69971884D01*
G37*
G36*
X37813276Y-69971884D02*
G01*
X38030569Y-70061890D01*
X38030571Y-70061891D01*
X38226130Y-70192560D01*
X38392440Y-70358870D01*
X38523110Y-70554431D01*
X38613116Y-70771724D01*
X38659000Y-71002400D01*
X38659000Y-71237600D01*
X38613116Y-71468276D01*
X38562364Y-71590801D01*
X38523109Y-71685571D01*
X38392440Y-71881130D01*
X38226130Y-72047440D01*
X38030571Y-72178109D01*
X38030570Y-72178110D01*
X38030569Y-72178110D01*
X37813276Y-72268116D01*
X37582600Y-72314000D01*
X37347400Y-72314000D01*
X37116724Y-72268116D01*
X36899431Y-72178110D01*
X36899430Y-72178110D01*
X36899429Y-72178109D01*
X36703870Y-72047440D01*
X36537560Y-71881130D01*
X36406891Y-71685571D01*
X36367636Y-71590801D01*
X36316884Y-71468276D01*
X36271000Y-71237600D01*
X36271000Y-71002400D01*
X36316884Y-70771724D01*
X36406890Y-70554431D01*
X36537560Y-70358870D01*
X36703870Y-70192560D01*
X36899429Y-70061891D01*
X36899431Y-70061890D01*
X37116724Y-69971884D01*
X37347400Y-69926000D01*
X37582600Y-69926000D01*
X37813276Y-69971884D01*
X37813276Y-69971884D01*
G37*
G36*
X209263276Y-69971884D02*
G01*
X209480569Y-70061890D01*
X209480571Y-70061891D01*
X209676130Y-70192560D01*
X209842440Y-70358870D01*
X209973110Y-70554431D01*
X210063116Y-70771724D01*
X210109000Y-71002400D01*
X210109000Y-71237600D01*
X210063116Y-71468276D01*
X210012364Y-71590801D01*
X209973109Y-71685571D01*
X209842440Y-71881130D01*
X209676130Y-72047440D01*
X209480571Y-72178109D01*
X209480570Y-72178110D01*
X209480569Y-72178110D01*
X209263276Y-72268116D01*
X209032600Y-72314000D01*
X208797400Y-72314000D01*
X208566724Y-72268116D01*
X208349431Y-72178110D01*
X208349430Y-72178110D01*
X208349429Y-72178109D01*
X208153870Y-72047440D01*
X207987560Y-71881130D01*
X207856891Y-71685571D01*
X207817636Y-71590801D01*
X207766884Y-71468276D01*
X207721000Y-71237600D01*
X207721000Y-71002400D01*
X207766884Y-70771724D01*
X207856890Y-70554431D01*
X207987560Y-70358870D01*
X208153870Y-70192560D01*
X208349429Y-70061891D01*
X208349431Y-70061890D01*
X208566724Y-69971884D01*
X208797400Y-69926000D01*
X209032600Y-69926000D01*
X209263276Y-69971884D01*
X209263276Y-69971884D01*
G37*
G36*
X247363276Y-69971884D02*
G01*
X247580569Y-70061890D01*
X247580571Y-70061891D01*
X247776130Y-70192560D01*
X247942440Y-70358870D01*
X248073110Y-70554431D01*
X248163116Y-70771724D01*
X248209000Y-71002400D01*
X248209000Y-71237600D01*
X248163116Y-71468276D01*
X248112364Y-71590801D01*
X248073109Y-71685571D01*
X247942440Y-71881130D01*
X247776130Y-72047440D01*
X247580571Y-72178109D01*
X247580570Y-72178110D01*
X247580569Y-72178110D01*
X247363276Y-72268116D01*
X247132600Y-72314000D01*
X246897400Y-72314000D01*
X246666724Y-72268116D01*
X246449431Y-72178110D01*
X246449430Y-72178110D01*
X246449429Y-72178109D01*
X246253870Y-72047440D01*
X246087560Y-71881130D01*
X245956891Y-71685571D01*
X245917636Y-71590801D01*
X245866884Y-71468276D01*
X245821000Y-71237600D01*
X245821000Y-71002400D01*
X245866884Y-70771724D01*
X245956890Y-70554431D01*
X246087560Y-70358870D01*
X246253870Y-70192560D01*
X246449429Y-70061891D01*
X246449431Y-70061890D01*
X246666724Y-69971884D01*
X246897400Y-69926000D01*
X247132600Y-69926000D01*
X247363276Y-69971884D01*
X247363276Y-69971884D01*
G37*
G36*
X94963276Y-69971884D02*
G01*
X95180569Y-70061890D01*
X95180571Y-70061891D01*
X95376130Y-70192560D01*
X95542440Y-70358870D01*
X95673110Y-70554431D01*
X95763116Y-70771724D01*
X95809000Y-71002400D01*
X95809000Y-71237600D01*
X95763116Y-71468276D01*
X95712364Y-71590801D01*
X95673109Y-71685571D01*
X95542440Y-71881130D01*
X95376130Y-72047440D01*
X95180571Y-72178109D01*
X95180570Y-72178110D01*
X95180569Y-72178110D01*
X94963276Y-72268116D01*
X94732600Y-72314000D01*
X94497400Y-72314000D01*
X94266724Y-72268116D01*
X94049431Y-72178110D01*
X94049430Y-72178110D01*
X94049429Y-72178109D01*
X93853870Y-72047440D01*
X93687560Y-71881130D01*
X93556891Y-71685571D01*
X93517636Y-71590801D01*
X93466884Y-71468276D01*
X93421000Y-71237600D01*
X93421000Y-71002400D01*
X93466884Y-70771724D01*
X93556890Y-70554431D01*
X93687560Y-70358870D01*
X93853870Y-70192560D01*
X94049429Y-70061891D01*
X94049431Y-70061890D01*
X94266724Y-69971884D01*
X94497400Y-69926000D01*
X94732600Y-69926000D01*
X94963276Y-69971884D01*
X94963276Y-69971884D01*
G37*
G36*
X190213276Y-69971884D02*
G01*
X190430569Y-70061890D01*
X190430571Y-70061891D01*
X190626130Y-70192560D01*
X190792440Y-70358870D01*
X190923110Y-70554431D01*
X191013116Y-70771724D01*
X191059000Y-71002400D01*
X191059000Y-71237600D01*
X191013116Y-71468276D01*
X190962364Y-71590801D01*
X190923109Y-71685571D01*
X190792440Y-71881130D01*
X190626130Y-72047440D01*
X190430571Y-72178109D01*
X190430570Y-72178110D01*
X190430569Y-72178110D01*
X190213276Y-72268116D01*
X189982600Y-72314000D01*
X189747400Y-72314000D01*
X189516724Y-72268116D01*
X189299431Y-72178110D01*
X189299430Y-72178110D01*
X189299429Y-72178109D01*
X189103870Y-72047440D01*
X188937560Y-71881130D01*
X188806891Y-71685571D01*
X188767636Y-71590801D01*
X188716884Y-71468276D01*
X188671000Y-71237600D01*
X188671000Y-71002400D01*
X188716884Y-70771724D01*
X188806890Y-70554431D01*
X188937560Y-70358870D01*
X189103870Y-70192560D01*
X189299429Y-70061891D01*
X189299431Y-70061890D01*
X189516724Y-69971884D01*
X189747400Y-69926000D01*
X189982600Y-69926000D01*
X190213276Y-69971884D01*
X190213276Y-69971884D01*
G37*
G36*
X75913276Y-69971884D02*
G01*
X76130569Y-70061890D01*
X76130571Y-70061891D01*
X76326130Y-70192560D01*
X76492440Y-70358870D01*
X76623110Y-70554431D01*
X76713116Y-70771724D01*
X76759000Y-71002400D01*
X76759000Y-71237600D01*
X76713116Y-71468276D01*
X76662364Y-71590801D01*
X76623109Y-71685571D01*
X76492440Y-71881130D01*
X76326130Y-72047440D01*
X76130571Y-72178109D01*
X76130570Y-72178110D01*
X76130569Y-72178110D01*
X75913276Y-72268116D01*
X75682600Y-72314000D01*
X75447400Y-72314000D01*
X75216724Y-72268116D01*
X74999431Y-72178110D01*
X74999430Y-72178110D01*
X74999429Y-72178109D01*
X74803870Y-72047440D01*
X74637560Y-71881130D01*
X74506891Y-71685571D01*
X74467636Y-71590801D01*
X74416884Y-71468276D01*
X74371000Y-71237600D01*
X74371000Y-71002400D01*
X74416884Y-70771724D01*
X74506890Y-70554431D01*
X74637560Y-70358870D01*
X74803870Y-70192560D01*
X74999429Y-70061891D01*
X74999431Y-70061890D01*
X75216724Y-69971884D01*
X75447400Y-69926000D01*
X75682600Y-69926000D01*
X75913276Y-69971884D01*
X75913276Y-69971884D01*
G37*
G36*
X133063276Y-69971884D02*
G01*
X133280569Y-70061890D01*
X133280571Y-70061891D01*
X133476130Y-70192560D01*
X133642440Y-70358870D01*
X133773110Y-70554431D01*
X133863116Y-70771724D01*
X133909000Y-71002400D01*
X133909000Y-71237600D01*
X133863116Y-71468276D01*
X133812364Y-71590801D01*
X133773109Y-71685571D01*
X133642440Y-71881130D01*
X133476130Y-72047440D01*
X133280571Y-72178109D01*
X133280570Y-72178110D01*
X133280569Y-72178110D01*
X133063276Y-72268116D01*
X132832600Y-72314000D01*
X132597400Y-72314000D01*
X132366724Y-72268116D01*
X132149431Y-72178110D01*
X132149430Y-72178110D01*
X132149429Y-72178109D01*
X131953870Y-72047440D01*
X131787560Y-71881130D01*
X131656891Y-71685571D01*
X131617636Y-71590801D01*
X131566884Y-71468276D01*
X131521000Y-71237600D01*
X131521000Y-71002400D01*
X131566884Y-70771724D01*
X131656890Y-70554431D01*
X131787560Y-70358870D01*
X131953870Y-70192560D01*
X132149429Y-70061891D01*
X132149431Y-70061890D01*
X132366724Y-69971884D01*
X132597400Y-69926000D01*
X132832600Y-69926000D01*
X133063276Y-69971884D01*
X133063276Y-69971884D01*
G37*
G36*
X228313276Y-69971884D02*
G01*
X228530569Y-70061890D01*
X228530571Y-70061891D01*
X228726130Y-70192560D01*
X228892440Y-70358870D01*
X229023110Y-70554431D01*
X229113116Y-70771724D01*
X229159000Y-71002400D01*
X229159000Y-71237600D01*
X229113116Y-71468276D01*
X229062364Y-71590801D01*
X229023109Y-71685571D01*
X228892440Y-71881130D01*
X228726130Y-72047440D01*
X228530571Y-72178109D01*
X228530570Y-72178110D01*
X228530569Y-72178110D01*
X228313276Y-72268116D01*
X228082600Y-72314000D01*
X227847400Y-72314000D01*
X227616724Y-72268116D01*
X227399431Y-72178110D01*
X227399430Y-72178110D01*
X227399429Y-72178109D01*
X227203870Y-72047440D01*
X227037560Y-71881130D01*
X226906891Y-71685571D01*
X226867636Y-71590801D01*
X226816884Y-71468276D01*
X226771000Y-71237600D01*
X226771000Y-71002400D01*
X226816884Y-70771724D01*
X226906890Y-70554431D01*
X227037560Y-70358870D01*
X227203870Y-70192560D01*
X227399429Y-70061891D01*
X227399431Y-70061890D01*
X227616724Y-69971884D01*
X227847400Y-69926000D01*
X228082600Y-69926000D01*
X228313276Y-69971884D01*
X228313276Y-69971884D01*
G37*
G36*
X171163276Y-69971884D02*
G01*
X171380569Y-70061890D01*
X171380571Y-70061891D01*
X171576130Y-70192560D01*
X171742440Y-70358870D01*
X171873110Y-70554431D01*
X171963116Y-70771724D01*
X172009000Y-71002400D01*
X172009000Y-71237600D01*
X171963116Y-71468276D01*
X171912364Y-71590801D01*
X171873109Y-71685571D01*
X171742440Y-71881130D01*
X171576130Y-72047440D01*
X171380571Y-72178109D01*
X171380570Y-72178110D01*
X171380569Y-72178110D01*
X171163276Y-72268116D01*
X170932600Y-72314000D01*
X170697400Y-72314000D01*
X170466724Y-72268116D01*
X170249431Y-72178110D01*
X170249430Y-72178110D01*
X170249429Y-72178109D01*
X170053870Y-72047440D01*
X169887560Y-71881130D01*
X169756891Y-71685571D01*
X169717636Y-71590801D01*
X169666884Y-71468276D01*
X169621000Y-71237600D01*
X169621000Y-71002400D01*
X169666884Y-70771724D01*
X169756890Y-70554431D01*
X169887560Y-70358870D01*
X170053870Y-70192560D01*
X170249429Y-70061891D01*
X170249431Y-70061890D01*
X170466724Y-69971884D01*
X170697400Y-69926000D01*
X170932600Y-69926000D01*
X171163276Y-69971884D01*
X171163276Y-69971884D01*
G37*
G36*
X114013276Y-69971884D02*
G01*
X114230569Y-70061890D01*
X114230571Y-70061891D01*
X114426130Y-70192560D01*
X114592440Y-70358870D01*
X114723110Y-70554431D01*
X114813116Y-70771724D01*
X114859000Y-71002400D01*
X114859000Y-71237600D01*
X114813116Y-71468276D01*
X114762364Y-71590801D01*
X114723109Y-71685571D01*
X114592440Y-71881130D01*
X114426130Y-72047440D01*
X114230571Y-72178109D01*
X114230570Y-72178110D01*
X114230569Y-72178110D01*
X114013276Y-72268116D01*
X113782600Y-72314000D01*
X113547400Y-72314000D01*
X113316724Y-72268116D01*
X113099431Y-72178110D01*
X113099430Y-72178110D01*
X113099429Y-72178109D01*
X112903870Y-72047440D01*
X112737560Y-71881130D01*
X112606891Y-71685571D01*
X112567636Y-71590801D01*
X112516884Y-71468276D01*
X112471000Y-71237600D01*
X112471000Y-71002400D01*
X112516884Y-70771724D01*
X112606890Y-70554431D01*
X112737560Y-70358870D01*
X112903870Y-70192560D01*
X113099429Y-70061891D01*
X113099431Y-70061890D01*
X113316724Y-69971884D01*
X113547400Y-69926000D01*
X113782600Y-69926000D01*
X114013276Y-69971884D01*
X114013276Y-69971884D01*
G37*
G36*
X148819827Y-60151940D02*
G01*
X148342530Y-60629238D01*
X143179238Y-65792530D01*
X142701940Y-66269827D01*
X141569155Y-65137042D01*
X142118566Y-64587631D01*
X142118577Y-64587622D01*
X142134841Y-64571357D01*
X143161559Y-63544639D01*
X143177824Y-63528375D01*
X143177833Y-63528364D01*
X143815622Y-62890575D01*
X143815633Y-62890566D01*
X143831898Y-62874302D01*
X143831897Y-62874301D01*
X144292930Y-62413268D01*
X144292931Y-62413269D01*
X144309195Y-62397004D01*
X144309204Y-62396993D01*
X144946993Y-61759204D01*
X144947004Y-61759195D01*
X144963269Y-61742931D01*
X144963268Y-61742930D01*
X145424301Y-61281897D01*
X145424302Y-61281898D01*
X145440566Y-61265633D01*
X145440575Y-61265622D01*
X146078364Y-60627833D01*
X146078375Y-60627824D01*
X146094639Y-60611559D01*
X147121357Y-59584841D01*
X147137622Y-59568577D01*
X147137631Y-59568566D01*
X147687042Y-59019155D01*
X148819827Y-60151940D01*
X148819827Y-60151940D01*
G37*
G36*
X151312374Y-59568571D02*
G01*
X151312379Y-59568577D01*
X152371626Y-60627824D01*
X152371632Y-60627829D01*
X153009430Y-61265627D01*
X153009435Y-61265633D01*
X153502997Y-61759195D01*
X153503003Y-61759200D01*
X154140801Y-62396998D01*
X154140806Y-62397004D01*
X154634368Y-62890566D01*
X154634374Y-62890571D01*
X155272172Y-63528369D01*
X155272177Y-63528375D01*
X156331424Y-64587622D01*
X156331430Y-64587627D01*
X156880845Y-65137042D01*
X155748060Y-66269827D01*
X155270763Y-65792530D01*
X155270757Y-65792525D01*
X154067274Y-64589042D01*
X154067269Y-64589036D01*
X153573707Y-64095474D01*
X153573701Y-64095469D01*
X152935903Y-63457671D01*
X152935898Y-63457665D01*
X152442336Y-62964103D01*
X152442330Y-62964098D01*
X151804532Y-62326300D01*
X151804527Y-62326294D01*
X151310965Y-61832732D01*
X151310959Y-61832727D01*
X150107476Y-60629244D01*
X150107471Y-60629238D01*
X149630173Y-60151940D01*
X150762958Y-59019155D01*
X151312374Y-59568571D01*
X151312374Y-59568571D01*
G37*
G36*
X126713276Y-53461884D02*
G01*
X126921325Y-53548061D01*
X126930571Y-53551891D01*
X127126130Y-53682560D01*
X127292440Y-53848870D01*
X127423110Y-54044431D01*
X127513116Y-54261724D01*
X127559000Y-54492400D01*
X127559000Y-54727600D01*
X127513116Y-54958276D01*
X127423110Y-55175569D01*
X127423109Y-55175571D01*
X127292440Y-55371130D01*
X127126130Y-55537440D01*
X126930571Y-55668109D01*
X126930570Y-55668110D01*
X126930569Y-55668110D01*
X126713276Y-55758116D01*
X126482600Y-55804000D01*
X126247400Y-55804000D01*
X126016724Y-55758116D01*
X125799431Y-55668110D01*
X125799430Y-55668110D01*
X125799429Y-55668109D01*
X125603870Y-55537440D01*
X125437560Y-55371130D01*
X125306891Y-55175571D01*
X125306890Y-55175569D01*
X125216884Y-54958276D01*
X125171000Y-54727600D01*
X125171000Y-54492400D01*
X125216884Y-54261724D01*
X125306890Y-54044431D01*
X125437560Y-53848870D01*
X125603870Y-53682560D01*
X125799429Y-53551891D01*
X125808675Y-53548061D01*
X126016724Y-53461884D01*
X126247400Y-53416000D01*
X126482600Y-53416000D01*
X126713276Y-53461884D01*
X126713276Y-53461884D01*
G37*
G36*
X69563276Y-53461884D02*
G01*
X69771325Y-53548061D01*
X69780571Y-53551891D01*
X69976130Y-53682560D01*
X70142440Y-53848870D01*
X70273110Y-54044431D01*
X70363116Y-54261724D01*
X70409000Y-54492400D01*
X70409000Y-54727600D01*
X70363116Y-54958276D01*
X70273110Y-55175569D01*
X70273109Y-55175571D01*
X70142440Y-55371130D01*
X69976130Y-55537440D01*
X69780571Y-55668109D01*
X69780570Y-55668110D01*
X69780569Y-55668110D01*
X69563276Y-55758116D01*
X69332600Y-55804000D01*
X69097400Y-55804000D01*
X68866724Y-55758116D01*
X68649431Y-55668110D01*
X68649430Y-55668110D01*
X68649429Y-55668109D01*
X68453870Y-55537440D01*
X68287560Y-55371130D01*
X68156891Y-55175571D01*
X68156890Y-55175569D01*
X68066884Y-54958276D01*
X68021000Y-54727600D01*
X68021000Y-54492400D01*
X68066884Y-54261724D01*
X68156890Y-54044431D01*
X68287560Y-53848870D01*
X68453870Y-53682560D01*
X68649429Y-53551891D01*
X68658675Y-53548061D01*
X68866724Y-53461884D01*
X69097400Y-53416000D01*
X69332600Y-53416000D01*
X69563276Y-53461884D01*
X69563276Y-53461884D01*
G37*
G36*
X50513276Y-53461884D02*
G01*
X50721325Y-53548061D01*
X50730571Y-53551891D01*
X50926130Y-53682560D01*
X51092440Y-53848870D01*
X51223110Y-54044431D01*
X51313116Y-54261724D01*
X51359000Y-54492400D01*
X51359000Y-54727600D01*
X51313116Y-54958276D01*
X51223110Y-55175569D01*
X51223109Y-55175571D01*
X51092440Y-55371130D01*
X50926130Y-55537440D01*
X50730571Y-55668109D01*
X50730570Y-55668110D01*
X50730569Y-55668110D01*
X50513276Y-55758116D01*
X50282600Y-55804000D01*
X50047400Y-55804000D01*
X49816724Y-55758116D01*
X49599431Y-55668110D01*
X49599430Y-55668110D01*
X49599429Y-55668109D01*
X49403870Y-55537440D01*
X49237560Y-55371130D01*
X49106891Y-55175571D01*
X49106890Y-55175569D01*
X49016884Y-54958276D01*
X48971000Y-54727600D01*
X48971000Y-54492400D01*
X49016884Y-54261724D01*
X49106890Y-54044431D01*
X49237560Y-53848870D01*
X49403870Y-53682560D01*
X49599429Y-53551891D01*
X49608675Y-53548061D01*
X49816724Y-53461884D01*
X50047400Y-53416000D01*
X50282600Y-53416000D01*
X50513276Y-53461884D01*
X50513276Y-53461884D01*
G37*
G36*
X221963276Y-53461884D02*
G01*
X222171325Y-53548061D01*
X222180571Y-53551891D01*
X222376130Y-53682560D01*
X222542440Y-53848870D01*
X222673110Y-54044431D01*
X222763116Y-54261724D01*
X222809000Y-54492400D01*
X222809000Y-54727600D01*
X222763116Y-54958276D01*
X222673110Y-55175569D01*
X222673109Y-55175571D01*
X222542440Y-55371130D01*
X222376130Y-55537440D01*
X222180571Y-55668109D01*
X222180570Y-55668110D01*
X222180569Y-55668110D01*
X221963276Y-55758116D01*
X221732600Y-55804000D01*
X221497400Y-55804000D01*
X221266724Y-55758116D01*
X221049431Y-55668110D01*
X221049430Y-55668110D01*
X221049429Y-55668109D01*
X220853870Y-55537440D01*
X220687560Y-55371130D01*
X220556891Y-55175571D01*
X220556890Y-55175569D01*
X220466884Y-54958276D01*
X220421000Y-54727600D01*
X220421000Y-54492400D01*
X220466884Y-54261724D01*
X220556890Y-54044431D01*
X220687560Y-53848870D01*
X220853870Y-53682560D01*
X221049429Y-53551891D01*
X221058675Y-53548061D01*
X221266724Y-53461884D01*
X221497400Y-53416000D01*
X221732600Y-53416000D01*
X221963276Y-53461884D01*
X221963276Y-53461884D01*
G37*
G36*
X88613276Y-53461884D02*
G01*
X88821325Y-53548061D01*
X88830571Y-53551891D01*
X89026130Y-53682560D01*
X89192440Y-53848870D01*
X89323110Y-54044431D01*
X89413116Y-54261724D01*
X89459000Y-54492400D01*
X89459000Y-54727600D01*
X89413116Y-54958276D01*
X89323110Y-55175569D01*
X89323109Y-55175571D01*
X89192440Y-55371130D01*
X89026130Y-55537440D01*
X88830571Y-55668109D01*
X88830570Y-55668110D01*
X88830569Y-55668110D01*
X88613276Y-55758116D01*
X88382600Y-55804000D01*
X88147400Y-55804000D01*
X87916724Y-55758116D01*
X87699431Y-55668110D01*
X87699430Y-55668110D01*
X87699429Y-55668109D01*
X87503870Y-55537440D01*
X87337560Y-55371130D01*
X87206891Y-55175571D01*
X87206890Y-55175569D01*
X87116884Y-54958276D01*
X87071000Y-54727600D01*
X87071000Y-54492400D01*
X87116884Y-54261724D01*
X87206890Y-54044431D01*
X87337560Y-53848870D01*
X87503870Y-53682560D01*
X87699429Y-53551891D01*
X87708675Y-53548061D01*
X87916724Y-53461884D01*
X88147400Y-53416000D01*
X88382600Y-53416000D01*
X88613276Y-53461884D01*
X88613276Y-53461884D01*
G37*
G36*
X107663276Y-53461884D02*
G01*
X107871325Y-53548061D01*
X107880571Y-53551891D01*
X108076130Y-53682560D01*
X108242440Y-53848870D01*
X108373110Y-54044431D01*
X108463116Y-54261724D01*
X108509000Y-54492400D01*
X108509000Y-54727600D01*
X108463116Y-54958276D01*
X108373110Y-55175569D01*
X108373109Y-55175571D01*
X108242440Y-55371130D01*
X108076130Y-55537440D01*
X107880571Y-55668109D01*
X107880570Y-55668110D01*
X107880569Y-55668110D01*
X107663276Y-55758116D01*
X107432600Y-55804000D01*
X107197400Y-55804000D01*
X106966724Y-55758116D01*
X106749431Y-55668110D01*
X106749430Y-55668110D01*
X106749429Y-55668109D01*
X106553870Y-55537440D01*
X106387560Y-55371130D01*
X106256891Y-55175571D01*
X106256890Y-55175569D01*
X106166884Y-54958276D01*
X106121000Y-54727600D01*
X106121000Y-54492400D01*
X106166884Y-54261724D01*
X106256890Y-54044431D01*
X106387560Y-53848870D01*
X106553870Y-53682560D01*
X106749429Y-53551891D01*
X106758675Y-53548061D01*
X106966724Y-53461884D01*
X107197400Y-53416000D01*
X107432600Y-53416000D01*
X107663276Y-53461884D01*
X107663276Y-53461884D01*
G37*
G36*
X183863276Y-53461884D02*
G01*
X184071325Y-53548061D01*
X184080571Y-53551891D01*
X184276130Y-53682560D01*
X184442440Y-53848870D01*
X184573110Y-54044431D01*
X184663116Y-54261724D01*
X184709000Y-54492400D01*
X184709000Y-54727600D01*
X184663116Y-54958276D01*
X184573110Y-55175569D01*
X184573109Y-55175571D01*
X184442440Y-55371130D01*
X184276130Y-55537440D01*
X184080571Y-55668109D01*
X184080570Y-55668110D01*
X184080569Y-55668110D01*
X183863276Y-55758116D01*
X183632600Y-55804000D01*
X183397400Y-55804000D01*
X183166724Y-55758116D01*
X182949431Y-55668110D01*
X182949430Y-55668110D01*
X182949429Y-55668109D01*
X182753870Y-55537440D01*
X182587560Y-55371130D01*
X182456891Y-55175571D01*
X182456890Y-55175569D01*
X182366884Y-54958276D01*
X182321000Y-54727600D01*
X182321000Y-54492400D01*
X182366884Y-54261724D01*
X182456890Y-54044431D01*
X182587560Y-53848870D01*
X182753870Y-53682560D01*
X182949429Y-53551891D01*
X182958675Y-53548061D01*
X183166724Y-53461884D01*
X183397400Y-53416000D01*
X183632600Y-53416000D01*
X183863276Y-53461884D01*
X183863276Y-53461884D01*
G37*
G36*
X164813276Y-53461884D02*
G01*
X165021325Y-53548061D01*
X165030571Y-53551891D01*
X165226130Y-53682560D01*
X165392440Y-53848870D01*
X165523110Y-54044431D01*
X165613116Y-54261724D01*
X165659000Y-54492400D01*
X165659000Y-54727600D01*
X165613116Y-54958276D01*
X165523110Y-55175569D01*
X165523109Y-55175571D01*
X165392440Y-55371130D01*
X165226130Y-55537440D01*
X165030571Y-55668109D01*
X165030570Y-55668110D01*
X165030569Y-55668110D01*
X164813276Y-55758116D01*
X164582600Y-55804000D01*
X164347400Y-55804000D01*
X164116724Y-55758116D01*
X163899431Y-55668110D01*
X163899430Y-55668110D01*
X163899429Y-55668109D01*
X163703870Y-55537440D01*
X163537560Y-55371130D01*
X163406891Y-55175571D01*
X163406890Y-55175569D01*
X163316884Y-54958276D01*
X163271000Y-54727600D01*
X163271000Y-54492400D01*
X163316884Y-54261724D01*
X163406890Y-54044431D01*
X163537560Y-53848870D01*
X163703870Y-53682560D01*
X163899429Y-53551891D01*
X163908675Y-53548061D01*
X164116724Y-53461884D01*
X164347400Y-53416000D01*
X164582600Y-53416000D01*
X164813276Y-53461884D01*
X164813276Y-53461884D01*
G37*
G36*
X31463276Y-53461884D02*
G01*
X31671325Y-53548061D01*
X31680571Y-53551891D01*
X31876130Y-53682560D01*
X32042440Y-53848870D01*
X32173110Y-54044431D01*
X32263116Y-54261724D01*
X32309000Y-54492400D01*
X32309000Y-54727600D01*
X32263116Y-54958276D01*
X32173110Y-55175569D01*
X32173109Y-55175571D01*
X32042440Y-55371130D01*
X31876130Y-55537440D01*
X31680571Y-55668109D01*
X31680570Y-55668110D01*
X31680569Y-55668110D01*
X31463276Y-55758116D01*
X31232600Y-55804000D01*
X30997400Y-55804000D01*
X30766724Y-55758116D01*
X30549431Y-55668110D01*
X30549430Y-55668110D01*
X30549429Y-55668109D01*
X30353870Y-55537440D01*
X30187560Y-55371130D01*
X30056891Y-55175571D01*
X30056890Y-55175569D01*
X29966884Y-54958276D01*
X29921000Y-54727600D01*
X29921000Y-54492400D01*
X29966884Y-54261724D01*
X30056890Y-54044431D01*
X30187560Y-53848870D01*
X30353870Y-53682560D01*
X30549429Y-53551891D01*
X30558675Y-53548061D01*
X30766724Y-53461884D01*
X30997400Y-53416000D01*
X31232600Y-53416000D01*
X31463276Y-53461884D01*
X31463276Y-53461884D01*
G37*
G36*
X260063276Y-53461884D02*
G01*
X260271325Y-53548061D01*
X260280571Y-53551891D01*
X260476130Y-53682560D01*
X260642440Y-53848870D01*
X260773110Y-54044431D01*
X260863116Y-54261724D01*
X260909000Y-54492400D01*
X260909000Y-54727600D01*
X260863116Y-54958276D01*
X260773110Y-55175569D01*
X260773109Y-55175571D01*
X260642440Y-55371130D01*
X260476130Y-55537440D01*
X260280571Y-55668109D01*
X260280570Y-55668110D01*
X260280569Y-55668110D01*
X260063276Y-55758116D01*
X259832600Y-55804000D01*
X259597400Y-55804000D01*
X259366724Y-55758116D01*
X259149431Y-55668110D01*
X259149430Y-55668110D01*
X259149429Y-55668109D01*
X258953870Y-55537440D01*
X258787560Y-55371130D01*
X258656891Y-55175571D01*
X258656890Y-55175569D01*
X258566884Y-54958276D01*
X258521000Y-54727600D01*
X258521000Y-54492400D01*
X258566884Y-54261724D01*
X258656890Y-54044431D01*
X258787560Y-53848870D01*
X258953870Y-53682560D01*
X259149429Y-53551891D01*
X259158675Y-53548061D01*
X259366724Y-53461884D01*
X259597400Y-53416000D01*
X259832600Y-53416000D01*
X260063276Y-53461884D01*
X260063276Y-53461884D01*
G37*
G36*
X202913276Y-53461884D02*
G01*
X203121325Y-53548061D01*
X203130571Y-53551891D01*
X203326130Y-53682560D01*
X203492440Y-53848870D01*
X203623110Y-54044431D01*
X203713116Y-54261724D01*
X203759000Y-54492400D01*
X203759000Y-54727600D01*
X203713116Y-54958276D01*
X203623110Y-55175569D01*
X203623109Y-55175571D01*
X203492440Y-55371130D01*
X203326130Y-55537440D01*
X203130571Y-55668109D01*
X203130570Y-55668110D01*
X203130569Y-55668110D01*
X202913276Y-55758116D01*
X202682600Y-55804000D01*
X202447400Y-55804000D01*
X202216724Y-55758116D01*
X201999431Y-55668110D01*
X201999430Y-55668110D01*
X201999429Y-55668109D01*
X201803870Y-55537440D01*
X201637560Y-55371130D01*
X201506891Y-55175571D01*
X201506890Y-55175569D01*
X201416884Y-54958276D01*
X201371000Y-54727600D01*
X201371000Y-54492400D01*
X201416884Y-54261724D01*
X201506890Y-54044431D01*
X201637560Y-53848870D01*
X201803870Y-53682560D01*
X201999429Y-53551891D01*
X202008675Y-53548061D01*
X202216724Y-53461884D01*
X202447400Y-53416000D01*
X202682600Y-53416000D01*
X202913276Y-53461884D01*
X202913276Y-53461884D01*
G37*
G36*
X241013276Y-53461884D02*
G01*
X241221325Y-53548061D01*
X241230571Y-53551891D01*
X241426130Y-53682560D01*
X241592440Y-53848870D01*
X241723110Y-54044431D01*
X241813116Y-54261724D01*
X241859000Y-54492400D01*
X241859000Y-54727600D01*
X241813116Y-54958276D01*
X241723110Y-55175569D01*
X241723109Y-55175571D01*
X241592440Y-55371130D01*
X241426130Y-55537440D01*
X241230571Y-55668109D01*
X241230570Y-55668110D01*
X241230569Y-55668110D01*
X241013276Y-55758116D01*
X240782600Y-55804000D01*
X240547400Y-55804000D01*
X240316724Y-55758116D01*
X240099431Y-55668110D01*
X240099430Y-55668110D01*
X240099429Y-55668109D01*
X239903870Y-55537440D01*
X239737560Y-55371130D01*
X239606891Y-55175571D01*
X239606890Y-55175569D01*
X239516884Y-54958276D01*
X239471000Y-54727600D01*
X239471000Y-54492400D01*
X239516884Y-54261724D01*
X239606890Y-54044431D01*
X239737560Y-53848870D01*
X239903870Y-53682560D01*
X240099429Y-53551891D01*
X240108675Y-53548061D01*
X240316724Y-53461884D01*
X240547400Y-53416000D01*
X240782600Y-53416000D01*
X241013276Y-53461884D01*
X241013276Y-53461884D01*
G37*
G36*
X153810562Y-53433181D02*
G01*
X153845481Y-53443774D01*
X153877663Y-53460976D01*
X153905873Y-53484127D01*
X153929024Y-53512337D01*
X153946226Y-53544519D01*
X153956819Y-53579438D01*
X153961000Y-53621895D01*
X153961000Y-54763105D01*
X153956819Y-54805562D01*
X153946226Y-54840481D01*
X153929024Y-54872663D01*
X153905873Y-54900873D01*
X153877663Y-54924024D01*
X153845481Y-54941226D01*
X153810562Y-54951819D01*
X153768105Y-54956000D01*
X152301895Y-54956000D01*
X152259438Y-54951819D01*
X152224519Y-54941226D01*
X152192337Y-54924024D01*
X152164127Y-54900873D01*
X152140976Y-54872663D01*
X152123774Y-54840481D01*
X152113181Y-54805562D01*
X152109000Y-54763105D01*
X152109000Y-53621895D01*
X152113181Y-53579438D01*
X152123774Y-53544519D01*
X152140976Y-53512337D01*
X152164127Y-53484127D01*
X152192337Y-53460976D01*
X152224519Y-53443774D01*
X152259438Y-53433181D01*
X152301895Y-53429000D01*
X153768105Y-53429000D01*
X153810562Y-53433181D01*
X153810562Y-53433181D01*
G37*
G36*
X151270562Y-53433181D02*
G01*
X151305481Y-53443774D01*
X151337663Y-53460976D01*
X151365873Y-53484127D01*
X151389024Y-53512337D01*
X151406226Y-53544519D01*
X151416819Y-53579438D01*
X151421000Y-53621895D01*
X151421000Y-54763105D01*
X151416819Y-54805562D01*
X151406226Y-54840481D01*
X151389024Y-54872663D01*
X151365873Y-54900873D01*
X151337663Y-54924024D01*
X151305481Y-54941226D01*
X151270562Y-54951819D01*
X151228105Y-54956000D01*
X149761895Y-54956000D01*
X149719438Y-54951819D01*
X149684519Y-54941226D01*
X149652337Y-54924024D01*
X149624127Y-54900873D01*
X149600976Y-54872663D01*
X149583774Y-54840481D01*
X149573181Y-54805562D01*
X149569000Y-54763105D01*
X149569000Y-53621895D01*
X149573181Y-53579438D01*
X149583774Y-53544519D01*
X149600976Y-53512337D01*
X149624127Y-53484127D01*
X149652337Y-53460976D01*
X149684519Y-53443774D01*
X149719438Y-53433181D01*
X149761895Y-53429000D01*
X151228105Y-53429000D01*
X151270562Y-53433181D01*
X151270562Y-53433181D01*
G37*
G36*
X146190562Y-53433181D02*
G01*
X146225481Y-53443774D01*
X146257663Y-53460976D01*
X146285873Y-53484127D01*
X146309024Y-53512337D01*
X146326226Y-53544519D01*
X146336819Y-53579438D01*
X146341000Y-53621895D01*
X146341000Y-54763105D01*
X146336819Y-54805562D01*
X146326226Y-54840481D01*
X146309024Y-54872663D01*
X146285873Y-54900873D01*
X146257663Y-54924024D01*
X146225481Y-54941226D01*
X146190562Y-54951819D01*
X146148105Y-54956000D01*
X144681895Y-54956000D01*
X144639438Y-54951819D01*
X144604519Y-54941226D01*
X144572337Y-54924024D01*
X144544127Y-54900873D01*
X144520976Y-54872663D01*
X144503774Y-54840481D01*
X144493181Y-54805562D01*
X144489000Y-54763105D01*
X144489000Y-53621895D01*
X144493181Y-53579438D01*
X144503774Y-53544519D01*
X144520976Y-53512337D01*
X144544127Y-53484127D01*
X144572337Y-53460976D01*
X144604519Y-53443774D01*
X144639438Y-53433181D01*
X144681895Y-53429000D01*
X146148105Y-53429000D01*
X146190562Y-53433181D01*
X146190562Y-53433181D01*
G37*
G36*
X143650562Y-53433181D02*
G01*
X143685481Y-53443774D01*
X143717663Y-53460976D01*
X143745873Y-53484127D01*
X143769024Y-53512337D01*
X143786226Y-53544519D01*
X143796819Y-53579438D01*
X143801000Y-53621895D01*
X143801000Y-54763105D01*
X143796819Y-54805562D01*
X143786226Y-54840481D01*
X143769024Y-54872663D01*
X143745873Y-54900873D01*
X143717663Y-54924024D01*
X143685481Y-54941226D01*
X143650562Y-54951819D01*
X143608105Y-54956000D01*
X142141895Y-54956000D01*
X142099438Y-54951819D01*
X142064519Y-54941226D01*
X142032337Y-54924024D01*
X142004127Y-54900873D01*
X141980976Y-54872663D01*
X141963774Y-54840481D01*
X141953181Y-54805562D01*
X141949000Y-54763105D01*
X141949000Y-53621895D01*
X141953181Y-53579438D01*
X141963774Y-53544519D01*
X141980976Y-53512337D01*
X142004127Y-53484127D01*
X142032337Y-53460976D01*
X142064519Y-53443774D01*
X142099438Y-53433181D01*
X142141895Y-53429000D01*
X143608105Y-53429000D01*
X143650562Y-53433181D01*
X143650562Y-53433181D01*
G37*
G36*
X114013276Y-50921884D02*
G01*
X114230569Y-51011890D01*
X114230571Y-51011891D01*
X114426130Y-51142560D01*
X114592440Y-51308870D01*
X114723110Y-51504431D01*
X114813116Y-51721724D01*
X114859000Y-51952400D01*
X114859000Y-52187600D01*
X114813116Y-52418276D01*
X114723110Y-52635569D01*
X114723109Y-52635571D01*
X114592440Y-52831130D01*
X114426130Y-52997440D01*
X114230571Y-53128109D01*
X114230570Y-53128110D01*
X114230569Y-53128110D01*
X114013276Y-53218116D01*
X113782600Y-53264000D01*
X113547400Y-53264000D01*
X113316724Y-53218116D01*
X113099431Y-53128110D01*
X113099430Y-53128110D01*
X113099429Y-53128109D01*
X112903870Y-52997440D01*
X112737560Y-52831130D01*
X112606891Y-52635571D01*
X112606890Y-52635569D01*
X112516884Y-52418276D01*
X112471000Y-52187600D01*
X112471000Y-51952400D01*
X112516884Y-51721724D01*
X112606890Y-51504431D01*
X112737560Y-51308870D01*
X112903870Y-51142560D01*
X113099429Y-51011891D01*
X113099431Y-51011890D01*
X113316724Y-50921884D01*
X113547400Y-50876000D01*
X113782600Y-50876000D01*
X114013276Y-50921884D01*
X114013276Y-50921884D01*
G37*
G36*
X133063276Y-50921884D02*
G01*
X133280569Y-51011890D01*
X133280571Y-51011891D01*
X133476130Y-51142560D01*
X133642440Y-51308870D01*
X133773110Y-51504431D01*
X133863116Y-51721724D01*
X133909000Y-51952400D01*
X133909000Y-52187600D01*
X133863116Y-52418276D01*
X133773110Y-52635569D01*
X133773109Y-52635571D01*
X133642440Y-52831130D01*
X133476130Y-52997440D01*
X133280571Y-53128109D01*
X133280570Y-53128110D01*
X133280569Y-53128110D01*
X133063276Y-53218116D01*
X132832600Y-53264000D01*
X132597400Y-53264000D01*
X132366724Y-53218116D01*
X132149431Y-53128110D01*
X132149430Y-53128110D01*
X132149429Y-53128109D01*
X131953870Y-52997440D01*
X131787560Y-52831130D01*
X131656891Y-52635571D01*
X131656890Y-52635569D01*
X131566884Y-52418276D01*
X131521000Y-52187600D01*
X131521000Y-51952400D01*
X131566884Y-51721724D01*
X131656890Y-51504431D01*
X131787560Y-51308870D01*
X131953870Y-51142560D01*
X132149429Y-51011891D01*
X132149431Y-51011890D01*
X132366724Y-50921884D01*
X132597400Y-50876000D01*
X132832600Y-50876000D01*
X133063276Y-50921884D01*
X133063276Y-50921884D01*
G37*
G36*
X171163276Y-50921884D02*
G01*
X171380569Y-51011890D01*
X171380571Y-51011891D01*
X171576130Y-51142560D01*
X171742440Y-51308870D01*
X171873110Y-51504431D01*
X171963116Y-51721724D01*
X172009000Y-51952400D01*
X172009000Y-52187600D01*
X171963116Y-52418276D01*
X171873110Y-52635569D01*
X171873109Y-52635571D01*
X171742440Y-52831130D01*
X171576130Y-52997440D01*
X171380571Y-53128109D01*
X171380570Y-53128110D01*
X171380569Y-53128110D01*
X171163276Y-53218116D01*
X170932600Y-53264000D01*
X170697400Y-53264000D01*
X170466724Y-53218116D01*
X170249431Y-53128110D01*
X170249430Y-53128110D01*
X170249429Y-53128109D01*
X170053870Y-52997440D01*
X169887560Y-52831130D01*
X169756891Y-52635571D01*
X169756890Y-52635569D01*
X169666884Y-52418276D01*
X169621000Y-52187600D01*
X169621000Y-51952400D01*
X169666884Y-51721724D01*
X169756890Y-51504431D01*
X169887560Y-51308870D01*
X170053870Y-51142560D01*
X170249429Y-51011891D01*
X170249431Y-51011890D01*
X170466724Y-50921884D01*
X170697400Y-50876000D01*
X170932600Y-50876000D01*
X171163276Y-50921884D01*
X171163276Y-50921884D01*
G37*
G36*
X190213276Y-50921884D02*
G01*
X190430569Y-51011890D01*
X190430571Y-51011891D01*
X190626130Y-51142560D01*
X190792440Y-51308870D01*
X190923110Y-51504431D01*
X191013116Y-51721724D01*
X191059000Y-51952400D01*
X191059000Y-52187600D01*
X191013116Y-52418276D01*
X190923110Y-52635569D01*
X190923109Y-52635571D01*
X190792440Y-52831130D01*
X190626130Y-52997440D01*
X190430571Y-53128109D01*
X190430570Y-53128110D01*
X190430569Y-53128110D01*
X190213276Y-53218116D01*
X189982600Y-53264000D01*
X189747400Y-53264000D01*
X189516724Y-53218116D01*
X189299431Y-53128110D01*
X189299430Y-53128110D01*
X189299429Y-53128109D01*
X189103870Y-52997440D01*
X188937560Y-52831130D01*
X188806891Y-52635571D01*
X188806890Y-52635569D01*
X188716884Y-52418276D01*
X188671000Y-52187600D01*
X188671000Y-51952400D01*
X188716884Y-51721724D01*
X188806890Y-51504431D01*
X188937560Y-51308870D01*
X189103870Y-51142560D01*
X189299429Y-51011891D01*
X189299431Y-51011890D01*
X189516724Y-50921884D01*
X189747400Y-50876000D01*
X189982600Y-50876000D01*
X190213276Y-50921884D01*
X190213276Y-50921884D01*
G37*
G36*
X209263276Y-50921884D02*
G01*
X209480569Y-51011890D01*
X209480571Y-51011891D01*
X209676130Y-51142560D01*
X209842440Y-51308870D01*
X209973110Y-51504431D01*
X210063116Y-51721724D01*
X210109000Y-51952400D01*
X210109000Y-52187600D01*
X210063116Y-52418276D01*
X209973110Y-52635569D01*
X209973109Y-52635571D01*
X209842440Y-52831130D01*
X209676130Y-52997440D01*
X209480571Y-53128109D01*
X209480570Y-53128110D01*
X209480569Y-53128110D01*
X209263276Y-53218116D01*
X209032600Y-53264000D01*
X208797400Y-53264000D01*
X208566724Y-53218116D01*
X208349431Y-53128110D01*
X208349430Y-53128110D01*
X208349429Y-53128109D01*
X208153870Y-52997440D01*
X207987560Y-52831130D01*
X207856891Y-52635571D01*
X207856890Y-52635569D01*
X207766884Y-52418276D01*
X207721000Y-52187600D01*
X207721000Y-51952400D01*
X207766884Y-51721724D01*
X207856890Y-51504431D01*
X207987560Y-51308870D01*
X208153870Y-51142560D01*
X208349429Y-51011891D01*
X208349431Y-51011890D01*
X208566724Y-50921884D01*
X208797400Y-50876000D01*
X209032600Y-50876000D01*
X209263276Y-50921884D01*
X209263276Y-50921884D01*
G37*
G36*
X228313276Y-50921884D02*
G01*
X228530569Y-51011890D01*
X228530571Y-51011891D01*
X228726130Y-51142560D01*
X228892440Y-51308870D01*
X229023110Y-51504431D01*
X229113116Y-51721724D01*
X229159000Y-51952400D01*
X229159000Y-52187600D01*
X229113116Y-52418276D01*
X229023110Y-52635569D01*
X229023109Y-52635571D01*
X228892440Y-52831130D01*
X228726130Y-52997440D01*
X228530571Y-53128109D01*
X228530570Y-53128110D01*
X228530569Y-53128110D01*
X228313276Y-53218116D01*
X228082600Y-53264000D01*
X227847400Y-53264000D01*
X227616724Y-53218116D01*
X227399431Y-53128110D01*
X227399430Y-53128110D01*
X227399429Y-53128109D01*
X227203870Y-52997440D01*
X227037560Y-52831130D01*
X226906891Y-52635571D01*
X226906890Y-52635569D01*
X226816884Y-52418276D01*
X226771000Y-52187600D01*
X226771000Y-51952400D01*
X226816884Y-51721724D01*
X226906890Y-51504431D01*
X227037560Y-51308870D01*
X227203870Y-51142560D01*
X227399429Y-51011891D01*
X227399431Y-51011890D01*
X227616724Y-50921884D01*
X227847400Y-50876000D01*
X228082600Y-50876000D01*
X228313276Y-50921884D01*
X228313276Y-50921884D01*
G37*
G36*
X266413276Y-50921884D02*
G01*
X266630569Y-51011890D01*
X266630571Y-51011891D01*
X266826130Y-51142560D01*
X266992440Y-51308870D01*
X267123110Y-51504431D01*
X267213116Y-51721724D01*
X267259000Y-51952400D01*
X267259000Y-52187600D01*
X267213116Y-52418276D01*
X267123110Y-52635569D01*
X267123109Y-52635571D01*
X266992440Y-52831130D01*
X266826130Y-52997440D01*
X266630571Y-53128109D01*
X266630570Y-53128110D01*
X266630569Y-53128110D01*
X266413276Y-53218116D01*
X266182600Y-53264000D01*
X265947400Y-53264000D01*
X265716724Y-53218116D01*
X265499431Y-53128110D01*
X265499430Y-53128110D01*
X265499429Y-53128109D01*
X265303870Y-52997440D01*
X265137560Y-52831130D01*
X265006891Y-52635571D01*
X265006890Y-52635569D01*
X264916884Y-52418276D01*
X264871000Y-52187600D01*
X264871000Y-51952400D01*
X264916884Y-51721724D01*
X265006890Y-51504431D01*
X265137560Y-51308870D01*
X265303870Y-51142560D01*
X265499429Y-51011891D01*
X265499431Y-51011890D01*
X265716724Y-50921884D01*
X265947400Y-50876000D01*
X266182600Y-50876000D01*
X266413276Y-50921884D01*
X266413276Y-50921884D01*
G37*
G36*
X56863276Y-50921884D02*
G01*
X57080569Y-51011890D01*
X57080571Y-51011891D01*
X57276130Y-51142560D01*
X57442440Y-51308870D01*
X57573110Y-51504431D01*
X57663116Y-51721724D01*
X57709000Y-51952400D01*
X57709000Y-52187600D01*
X57663116Y-52418276D01*
X57573110Y-52635569D01*
X57573109Y-52635571D01*
X57442440Y-52831130D01*
X57276130Y-52997440D01*
X57080571Y-53128109D01*
X57080570Y-53128110D01*
X57080569Y-53128110D01*
X56863276Y-53218116D01*
X56632600Y-53264000D01*
X56397400Y-53264000D01*
X56166724Y-53218116D01*
X55949431Y-53128110D01*
X55949430Y-53128110D01*
X55949429Y-53128109D01*
X55753870Y-52997440D01*
X55587560Y-52831130D01*
X55456891Y-52635571D01*
X55456890Y-52635569D01*
X55366884Y-52418276D01*
X55321000Y-52187600D01*
X55321000Y-51952400D01*
X55366884Y-51721724D01*
X55456890Y-51504431D01*
X55587560Y-51308870D01*
X55753870Y-51142560D01*
X55949429Y-51011891D01*
X55949431Y-51011890D01*
X56166724Y-50921884D01*
X56397400Y-50876000D01*
X56632600Y-50876000D01*
X56863276Y-50921884D01*
X56863276Y-50921884D01*
G37*
G36*
X94963276Y-50921884D02*
G01*
X95180569Y-51011890D01*
X95180571Y-51011891D01*
X95376130Y-51142560D01*
X95542440Y-51308870D01*
X95673110Y-51504431D01*
X95763116Y-51721724D01*
X95809000Y-51952400D01*
X95809000Y-52187600D01*
X95763116Y-52418276D01*
X95673110Y-52635569D01*
X95673109Y-52635571D01*
X95542440Y-52831130D01*
X95376130Y-52997440D01*
X95180571Y-53128109D01*
X95180570Y-53128110D01*
X95180569Y-53128110D01*
X94963276Y-53218116D01*
X94732600Y-53264000D01*
X94497400Y-53264000D01*
X94266724Y-53218116D01*
X94049431Y-53128110D01*
X94049430Y-53128110D01*
X94049429Y-53128109D01*
X93853870Y-52997440D01*
X93687560Y-52831130D01*
X93556891Y-52635571D01*
X93556890Y-52635569D01*
X93466884Y-52418276D01*
X93421000Y-52187600D01*
X93421000Y-51952400D01*
X93466884Y-51721724D01*
X93556890Y-51504431D01*
X93687560Y-51308870D01*
X93853870Y-51142560D01*
X94049429Y-51011891D01*
X94049431Y-51011890D01*
X94266724Y-50921884D01*
X94497400Y-50876000D01*
X94732600Y-50876000D01*
X94963276Y-50921884D01*
X94963276Y-50921884D01*
G37*
G36*
X37813276Y-50921884D02*
G01*
X38030569Y-51011890D01*
X38030571Y-51011891D01*
X38226130Y-51142560D01*
X38392440Y-51308870D01*
X38523110Y-51504431D01*
X38613116Y-51721724D01*
X38659000Y-51952400D01*
X38659000Y-52187600D01*
X38613116Y-52418276D01*
X38523110Y-52635569D01*
X38523109Y-52635571D01*
X38392440Y-52831130D01*
X38226130Y-52997440D01*
X38030571Y-53128109D01*
X38030570Y-53128110D01*
X38030569Y-53128110D01*
X37813276Y-53218116D01*
X37582600Y-53264000D01*
X37347400Y-53264000D01*
X37116724Y-53218116D01*
X36899431Y-53128110D01*
X36899430Y-53128110D01*
X36899429Y-53128109D01*
X36703870Y-52997440D01*
X36537560Y-52831130D01*
X36406891Y-52635571D01*
X36406890Y-52635569D01*
X36316884Y-52418276D01*
X36271000Y-52187600D01*
X36271000Y-51952400D01*
X36316884Y-51721724D01*
X36406890Y-51504431D01*
X36537560Y-51308870D01*
X36703870Y-51142560D01*
X36899429Y-51011891D01*
X36899431Y-51011890D01*
X37116724Y-50921884D01*
X37347400Y-50876000D01*
X37582600Y-50876000D01*
X37813276Y-50921884D01*
X37813276Y-50921884D01*
G37*
G36*
X75913276Y-50921884D02*
G01*
X76130569Y-51011890D01*
X76130571Y-51011891D01*
X76326130Y-51142560D01*
X76492440Y-51308870D01*
X76623110Y-51504431D01*
X76713116Y-51721724D01*
X76759000Y-51952400D01*
X76759000Y-52187600D01*
X76713116Y-52418276D01*
X76623110Y-52635569D01*
X76623109Y-52635571D01*
X76492440Y-52831130D01*
X76326130Y-52997440D01*
X76130571Y-53128109D01*
X76130570Y-53128110D01*
X76130569Y-53128110D01*
X75913276Y-53218116D01*
X75682600Y-53264000D01*
X75447400Y-53264000D01*
X75216724Y-53218116D01*
X74999431Y-53128110D01*
X74999430Y-53128110D01*
X74999429Y-53128109D01*
X74803870Y-52997440D01*
X74637560Y-52831130D01*
X74506891Y-52635571D01*
X74506890Y-52635569D01*
X74416884Y-52418276D01*
X74371000Y-52187600D01*
X74371000Y-51952400D01*
X74416884Y-51721724D01*
X74506890Y-51504431D01*
X74637560Y-51308870D01*
X74803870Y-51142560D01*
X74999429Y-51011891D01*
X74999431Y-51011890D01*
X75216724Y-50921884D01*
X75447400Y-50876000D01*
X75682600Y-50876000D01*
X75913276Y-50921884D01*
X75913276Y-50921884D01*
G37*
G36*
X247363276Y-50921884D02*
G01*
X247580569Y-51011890D01*
X247580571Y-51011891D01*
X247776130Y-51142560D01*
X247942440Y-51308870D01*
X248073110Y-51504431D01*
X248163116Y-51721724D01*
X248209000Y-51952400D01*
X248209000Y-52187600D01*
X248163116Y-52418276D01*
X248073110Y-52635569D01*
X248073109Y-52635571D01*
X247942440Y-52831130D01*
X247776130Y-52997440D01*
X247580571Y-53128109D01*
X247580570Y-53128110D01*
X247580569Y-53128110D01*
X247363276Y-53218116D01*
X247132600Y-53264000D01*
X246897400Y-53264000D01*
X246666724Y-53218116D01*
X246449431Y-53128110D01*
X246449430Y-53128110D01*
X246449429Y-53128109D01*
X246253870Y-52997440D01*
X246087560Y-52831130D01*
X245956891Y-52635571D01*
X245956890Y-52635569D01*
X245866884Y-52418276D01*
X245821000Y-52187600D01*
X245821000Y-51952400D01*
X245866884Y-51721724D01*
X245956890Y-51504431D01*
X246087560Y-51308870D01*
X246253870Y-51142560D01*
X246449429Y-51011891D01*
X246449431Y-51011890D01*
X246666724Y-50921884D01*
X246897400Y-50876000D01*
X247132600Y-50876000D01*
X247363276Y-50921884D01*
X247363276Y-50921884D01*
G37*
G36*
X153810562Y-50458181D02*
G01*
X153845481Y-50468774D01*
X153877663Y-50485976D01*
X153905873Y-50509127D01*
X153929024Y-50537337D01*
X153946226Y-50569519D01*
X153956819Y-50604438D01*
X153961000Y-50646895D01*
X153961000Y-51788105D01*
X153956819Y-51830562D01*
X153946226Y-51865481D01*
X153929024Y-51897663D01*
X153905873Y-51925873D01*
X153877663Y-51949024D01*
X153845481Y-51966226D01*
X153810562Y-51976819D01*
X153768105Y-51981000D01*
X152301895Y-51981000D01*
X152259438Y-51976819D01*
X152224519Y-51966226D01*
X152192337Y-51949024D01*
X152164127Y-51925873D01*
X152140976Y-51897663D01*
X152123774Y-51865481D01*
X152113181Y-51830562D01*
X152109000Y-51788105D01*
X152109000Y-50646895D01*
X152113181Y-50604438D01*
X152123774Y-50569519D01*
X152140976Y-50537337D01*
X152164127Y-50509127D01*
X152192337Y-50485976D01*
X152224519Y-50468774D01*
X152259438Y-50458181D01*
X152301895Y-50454000D01*
X153768105Y-50454000D01*
X153810562Y-50458181D01*
X153810562Y-50458181D01*
G37*
G36*
X143650562Y-50458181D02*
G01*
X143685481Y-50468774D01*
X143717663Y-50485976D01*
X143745873Y-50509127D01*
X143769024Y-50537337D01*
X143786226Y-50569519D01*
X143796819Y-50604438D01*
X143801000Y-50646895D01*
X143801000Y-51788105D01*
X143796819Y-51830562D01*
X143786226Y-51865481D01*
X143769024Y-51897663D01*
X143745873Y-51925873D01*
X143717663Y-51949024D01*
X143685481Y-51966226D01*
X143650562Y-51976819D01*
X143608105Y-51981000D01*
X142141895Y-51981000D01*
X142099438Y-51976819D01*
X142064519Y-51966226D01*
X142032337Y-51949024D01*
X142004127Y-51925873D01*
X141980976Y-51897663D01*
X141963774Y-51865481D01*
X141953181Y-51830562D01*
X141949000Y-51788105D01*
X141949000Y-50646895D01*
X141953181Y-50604438D01*
X141963774Y-50569519D01*
X141980976Y-50537337D01*
X142004127Y-50509127D01*
X142032337Y-50485976D01*
X142064519Y-50468774D01*
X142099438Y-50458181D01*
X142141895Y-50454000D01*
X143608105Y-50454000D01*
X143650562Y-50458181D01*
X143650562Y-50458181D01*
G37*
G36*
X146190562Y-50458181D02*
G01*
X146225481Y-50468774D01*
X146257663Y-50485976D01*
X146285873Y-50509127D01*
X146309024Y-50537337D01*
X146326226Y-50569519D01*
X146336819Y-50604438D01*
X146341000Y-50646895D01*
X146341000Y-51788105D01*
X146336819Y-51830562D01*
X146326226Y-51865481D01*
X146309024Y-51897663D01*
X146285873Y-51925873D01*
X146257663Y-51949024D01*
X146225481Y-51966226D01*
X146190562Y-51976819D01*
X146148105Y-51981000D01*
X144681895Y-51981000D01*
X144639438Y-51976819D01*
X144604519Y-51966226D01*
X144572337Y-51949024D01*
X144544127Y-51925873D01*
X144520976Y-51897663D01*
X144503774Y-51865481D01*
X144493181Y-51830562D01*
X144489000Y-51788105D01*
X144489000Y-50646895D01*
X144493181Y-50604438D01*
X144503774Y-50569519D01*
X144520976Y-50537337D01*
X144544127Y-50509127D01*
X144572337Y-50485976D01*
X144604519Y-50468774D01*
X144639438Y-50458181D01*
X144681895Y-50454000D01*
X146148105Y-50454000D01*
X146190562Y-50458181D01*
X146190562Y-50458181D01*
G37*
G36*
X151270562Y-50458181D02*
G01*
X151305481Y-50468774D01*
X151337663Y-50485976D01*
X151365873Y-50509127D01*
X151389024Y-50537337D01*
X151406226Y-50569519D01*
X151416819Y-50604438D01*
X151421000Y-50646895D01*
X151421000Y-51788105D01*
X151416819Y-51830562D01*
X151406226Y-51865481D01*
X151389024Y-51897663D01*
X151365873Y-51925873D01*
X151337663Y-51949024D01*
X151305481Y-51966226D01*
X151270562Y-51976819D01*
X151228105Y-51981000D01*
X149761895Y-51981000D01*
X149719438Y-51976819D01*
X149684519Y-51966226D01*
X149652337Y-51949024D01*
X149624127Y-51925873D01*
X149600976Y-51897663D01*
X149583774Y-51865481D01*
X149573181Y-51830562D01*
X149569000Y-51788105D01*
X149569000Y-50646895D01*
X149573181Y-50604438D01*
X149583774Y-50569519D01*
X149600976Y-50537337D01*
X149624127Y-50509127D01*
X149652337Y-50485976D01*
X149684519Y-50468774D01*
X149719438Y-50458181D01*
X149761895Y-50454000D01*
X151228105Y-50454000D01*
X151270562Y-50458181D01*
X151270562Y-50458181D01*
G37*
G36*
X197375331Y-45893211D02*
G01*
X197703092Y-46028974D01*
X197998070Y-46226072D01*
X198248928Y-46476930D01*
X198446026Y-46771908D01*
X198581789Y-47099669D01*
X198651000Y-47447616D01*
X198651000Y-47802384D01*
X198581789Y-48150331D01*
X198446026Y-48478092D01*
X198248928Y-48773070D01*
X197998070Y-49023928D01*
X197703092Y-49221026D01*
X197375331Y-49356789D01*
X197027384Y-49426000D01*
X196672616Y-49426000D01*
X196324669Y-49356789D01*
X195996908Y-49221026D01*
X195701930Y-49023928D01*
X195451072Y-48773070D01*
X195253974Y-48478092D01*
X195118211Y-48150331D01*
X195049000Y-47802384D01*
X195049000Y-47447616D01*
X195118211Y-47099669D01*
X195253974Y-46771908D01*
X195451072Y-46476930D01*
X195701930Y-46226072D01*
X195996908Y-46028974D01*
X196324669Y-45893211D01*
X196672616Y-45824000D01*
X197027384Y-45824000D01*
X197375331Y-45893211D01*
X197375331Y-45893211D01*
G37*
G36*
X44975331Y-45893211D02*
G01*
X45303092Y-46028974D01*
X45598070Y-46226072D01*
X45848928Y-46476930D01*
X46046026Y-46771908D01*
X46181789Y-47099669D01*
X46251000Y-47447616D01*
X46251000Y-47802384D01*
X46181789Y-48150331D01*
X46046026Y-48478092D01*
X45848928Y-48773070D01*
X45598070Y-49023928D01*
X45303092Y-49221026D01*
X44975331Y-49356789D01*
X44627384Y-49426000D01*
X44272616Y-49426000D01*
X43924669Y-49356789D01*
X43596908Y-49221026D01*
X43301930Y-49023928D01*
X43051072Y-48773070D01*
X42853974Y-48478092D01*
X42718211Y-48150331D01*
X42649000Y-47802384D01*
X42649000Y-47447616D01*
X42718211Y-47099669D01*
X42853974Y-46771908D01*
X43051072Y-46476930D01*
X43301930Y-46226072D01*
X43596908Y-46028974D01*
X43924669Y-45893211D01*
X44272616Y-45824000D01*
X44627384Y-45824000D01*
X44975331Y-45893211D01*
X44975331Y-45893211D01*
G37*
G36*
X102125331Y-45893211D02*
G01*
X102453092Y-46028974D01*
X102748070Y-46226072D01*
X102998928Y-46476930D01*
X103196026Y-46771908D01*
X103331789Y-47099669D01*
X103401000Y-47447616D01*
X103401000Y-47802384D01*
X103331789Y-48150331D01*
X103196026Y-48478092D01*
X102998928Y-48773070D01*
X102748070Y-49023928D01*
X102453092Y-49221026D01*
X102125331Y-49356789D01*
X101777384Y-49426000D01*
X101422616Y-49426000D01*
X101074669Y-49356789D01*
X100746908Y-49221026D01*
X100451930Y-49023928D01*
X100201072Y-48773070D01*
X100003974Y-48478092D01*
X99868211Y-48150331D01*
X99799000Y-47802384D01*
X99799000Y-47447616D01*
X99868211Y-47099669D01*
X100003974Y-46771908D01*
X100201072Y-46476930D01*
X100451930Y-46226072D01*
X100746908Y-46028974D01*
X101074669Y-45893211D01*
X101422616Y-45824000D01*
X101777384Y-45824000D01*
X102125331Y-45893211D01*
X102125331Y-45893211D01*
G37*
G36*
X254525331Y-45893211D02*
G01*
X254853092Y-46028974D01*
X255148070Y-46226072D01*
X255398928Y-46476930D01*
X255596026Y-46771908D01*
X255731789Y-47099669D01*
X255801000Y-47447616D01*
X255801000Y-47802384D01*
X255731789Y-48150331D01*
X255596026Y-48478092D01*
X255398928Y-48773070D01*
X255148070Y-49023928D01*
X254853092Y-49221026D01*
X254525331Y-49356789D01*
X254177384Y-49426000D01*
X253822616Y-49426000D01*
X253474669Y-49356789D01*
X253146908Y-49221026D01*
X252851930Y-49023928D01*
X252601072Y-48773070D01*
X252403974Y-48478092D01*
X252268211Y-48150331D01*
X252199000Y-47802384D01*
X252199000Y-47447616D01*
X252268211Y-47099669D01*
X252403974Y-46771908D01*
X252601072Y-46476930D01*
X252851930Y-46226072D01*
X253146908Y-46028974D01*
X253474669Y-45893211D01*
X253822616Y-45824000D01*
X254177384Y-45824000D01*
X254525331Y-45893211D01*
X254525331Y-45893211D01*
G37*
G36*
X151270562Y-44543181D02*
G01*
X151305481Y-44553774D01*
X151337663Y-44570976D01*
X151365873Y-44594127D01*
X151389024Y-44622337D01*
X151406226Y-44654519D01*
X151416819Y-44689438D01*
X151421000Y-44731895D01*
X151421000Y-45873105D01*
X151416819Y-45915562D01*
X151406226Y-45950481D01*
X151389024Y-45982663D01*
X151365873Y-46010873D01*
X151337663Y-46034024D01*
X151305481Y-46051226D01*
X151270562Y-46061819D01*
X151228105Y-46066000D01*
X149761895Y-46066000D01*
X149719438Y-46061819D01*
X149684519Y-46051226D01*
X149652337Y-46034024D01*
X149624127Y-46010873D01*
X149600976Y-45982663D01*
X149583774Y-45950481D01*
X149573181Y-45915562D01*
X149569000Y-45873105D01*
X149569000Y-44731895D01*
X149573181Y-44689438D01*
X149583774Y-44654519D01*
X149600976Y-44622337D01*
X149624127Y-44594127D01*
X149652337Y-44570976D01*
X149684519Y-44553774D01*
X149719438Y-44543181D01*
X149761895Y-44539000D01*
X151228105Y-44539000D01*
X151270562Y-44543181D01*
X151270562Y-44543181D01*
G37*
G36*
X146190562Y-44543181D02*
G01*
X146225481Y-44553774D01*
X146257663Y-44570976D01*
X146285873Y-44594127D01*
X146309024Y-44622337D01*
X146326226Y-44654519D01*
X146336819Y-44689438D01*
X146341000Y-44731895D01*
X146341000Y-45873105D01*
X146336819Y-45915562D01*
X146326226Y-45950481D01*
X146309024Y-45982663D01*
X146285873Y-46010873D01*
X146257663Y-46034024D01*
X146225481Y-46051226D01*
X146190562Y-46061819D01*
X146148105Y-46066000D01*
X144681895Y-46066000D01*
X144639438Y-46061819D01*
X144604519Y-46051226D01*
X144572337Y-46034024D01*
X144544127Y-46010873D01*
X144520976Y-45982663D01*
X144503774Y-45950481D01*
X144493181Y-45915562D01*
X144489000Y-45873105D01*
X144489000Y-44731895D01*
X144493181Y-44689438D01*
X144503774Y-44654519D01*
X144520976Y-44622337D01*
X144544127Y-44594127D01*
X144572337Y-44570976D01*
X144604519Y-44553774D01*
X144639438Y-44543181D01*
X144681895Y-44539000D01*
X146148105Y-44539000D01*
X146190562Y-44543181D01*
X146190562Y-44543181D01*
G37*
G36*
X148730562Y-44543181D02*
G01*
X148765481Y-44553774D01*
X148797663Y-44570976D01*
X148825873Y-44594127D01*
X148849024Y-44622337D01*
X148866226Y-44654519D01*
X148876819Y-44689438D01*
X148881000Y-44731895D01*
X148881000Y-45873105D01*
X148876819Y-45915562D01*
X148866226Y-45950481D01*
X148849024Y-45982663D01*
X148825873Y-46010873D01*
X148797663Y-46034024D01*
X148765481Y-46051226D01*
X148730562Y-46061819D01*
X148688105Y-46066000D01*
X147221895Y-46066000D01*
X147179438Y-46061819D01*
X147144519Y-46051226D01*
X147112337Y-46034024D01*
X147084127Y-46010873D01*
X147060976Y-45982663D01*
X147043774Y-45950481D01*
X147033181Y-45915562D01*
X147029000Y-45873105D01*
X147029000Y-44731895D01*
X147033181Y-44689438D01*
X147043774Y-44654519D01*
X147060976Y-44622337D01*
X147084127Y-44594127D01*
X147112337Y-44570976D01*
X147144519Y-44553774D01*
X147179438Y-44543181D01*
X147221895Y-44539000D01*
X148688105Y-44539000D01*
X148730562Y-44543181D01*
X148730562Y-44543181D01*
G37*
G36*
X153810562Y-44543181D02*
G01*
X153845481Y-44553774D01*
X153877663Y-44570976D01*
X153905873Y-44594127D01*
X153929024Y-44622337D01*
X153946226Y-44654519D01*
X153956819Y-44689438D01*
X153961000Y-44731895D01*
X153961000Y-45873105D01*
X153956819Y-45915562D01*
X153946226Y-45950481D01*
X153929024Y-45982663D01*
X153905873Y-46010873D01*
X153877663Y-46034024D01*
X153845481Y-46051226D01*
X153810562Y-46061819D01*
X153768105Y-46066000D01*
X152301895Y-46066000D01*
X152259438Y-46061819D01*
X152224519Y-46051226D01*
X152192337Y-46034024D01*
X152164127Y-46010873D01*
X152140976Y-45982663D01*
X152123774Y-45950481D01*
X152113181Y-45915562D01*
X152109000Y-45873105D01*
X152109000Y-44731895D01*
X152113181Y-44689438D01*
X152123774Y-44654519D01*
X152140976Y-44622337D01*
X152164127Y-44594127D01*
X152192337Y-44570976D01*
X152224519Y-44553774D01*
X152259438Y-44543181D01*
X152301895Y-44539000D01*
X153768105Y-44539000D01*
X153810562Y-44543181D01*
X153810562Y-44543181D01*
G37*
G36*
X146190562Y-41568181D02*
G01*
X146225481Y-41578774D01*
X146257663Y-41595976D01*
X146285873Y-41619127D01*
X146309024Y-41647337D01*
X146326226Y-41679519D01*
X146336819Y-41714438D01*
X146341000Y-41756895D01*
X146341000Y-42898105D01*
X146336819Y-42940562D01*
X146326226Y-42975481D01*
X146309024Y-43007663D01*
X146285873Y-43035873D01*
X146257663Y-43059024D01*
X146225481Y-43076226D01*
X146190562Y-43086819D01*
X146148105Y-43091000D01*
X144681895Y-43091000D01*
X144639438Y-43086819D01*
X144604519Y-43076226D01*
X144572337Y-43059024D01*
X144544127Y-43035873D01*
X144520976Y-43007663D01*
X144503774Y-42975481D01*
X144493181Y-42940562D01*
X144489000Y-42898105D01*
X144489000Y-41756895D01*
X144493181Y-41714438D01*
X144503774Y-41679519D01*
X144520976Y-41647337D01*
X144544127Y-41619127D01*
X144572337Y-41595976D01*
X144604519Y-41578774D01*
X144639438Y-41568181D01*
X144681895Y-41564000D01*
X146148105Y-41564000D01*
X146190562Y-41568181D01*
X146190562Y-41568181D01*
G37*
G36*
X148730562Y-41568181D02*
G01*
X148765481Y-41578774D01*
X148797663Y-41595976D01*
X148825873Y-41619127D01*
X148849024Y-41647337D01*
X148866226Y-41679519D01*
X148876819Y-41714438D01*
X148881000Y-41756895D01*
X148881000Y-42898105D01*
X148876819Y-42940562D01*
X148866226Y-42975481D01*
X148849024Y-43007663D01*
X148825873Y-43035873D01*
X148797663Y-43059024D01*
X148765481Y-43076226D01*
X148730562Y-43086819D01*
X148688105Y-43091000D01*
X147221895Y-43091000D01*
X147179438Y-43086819D01*
X147144519Y-43076226D01*
X147112337Y-43059024D01*
X147084127Y-43035873D01*
X147060976Y-43007663D01*
X147043774Y-42975481D01*
X147033181Y-42940562D01*
X147029000Y-42898105D01*
X147029000Y-41756895D01*
X147033181Y-41714438D01*
X147043774Y-41679519D01*
X147060976Y-41647337D01*
X147084127Y-41619127D01*
X147112337Y-41595976D01*
X147144519Y-41578774D01*
X147179438Y-41568181D01*
X147221895Y-41564000D01*
X148688105Y-41564000D01*
X148730562Y-41568181D01*
X148730562Y-41568181D01*
G37*
G36*
X151270562Y-41568181D02*
G01*
X151305481Y-41578774D01*
X151337663Y-41595976D01*
X151365873Y-41619127D01*
X151389024Y-41647337D01*
X151406226Y-41679519D01*
X151416819Y-41714438D01*
X151421000Y-41756895D01*
X151421000Y-42898105D01*
X151416819Y-42940562D01*
X151406226Y-42975481D01*
X151389024Y-43007663D01*
X151365873Y-43035873D01*
X151337663Y-43059024D01*
X151305481Y-43076226D01*
X151270562Y-43086819D01*
X151228105Y-43091000D01*
X149761895Y-43091000D01*
X149719438Y-43086819D01*
X149684519Y-43076226D01*
X149652337Y-43059024D01*
X149624127Y-43035873D01*
X149600976Y-43007663D01*
X149583774Y-42975481D01*
X149573181Y-42940562D01*
X149569000Y-42898105D01*
X149569000Y-41756895D01*
X149573181Y-41714438D01*
X149583774Y-41679519D01*
X149600976Y-41647337D01*
X149624127Y-41619127D01*
X149652337Y-41595976D01*
X149684519Y-41578774D01*
X149719438Y-41568181D01*
X149761895Y-41564000D01*
X151228105Y-41564000D01*
X151270562Y-41568181D01*
X151270562Y-41568181D01*
G37*
G36*
X153810562Y-41568181D02*
G01*
X153845481Y-41578774D01*
X153877663Y-41595976D01*
X153905873Y-41619127D01*
X153929024Y-41647337D01*
X153946226Y-41679519D01*
X153956819Y-41714438D01*
X153961000Y-41756895D01*
X153961000Y-42898105D01*
X153956819Y-42940562D01*
X153946226Y-42975481D01*
X153929024Y-43007663D01*
X153905873Y-43035873D01*
X153877663Y-43059024D01*
X153845481Y-43076226D01*
X153810562Y-43086819D01*
X153768105Y-43091000D01*
X152301895Y-43091000D01*
X152259438Y-43086819D01*
X152224519Y-43076226D01*
X152192337Y-43059024D01*
X152164127Y-43035873D01*
X152140976Y-43007663D01*
X152123774Y-42975481D01*
X152113181Y-42940562D01*
X152109000Y-42898105D01*
X152109000Y-41756895D01*
X152113181Y-41714438D01*
X152123774Y-41679519D01*
X152140976Y-41647337D01*
X152164127Y-41619127D01*
X152192337Y-41595976D01*
X152224519Y-41578774D01*
X152259438Y-41568181D01*
X152301895Y-41564000D01*
X153768105Y-41564000D01*
X153810562Y-41568181D01*
X153810562Y-41568181D01*
G37*
G36*
X154902618Y-35135920D02*
G01*
X154993404Y-35163460D01*
X155025336Y-35173146D01*
X155138425Y-35233594D01*
X155237554Y-35314946D01*
X155318906Y-35414075D01*
X155379354Y-35527164D01*
X155379355Y-35527168D01*
X155416580Y-35649882D01*
X155426000Y-35745527D01*
X155426000Y-36909473D01*
X155416580Y-37005118D01*
X155389040Y-37095904D01*
X155379354Y-37127836D01*
X155318906Y-37240925D01*
X155237554Y-37340053D01*
X155138424Y-37421406D01*
X155025335Y-37481854D01*
X154993403Y-37491540D01*
X154902617Y-37519080D01*
X154775000Y-37531649D01*
X154647382Y-37519080D01*
X154556596Y-37491540D01*
X154524664Y-37481854D01*
X154411575Y-37421406D01*
X154312447Y-37340054D01*
X154231094Y-37240924D01*
X154170646Y-37127835D01*
X154160960Y-37095903D01*
X154133420Y-37005117D01*
X154124000Y-36909472D01*
X154124001Y-35745527D01*
X154133421Y-35649882D01*
X154170646Y-35527168D01*
X154170647Y-35527164D01*
X154231095Y-35414075D01*
X154312447Y-35314946D01*
X154411576Y-35233594D01*
X154524665Y-35173146D01*
X154556597Y-35163460D01*
X154647383Y-35135920D01*
X154775000Y-35123351D01*
X154902618Y-35135920D01*
X154902618Y-35135920D01*
G37*
G36*
X143802618Y-35135920D02*
G01*
X143893404Y-35163460D01*
X143925336Y-35173146D01*
X144038425Y-35233594D01*
X144137554Y-35314946D01*
X144218906Y-35414075D01*
X144279354Y-35527164D01*
X144279355Y-35527168D01*
X144316580Y-35649882D01*
X144326000Y-35745527D01*
X144326000Y-36909473D01*
X144316580Y-37005118D01*
X144289040Y-37095904D01*
X144279354Y-37127836D01*
X144218906Y-37240925D01*
X144137554Y-37340053D01*
X144038424Y-37421406D01*
X143925335Y-37481854D01*
X143893403Y-37491540D01*
X143802617Y-37519080D01*
X143675000Y-37531649D01*
X143547382Y-37519080D01*
X143456596Y-37491540D01*
X143424664Y-37481854D01*
X143311575Y-37421406D01*
X143212447Y-37340054D01*
X143131094Y-37240924D01*
X143070646Y-37127835D01*
X143060960Y-37095903D01*
X143033420Y-37005117D01*
X143024000Y-36909472D01*
X143024001Y-35745527D01*
X143033421Y-35649882D01*
X143070646Y-35527168D01*
X143070647Y-35527164D01*
X143131095Y-35414075D01*
X143212447Y-35314946D01*
X143311576Y-35233594D01*
X143424665Y-35173146D01*
X143456597Y-35163460D01*
X143547383Y-35135920D01*
X143675000Y-35123351D01*
X143802618Y-35135920D01*
X143802618Y-35135920D01*
G37*
G36*
X147327383Y-35539989D02*
G01*
X147327386Y-35539990D01*
X147327385Y-35539990D01*
X147391258Y-35566446D01*
X147448748Y-35604860D01*
X147497640Y-35653752D01*
X147521067Y-35688813D01*
X147536613Y-35707755D01*
X147555555Y-35723300D01*
X147577165Y-35734851D01*
X147600614Y-35741964D01*
X147625000Y-35744366D01*
X147649386Y-35741964D01*
X147672835Y-35734851D01*
X147694446Y-35723300D01*
X147713388Y-35707754D01*
X147728933Y-35688813D01*
X147752360Y-35653752D01*
X147801252Y-35604860D01*
X147858742Y-35566446D01*
X147922615Y-35539990D01*
X147922614Y-35539990D01*
X147922617Y-35539989D01*
X147990430Y-35526500D01*
X148059570Y-35526500D01*
X148127383Y-35539989D01*
X148127386Y-35539990D01*
X148127385Y-35539990D01*
X148191258Y-35566446D01*
X148248748Y-35604860D01*
X148297640Y-35653752D01*
X148321067Y-35688813D01*
X148336613Y-35707755D01*
X148355555Y-35723300D01*
X148377165Y-35734851D01*
X148400614Y-35741964D01*
X148425000Y-35744366D01*
X148449386Y-35741964D01*
X148472835Y-35734851D01*
X148494446Y-35723300D01*
X148513388Y-35707754D01*
X148528933Y-35688813D01*
X148552360Y-35653752D01*
X148601252Y-35604860D01*
X148658742Y-35566446D01*
X148722615Y-35539990D01*
X148722614Y-35539990D01*
X148722617Y-35539989D01*
X148790430Y-35526500D01*
X148859570Y-35526500D01*
X148927383Y-35539989D01*
X148927386Y-35539990D01*
X148927385Y-35539990D01*
X148991258Y-35566446D01*
X149048748Y-35604860D01*
X149097640Y-35653752D01*
X149121067Y-35688813D01*
X149136613Y-35707755D01*
X149155555Y-35723300D01*
X149177165Y-35734851D01*
X149200614Y-35741964D01*
X149225000Y-35744366D01*
X149249386Y-35741964D01*
X149272835Y-35734851D01*
X149294446Y-35723300D01*
X149313388Y-35707754D01*
X149328933Y-35688813D01*
X149352360Y-35653752D01*
X149401252Y-35604860D01*
X149458742Y-35566446D01*
X149522615Y-35539990D01*
X149522614Y-35539990D01*
X149522617Y-35539989D01*
X149590430Y-35526500D01*
X149659570Y-35526500D01*
X149727383Y-35539989D01*
X149727386Y-35539990D01*
X149727385Y-35539990D01*
X149791258Y-35566446D01*
X149848748Y-35604860D01*
X149897640Y-35653752D01*
X149921067Y-35688813D01*
X149936613Y-35707755D01*
X149955555Y-35723300D01*
X149977165Y-35734851D01*
X150000614Y-35741964D01*
X150025000Y-35744366D01*
X150049386Y-35741964D01*
X150072835Y-35734851D01*
X150094446Y-35723300D01*
X150113388Y-35707754D01*
X150128933Y-35688813D01*
X150152360Y-35653752D01*
X150201252Y-35604860D01*
X150258742Y-35566446D01*
X150322615Y-35539990D01*
X150322614Y-35539990D01*
X150322617Y-35539989D01*
X150390430Y-35526500D01*
X150459570Y-35526500D01*
X150527383Y-35539989D01*
X150527386Y-35539990D01*
X150527385Y-35539990D01*
X150591258Y-35566446D01*
X150648748Y-35604860D01*
X150697640Y-35653752D01*
X150721067Y-35688813D01*
X150736613Y-35707755D01*
X150755555Y-35723300D01*
X150777165Y-35734851D01*
X150800614Y-35741964D01*
X150825000Y-35744366D01*
X150849386Y-35741964D01*
X150872835Y-35734851D01*
X150894446Y-35723300D01*
X150913388Y-35707754D01*
X150928933Y-35688813D01*
X150952360Y-35653752D01*
X151001252Y-35604860D01*
X151058742Y-35566446D01*
X151122615Y-35539990D01*
X151122614Y-35539990D01*
X151122617Y-35539989D01*
X151190430Y-35526500D01*
X151259570Y-35526500D01*
X151327383Y-35539989D01*
X151327386Y-35539990D01*
X151327385Y-35539990D01*
X151391258Y-35566446D01*
X151448748Y-35604860D01*
X151497640Y-35653752D01*
X151536054Y-35711242D01*
X151557624Y-35763318D01*
X151562511Y-35775117D01*
X151576000Y-35842930D01*
X151576000Y-35912070D01*
X151562511Y-35979883D01*
X151562510Y-35979885D01*
X151536054Y-36043758D01*
X151497640Y-36101248D01*
X151485775Y-36113113D01*
X151470230Y-36132055D01*
X151458679Y-36153666D01*
X151451566Y-36177115D01*
X151449164Y-36201501D01*
X151451566Y-36225887D01*
X151458679Y-36249336D01*
X151470230Y-36270947D01*
X151485775Y-36289889D01*
X151504717Y-36305434D01*
X151526328Y-36316985D01*
X151549777Y-36324098D01*
X151574163Y-36326500D01*
X153421000Y-36326500D01*
X153421000Y-37278500D01*
X145029000Y-37278500D01*
X145029000Y-36326500D01*
X146875837Y-36326500D01*
X146900223Y-36324098D01*
X146923672Y-36316985D01*
X146945283Y-36305434D01*
X146964225Y-36289889D01*
X146979770Y-36270947D01*
X146991321Y-36249336D01*
X146998434Y-36225887D01*
X147000836Y-36201501D01*
X147449164Y-36201501D01*
X147451566Y-36225887D01*
X147458679Y-36249336D01*
X147470230Y-36270947D01*
X147485775Y-36289889D01*
X147504717Y-36305434D01*
X147526328Y-36316985D01*
X147549777Y-36324098D01*
X147574163Y-36326500D01*
X147675837Y-36326500D01*
X147700223Y-36324098D01*
X147723672Y-36316985D01*
X147745283Y-36305434D01*
X147764225Y-36289889D01*
X147779770Y-36270947D01*
X147791321Y-36249336D01*
X147798434Y-36225887D01*
X147800836Y-36201501D01*
X148249164Y-36201501D01*
X148251566Y-36225887D01*
X148258679Y-36249336D01*
X148270230Y-36270947D01*
X148285775Y-36289889D01*
X148304717Y-36305434D01*
X148326328Y-36316985D01*
X148349777Y-36324098D01*
X148374163Y-36326500D01*
X148475837Y-36326500D01*
X148500223Y-36324098D01*
X148523672Y-36316985D01*
X148545283Y-36305434D01*
X148564225Y-36289889D01*
X148579770Y-36270947D01*
X148591321Y-36249336D01*
X148598434Y-36225887D01*
X148600836Y-36201501D01*
X149049164Y-36201501D01*
X149051566Y-36225887D01*
X149058679Y-36249336D01*
X149070230Y-36270947D01*
X149085775Y-36289889D01*
X149104717Y-36305434D01*
X149126328Y-36316985D01*
X149149777Y-36324098D01*
X149174163Y-36326500D01*
X149275837Y-36326500D01*
X149300223Y-36324098D01*
X149323672Y-36316985D01*
X149345283Y-36305434D01*
X149364225Y-36289889D01*
X149379770Y-36270947D01*
X149391321Y-36249336D01*
X149398434Y-36225887D01*
X149400836Y-36201501D01*
X149849164Y-36201501D01*
X149851566Y-36225887D01*
X149858679Y-36249336D01*
X149870230Y-36270947D01*
X149885775Y-36289889D01*
X149904717Y-36305434D01*
X149926328Y-36316985D01*
X149949777Y-36324098D01*
X149974163Y-36326500D01*
X150075837Y-36326500D01*
X150100223Y-36324098D01*
X150123672Y-36316985D01*
X150145283Y-36305434D01*
X150164225Y-36289889D01*
X150179770Y-36270947D01*
X150191321Y-36249336D01*
X150198434Y-36225887D01*
X150200836Y-36201501D01*
X150649164Y-36201501D01*
X150651566Y-36225887D01*
X150658679Y-36249336D01*
X150670230Y-36270947D01*
X150685775Y-36289889D01*
X150704717Y-36305434D01*
X150726328Y-36316985D01*
X150749777Y-36324098D01*
X150774163Y-36326500D01*
X150875837Y-36326500D01*
X150900223Y-36324098D01*
X150923672Y-36316985D01*
X150945283Y-36305434D01*
X150964225Y-36289889D01*
X150979770Y-36270947D01*
X150991321Y-36249336D01*
X150998434Y-36225887D01*
X151000836Y-36201501D01*
X150998434Y-36177115D01*
X150991321Y-36153666D01*
X150979770Y-36132055D01*
X150964225Y-36113113D01*
X150952360Y-36101248D01*
X150928933Y-36066187D01*
X150913387Y-36047245D01*
X150894445Y-36031700D01*
X150872835Y-36020149D01*
X150849386Y-36013036D01*
X150825000Y-36010634D01*
X150800614Y-36013036D01*
X150777165Y-36020149D01*
X150755554Y-36031700D01*
X150736612Y-36047246D01*
X150721067Y-36066187D01*
X150697640Y-36101248D01*
X150685775Y-36113113D01*
X150670230Y-36132055D01*
X150658679Y-36153666D01*
X150651566Y-36177115D01*
X150649164Y-36201501D01*
X150200836Y-36201501D01*
X150198434Y-36177115D01*
X150191321Y-36153666D01*
X150179770Y-36132055D01*
X150164225Y-36113113D01*
X150152360Y-36101248D01*
X150128933Y-36066187D01*
X150113387Y-36047245D01*
X150094445Y-36031700D01*
X150072835Y-36020149D01*
X150049386Y-36013036D01*
X150025000Y-36010634D01*
X150000614Y-36013036D01*
X149977165Y-36020149D01*
X149955554Y-36031700D01*
X149936612Y-36047246D01*
X149921067Y-36066187D01*
X149897640Y-36101248D01*
X149885775Y-36113113D01*
X149870230Y-36132055D01*
X149858679Y-36153666D01*
X149851566Y-36177115D01*
X149849164Y-36201501D01*
X149400836Y-36201501D01*
X149398434Y-36177115D01*
X149391321Y-36153666D01*
X149379770Y-36132055D01*
X149364225Y-36113113D01*
X149352360Y-36101248D01*
X149328933Y-36066187D01*
X149313387Y-36047245D01*
X149294445Y-36031700D01*
X149272835Y-36020149D01*
X149249386Y-36013036D01*
X149225000Y-36010634D01*
X149200614Y-36013036D01*
X149177165Y-36020149D01*
X149155554Y-36031700D01*
X149136612Y-36047246D01*
X149121067Y-36066187D01*
X149097640Y-36101248D01*
X149085775Y-36113113D01*
X149070230Y-36132055D01*
X149058679Y-36153666D01*
X149051566Y-36177115D01*
X149049164Y-36201501D01*
X148600836Y-36201501D01*
X148598434Y-36177115D01*
X148591321Y-36153666D01*
X148579770Y-36132055D01*
X148564225Y-36113113D01*
X148552360Y-36101248D01*
X148528933Y-36066187D01*
X148513387Y-36047245D01*
X148494445Y-36031700D01*
X148472835Y-36020149D01*
X148449386Y-36013036D01*
X148425000Y-36010634D01*
X148400614Y-36013036D01*
X148377165Y-36020149D01*
X148355554Y-36031700D01*
X148336612Y-36047246D01*
X148321067Y-36066187D01*
X148297640Y-36101248D01*
X148285775Y-36113113D01*
X148270230Y-36132055D01*
X148258679Y-36153666D01*
X148251566Y-36177115D01*
X148249164Y-36201501D01*
X147800836Y-36201501D01*
X147798434Y-36177115D01*
X147791321Y-36153666D01*
X147779770Y-36132055D01*
X147764225Y-36113113D01*
X147752360Y-36101248D01*
X147728933Y-36066187D01*
X147713387Y-36047245D01*
X147694445Y-36031700D01*
X147672835Y-36020149D01*
X147649386Y-36013036D01*
X147625000Y-36010634D01*
X147600614Y-36013036D01*
X147577165Y-36020149D01*
X147555554Y-36031700D01*
X147536612Y-36047246D01*
X147521067Y-36066187D01*
X147497640Y-36101248D01*
X147485775Y-36113113D01*
X147470230Y-36132055D01*
X147458679Y-36153666D01*
X147451566Y-36177115D01*
X147449164Y-36201501D01*
X147000836Y-36201501D01*
X146998434Y-36177115D01*
X146991321Y-36153666D01*
X146979770Y-36132055D01*
X146964225Y-36113113D01*
X146952360Y-36101248D01*
X146913946Y-36043758D01*
X146887490Y-35979885D01*
X146887489Y-35979883D01*
X146874000Y-35912070D01*
X146874000Y-35842930D01*
X146887489Y-35775117D01*
X146892376Y-35763318D01*
X146913946Y-35711242D01*
X146952360Y-35653752D01*
X147001252Y-35604860D01*
X147058742Y-35566446D01*
X147122615Y-35539990D01*
X147122614Y-35539990D01*
X147122617Y-35539989D01*
X147190430Y-35526500D01*
X147259570Y-35526500D01*
X147327383Y-35539989D01*
X147327383Y-35539989D01*
G37*
G36*
X241013276Y-34411884D02*
G01*
X241230569Y-34501890D01*
X241230571Y-34501891D01*
X241426130Y-34632560D01*
X241592440Y-34798870D01*
X241723110Y-34994431D01*
X241813116Y-35211724D01*
X241859000Y-35442400D01*
X241859000Y-35677600D01*
X241813116Y-35908276D01*
X241728269Y-36113113D01*
X241723109Y-36125571D01*
X241592440Y-36321130D01*
X241426130Y-36487440D01*
X241230571Y-36618109D01*
X241230570Y-36618110D01*
X241230569Y-36618110D01*
X241013276Y-36708116D01*
X240782600Y-36754000D01*
X240547400Y-36754000D01*
X240316724Y-36708116D01*
X240099431Y-36618110D01*
X240099430Y-36618110D01*
X240099429Y-36618109D01*
X239903870Y-36487440D01*
X239737560Y-36321130D01*
X239606891Y-36125571D01*
X239601731Y-36113113D01*
X239516884Y-35908276D01*
X239471000Y-35677600D01*
X239471000Y-35442400D01*
X239516884Y-35211724D01*
X239606890Y-34994431D01*
X239737560Y-34798870D01*
X239903870Y-34632560D01*
X240099429Y-34501891D01*
X240099431Y-34501890D01*
X240316724Y-34411884D01*
X240547400Y-34366000D01*
X240782600Y-34366000D01*
X241013276Y-34411884D01*
X241013276Y-34411884D01*
G37*
G36*
X31463276Y-34411884D02*
G01*
X31680569Y-34501890D01*
X31680571Y-34501891D01*
X31876130Y-34632560D01*
X32042440Y-34798870D01*
X32173110Y-34994431D01*
X32263116Y-35211724D01*
X32309000Y-35442400D01*
X32309000Y-35677600D01*
X32263116Y-35908276D01*
X32178269Y-36113113D01*
X32173109Y-36125571D01*
X32042440Y-36321130D01*
X31876130Y-36487440D01*
X31680571Y-36618109D01*
X31680570Y-36618110D01*
X31680569Y-36618110D01*
X31463276Y-36708116D01*
X31232600Y-36754000D01*
X30997400Y-36754000D01*
X30766724Y-36708116D01*
X30549431Y-36618110D01*
X30549430Y-36618110D01*
X30549429Y-36618109D01*
X30353870Y-36487440D01*
X30187560Y-36321130D01*
X30056891Y-36125571D01*
X30051731Y-36113113D01*
X29966884Y-35908276D01*
X29921000Y-35677600D01*
X29921000Y-35442400D01*
X29966884Y-35211724D01*
X30056890Y-34994431D01*
X30187560Y-34798870D01*
X30353870Y-34632560D01*
X30549429Y-34501891D01*
X30549431Y-34501890D01*
X30766724Y-34411884D01*
X30997400Y-34366000D01*
X31232600Y-34366000D01*
X31463276Y-34411884D01*
X31463276Y-34411884D01*
G37*
G36*
X107663276Y-34411884D02*
G01*
X107880569Y-34501890D01*
X107880571Y-34501891D01*
X108076130Y-34632560D01*
X108242440Y-34798870D01*
X108373110Y-34994431D01*
X108463116Y-35211724D01*
X108509000Y-35442400D01*
X108509000Y-35677600D01*
X108463116Y-35908276D01*
X108378269Y-36113113D01*
X108373109Y-36125571D01*
X108242440Y-36321130D01*
X108076130Y-36487440D01*
X107880571Y-36618109D01*
X107880570Y-36618110D01*
X107880569Y-36618110D01*
X107663276Y-36708116D01*
X107432600Y-36754000D01*
X107197400Y-36754000D01*
X106966724Y-36708116D01*
X106749431Y-36618110D01*
X106749430Y-36618110D01*
X106749429Y-36618109D01*
X106553870Y-36487440D01*
X106387560Y-36321130D01*
X106256891Y-36125571D01*
X106251731Y-36113113D01*
X106166884Y-35908276D01*
X106121000Y-35677600D01*
X106121000Y-35442400D01*
X106166884Y-35211724D01*
X106256890Y-34994431D01*
X106387560Y-34798870D01*
X106553870Y-34632560D01*
X106749429Y-34501891D01*
X106749431Y-34501890D01*
X106966724Y-34411884D01*
X107197400Y-34366000D01*
X107432600Y-34366000D01*
X107663276Y-34411884D01*
X107663276Y-34411884D01*
G37*
G36*
X126713276Y-34411884D02*
G01*
X126930569Y-34501890D01*
X126930571Y-34501891D01*
X127126130Y-34632560D01*
X127292440Y-34798870D01*
X127423110Y-34994431D01*
X127513116Y-35211724D01*
X127559000Y-35442400D01*
X127559000Y-35677600D01*
X127513116Y-35908276D01*
X127428269Y-36113113D01*
X127423109Y-36125571D01*
X127292440Y-36321130D01*
X127126130Y-36487440D01*
X126930571Y-36618109D01*
X126930570Y-36618110D01*
X126930569Y-36618110D01*
X126713276Y-36708116D01*
X126482600Y-36754000D01*
X126247400Y-36754000D01*
X126016724Y-36708116D01*
X125799431Y-36618110D01*
X125799430Y-36618110D01*
X125799429Y-36618109D01*
X125603870Y-36487440D01*
X125437560Y-36321130D01*
X125306891Y-36125571D01*
X125301731Y-36113113D01*
X125216884Y-35908276D01*
X125171000Y-35677600D01*
X125171000Y-35442400D01*
X125216884Y-35211724D01*
X125306890Y-34994431D01*
X125437560Y-34798870D01*
X125603870Y-34632560D01*
X125799429Y-34501891D01*
X125799431Y-34501890D01*
X126016724Y-34411884D01*
X126247400Y-34366000D01*
X126482600Y-34366000D01*
X126713276Y-34411884D01*
X126713276Y-34411884D01*
G37*
G36*
X221963276Y-34411884D02*
G01*
X222180569Y-34501890D01*
X222180571Y-34501891D01*
X222376130Y-34632560D01*
X222542440Y-34798870D01*
X222673110Y-34994431D01*
X222763116Y-35211724D01*
X222809000Y-35442400D01*
X222809000Y-35677600D01*
X222763116Y-35908276D01*
X222678269Y-36113113D01*
X222673109Y-36125571D01*
X222542440Y-36321130D01*
X222376130Y-36487440D01*
X222180571Y-36618109D01*
X222180570Y-36618110D01*
X222180569Y-36618110D01*
X221963276Y-36708116D01*
X221732600Y-36754000D01*
X221497400Y-36754000D01*
X221266724Y-36708116D01*
X221049431Y-36618110D01*
X221049430Y-36618110D01*
X221049429Y-36618109D01*
X220853870Y-36487440D01*
X220687560Y-36321130D01*
X220556891Y-36125571D01*
X220551731Y-36113113D01*
X220466884Y-35908276D01*
X220421000Y-35677600D01*
X220421000Y-35442400D01*
X220466884Y-35211724D01*
X220556890Y-34994431D01*
X220687560Y-34798870D01*
X220853870Y-34632560D01*
X221049429Y-34501891D01*
X221049431Y-34501890D01*
X221266724Y-34411884D01*
X221497400Y-34366000D01*
X221732600Y-34366000D01*
X221963276Y-34411884D01*
X221963276Y-34411884D01*
G37*
G36*
X260063276Y-34411884D02*
G01*
X260280569Y-34501890D01*
X260280571Y-34501891D01*
X260476130Y-34632560D01*
X260642440Y-34798870D01*
X260773110Y-34994431D01*
X260863116Y-35211724D01*
X260909000Y-35442400D01*
X260909000Y-35677600D01*
X260863116Y-35908276D01*
X260778269Y-36113113D01*
X260773109Y-36125571D01*
X260642440Y-36321130D01*
X260476130Y-36487440D01*
X260280571Y-36618109D01*
X260280570Y-36618110D01*
X260280569Y-36618110D01*
X260063276Y-36708116D01*
X259832600Y-36754000D01*
X259597400Y-36754000D01*
X259366724Y-36708116D01*
X259149431Y-36618110D01*
X259149430Y-36618110D01*
X259149429Y-36618109D01*
X258953870Y-36487440D01*
X258787560Y-36321130D01*
X258656891Y-36125571D01*
X258651731Y-36113113D01*
X258566884Y-35908276D01*
X258521000Y-35677600D01*
X258521000Y-35442400D01*
X258566884Y-35211724D01*
X258656890Y-34994431D01*
X258787560Y-34798870D01*
X258953870Y-34632560D01*
X259149429Y-34501891D01*
X259149431Y-34501890D01*
X259366724Y-34411884D01*
X259597400Y-34366000D01*
X259832600Y-34366000D01*
X260063276Y-34411884D01*
X260063276Y-34411884D01*
G37*
G36*
X164813276Y-34411884D02*
G01*
X165030569Y-34501890D01*
X165030571Y-34501891D01*
X165226130Y-34632560D01*
X165392440Y-34798870D01*
X165523110Y-34994431D01*
X165613116Y-35211724D01*
X165659000Y-35442400D01*
X165659000Y-35677600D01*
X165613116Y-35908276D01*
X165528269Y-36113113D01*
X165523109Y-36125571D01*
X165392440Y-36321130D01*
X165226130Y-36487440D01*
X165030571Y-36618109D01*
X165030570Y-36618110D01*
X165030569Y-36618110D01*
X164813276Y-36708116D01*
X164582600Y-36754000D01*
X164347400Y-36754000D01*
X164116724Y-36708116D01*
X163899431Y-36618110D01*
X163899430Y-36618110D01*
X163899429Y-36618109D01*
X163703870Y-36487440D01*
X163537560Y-36321130D01*
X163406891Y-36125571D01*
X163401731Y-36113113D01*
X163316884Y-35908276D01*
X163271000Y-35677600D01*
X163271000Y-35442400D01*
X163316884Y-35211724D01*
X163406890Y-34994431D01*
X163537560Y-34798870D01*
X163703870Y-34632560D01*
X163899429Y-34501891D01*
X163899431Y-34501890D01*
X164116724Y-34411884D01*
X164347400Y-34366000D01*
X164582600Y-34366000D01*
X164813276Y-34411884D01*
X164813276Y-34411884D01*
G37*
G36*
X50513276Y-34411884D02*
G01*
X50730569Y-34501890D01*
X50730571Y-34501891D01*
X50926130Y-34632560D01*
X51092440Y-34798870D01*
X51223110Y-34994431D01*
X51313116Y-35211724D01*
X51359000Y-35442400D01*
X51359000Y-35677600D01*
X51313116Y-35908276D01*
X51228269Y-36113113D01*
X51223109Y-36125571D01*
X51092440Y-36321130D01*
X50926130Y-36487440D01*
X50730571Y-36618109D01*
X50730570Y-36618110D01*
X50730569Y-36618110D01*
X50513276Y-36708116D01*
X50282600Y-36754000D01*
X50047400Y-36754000D01*
X49816724Y-36708116D01*
X49599431Y-36618110D01*
X49599430Y-36618110D01*
X49599429Y-36618109D01*
X49403870Y-36487440D01*
X49237560Y-36321130D01*
X49106891Y-36125571D01*
X49101731Y-36113113D01*
X49016884Y-35908276D01*
X48971000Y-35677600D01*
X48971000Y-35442400D01*
X49016884Y-35211724D01*
X49106890Y-34994431D01*
X49237560Y-34798870D01*
X49403870Y-34632560D01*
X49599429Y-34501891D01*
X49599431Y-34501890D01*
X49816724Y-34411884D01*
X50047400Y-34366000D01*
X50282600Y-34366000D01*
X50513276Y-34411884D01*
X50513276Y-34411884D01*
G37*
G36*
X183863276Y-34411884D02*
G01*
X184080569Y-34501890D01*
X184080571Y-34501891D01*
X184276130Y-34632560D01*
X184442440Y-34798870D01*
X184573110Y-34994431D01*
X184663116Y-35211724D01*
X184709000Y-35442400D01*
X184709000Y-35677600D01*
X184663116Y-35908276D01*
X184578269Y-36113113D01*
X184573109Y-36125571D01*
X184442440Y-36321130D01*
X184276130Y-36487440D01*
X184080571Y-36618109D01*
X184080570Y-36618110D01*
X184080569Y-36618110D01*
X183863276Y-36708116D01*
X183632600Y-36754000D01*
X183397400Y-36754000D01*
X183166724Y-36708116D01*
X182949431Y-36618110D01*
X182949430Y-36618110D01*
X182949429Y-36618109D01*
X182753870Y-36487440D01*
X182587560Y-36321130D01*
X182456891Y-36125571D01*
X182451731Y-36113113D01*
X182366884Y-35908276D01*
X182321000Y-35677600D01*
X182321000Y-35442400D01*
X182366884Y-35211724D01*
X182456890Y-34994431D01*
X182587560Y-34798870D01*
X182753870Y-34632560D01*
X182949429Y-34501891D01*
X182949431Y-34501890D01*
X183166724Y-34411884D01*
X183397400Y-34366000D01*
X183632600Y-34366000D01*
X183863276Y-34411884D01*
X183863276Y-34411884D01*
G37*
G36*
X69563276Y-34411884D02*
G01*
X69780569Y-34501890D01*
X69780571Y-34501891D01*
X69976130Y-34632560D01*
X70142440Y-34798870D01*
X70273110Y-34994431D01*
X70363116Y-35211724D01*
X70409000Y-35442400D01*
X70409000Y-35677600D01*
X70363116Y-35908276D01*
X70278269Y-36113113D01*
X70273109Y-36125571D01*
X70142440Y-36321130D01*
X69976130Y-36487440D01*
X69780571Y-36618109D01*
X69780570Y-36618110D01*
X69780569Y-36618110D01*
X69563276Y-36708116D01*
X69332600Y-36754000D01*
X69097400Y-36754000D01*
X68866724Y-36708116D01*
X68649431Y-36618110D01*
X68649430Y-36618110D01*
X68649429Y-36618109D01*
X68453870Y-36487440D01*
X68287560Y-36321130D01*
X68156891Y-36125571D01*
X68151731Y-36113113D01*
X68066884Y-35908276D01*
X68021000Y-35677600D01*
X68021000Y-35442400D01*
X68066884Y-35211724D01*
X68156890Y-34994431D01*
X68287560Y-34798870D01*
X68453870Y-34632560D01*
X68649429Y-34501891D01*
X68649431Y-34501890D01*
X68866724Y-34411884D01*
X69097400Y-34366000D01*
X69332600Y-34366000D01*
X69563276Y-34411884D01*
X69563276Y-34411884D01*
G37*
G36*
X202913276Y-34411884D02*
G01*
X203130569Y-34501890D01*
X203130571Y-34501891D01*
X203326130Y-34632560D01*
X203492440Y-34798870D01*
X203623110Y-34994431D01*
X203713116Y-35211724D01*
X203759000Y-35442400D01*
X203759000Y-35677600D01*
X203713116Y-35908276D01*
X203628269Y-36113113D01*
X203623109Y-36125571D01*
X203492440Y-36321130D01*
X203326130Y-36487440D01*
X203130571Y-36618109D01*
X203130570Y-36618110D01*
X203130569Y-36618110D01*
X202913276Y-36708116D01*
X202682600Y-36754000D01*
X202447400Y-36754000D01*
X202216724Y-36708116D01*
X201999431Y-36618110D01*
X201999430Y-36618110D01*
X201999429Y-36618109D01*
X201803870Y-36487440D01*
X201637560Y-36321130D01*
X201506891Y-36125571D01*
X201501731Y-36113113D01*
X201416884Y-35908276D01*
X201371000Y-35677600D01*
X201371000Y-35442400D01*
X201416884Y-35211724D01*
X201506890Y-34994431D01*
X201637560Y-34798870D01*
X201803870Y-34632560D01*
X201999429Y-34501891D01*
X201999431Y-34501890D01*
X202216724Y-34411884D01*
X202447400Y-34366000D01*
X202682600Y-34366000D01*
X202913276Y-34411884D01*
X202913276Y-34411884D01*
G37*
G36*
X88613276Y-34411884D02*
G01*
X88830569Y-34501890D01*
X88830571Y-34501891D01*
X89026130Y-34632560D01*
X89192440Y-34798870D01*
X89323110Y-34994431D01*
X89413116Y-35211724D01*
X89459000Y-35442400D01*
X89459000Y-35677600D01*
X89413116Y-35908276D01*
X89328269Y-36113113D01*
X89323109Y-36125571D01*
X89192440Y-36321130D01*
X89026130Y-36487440D01*
X88830571Y-36618109D01*
X88830570Y-36618110D01*
X88830569Y-36618110D01*
X88613276Y-36708116D01*
X88382600Y-36754000D01*
X88147400Y-36754000D01*
X87916724Y-36708116D01*
X87699431Y-36618110D01*
X87699430Y-36618110D01*
X87699429Y-36618109D01*
X87503870Y-36487440D01*
X87337560Y-36321130D01*
X87206891Y-36125571D01*
X87201731Y-36113113D01*
X87116884Y-35908276D01*
X87071000Y-35677600D01*
X87071000Y-35442400D01*
X87116884Y-35211724D01*
X87206890Y-34994431D01*
X87337560Y-34798870D01*
X87503870Y-34632560D01*
X87699429Y-34501891D01*
X87699431Y-34501890D01*
X87916724Y-34411884D01*
X88147400Y-34366000D01*
X88382600Y-34366000D01*
X88613276Y-34411884D01*
X88613276Y-34411884D01*
G37*
G36*
X114013276Y-31871884D02*
G01*
X114214220Y-31955118D01*
X114230571Y-31961891D01*
X114426130Y-32092560D01*
X114592440Y-32258870D01*
X114708025Y-32431854D01*
X114723110Y-32454431D01*
X114813116Y-32671724D01*
X114859000Y-32902400D01*
X114859000Y-33137600D01*
X114813116Y-33368276D01*
X114723110Y-33585569D01*
X114723109Y-33585571D01*
X114592440Y-33781130D01*
X114426130Y-33947440D01*
X114230571Y-34078109D01*
X114230570Y-34078110D01*
X114230569Y-34078110D01*
X114013276Y-34168116D01*
X113782600Y-34214000D01*
X113547400Y-34214000D01*
X113316724Y-34168116D01*
X113099431Y-34078110D01*
X113099430Y-34078110D01*
X113099429Y-34078109D01*
X112903870Y-33947440D01*
X112737560Y-33781130D01*
X112606891Y-33585571D01*
X112606890Y-33585569D01*
X112516884Y-33368276D01*
X112471000Y-33137600D01*
X112471000Y-32902400D01*
X112516884Y-32671724D01*
X112606890Y-32454431D01*
X112621976Y-32431854D01*
X112737560Y-32258870D01*
X112903870Y-32092560D01*
X113099429Y-31961891D01*
X113115780Y-31955118D01*
X113316724Y-31871884D01*
X113547400Y-31826000D01*
X113782600Y-31826000D01*
X114013276Y-31871884D01*
X114013276Y-31871884D01*
G37*
G36*
X247363276Y-31871884D02*
G01*
X247564220Y-31955118D01*
X247580571Y-31961891D01*
X247776130Y-32092560D01*
X247942440Y-32258870D01*
X248058025Y-32431854D01*
X248073110Y-32454431D01*
X248163116Y-32671724D01*
X248209000Y-32902400D01*
X248209000Y-33137600D01*
X248163116Y-33368276D01*
X248073110Y-33585569D01*
X248073109Y-33585571D01*
X247942440Y-33781130D01*
X247776130Y-33947440D01*
X247580571Y-34078109D01*
X247580570Y-34078110D01*
X247580569Y-34078110D01*
X247363276Y-34168116D01*
X247132600Y-34214000D01*
X246897400Y-34214000D01*
X246666724Y-34168116D01*
X246449431Y-34078110D01*
X246449430Y-34078110D01*
X246449429Y-34078109D01*
X246253870Y-33947440D01*
X246087560Y-33781130D01*
X245956891Y-33585571D01*
X245956890Y-33585569D01*
X245866884Y-33368276D01*
X245821000Y-33137600D01*
X245821000Y-32902400D01*
X245866884Y-32671724D01*
X245956890Y-32454431D01*
X245971976Y-32431854D01*
X246087560Y-32258870D01*
X246253870Y-32092560D01*
X246449429Y-31961891D01*
X246465780Y-31955118D01*
X246666724Y-31871884D01*
X246897400Y-31826000D01*
X247132600Y-31826000D01*
X247363276Y-31871884D01*
X247363276Y-31871884D01*
G37*
G36*
X228313276Y-31871884D02*
G01*
X228514220Y-31955118D01*
X228530571Y-31961891D01*
X228726130Y-32092560D01*
X228892440Y-32258870D01*
X229008025Y-32431854D01*
X229023110Y-32454431D01*
X229113116Y-32671724D01*
X229159000Y-32902400D01*
X229159000Y-33137600D01*
X229113116Y-33368276D01*
X229023110Y-33585569D01*
X229023109Y-33585571D01*
X228892440Y-33781130D01*
X228726130Y-33947440D01*
X228530571Y-34078109D01*
X228530570Y-34078110D01*
X228530569Y-34078110D01*
X228313276Y-34168116D01*
X228082600Y-34214000D01*
X227847400Y-34214000D01*
X227616724Y-34168116D01*
X227399431Y-34078110D01*
X227399430Y-34078110D01*
X227399429Y-34078109D01*
X227203870Y-33947440D01*
X227037560Y-33781130D01*
X226906891Y-33585571D01*
X226906890Y-33585569D01*
X226816884Y-33368276D01*
X226771000Y-33137600D01*
X226771000Y-32902400D01*
X226816884Y-32671724D01*
X226906890Y-32454431D01*
X226921976Y-32431854D01*
X227037560Y-32258870D01*
X227203870Y-32092560D01*
X227399429Y-31961891D01*
X227415780Y-31955118D01*
X227616724Y-31871884D01*
X227847400Y-31826000D01*
X228082600Y-31826000D01*
X228313276Y-31871884D01*
X228313276Y-31871884D01*
G37*
G36*
X209263276Y-31871884D02*
G01*
X209464220Y-31955118D01*
X209480571Y-31961891D01*
X209676130Y-32092560D01*
X209842440Y-32258870D01*
X209958025Y-32431854D01*
X209973110Y-32454431D01*
X210063116Y-32671724D01*
X210109000Y-32902400D01*
X210109000Y-33137600D01*
X210063116Y-33368276D01*
X209973110Y-33585569D01*
X209973109Y-33585571D01*
X209842440Y-33781130D01*
X209676130Y-33947440D01*
X209480571Y-34078109D01*
X209480570Y-34078110D01*
X209480569Y-34078110D01*
X209263276Y-34168116D01*
X209032600Y-34214000D01*
X208797400Y-34214000D01*
X208566724Y-34168116D01*
X208349431Y-34078110D01*
X208349430Y-34078110D01*
X208349429Y-34078109D01*
X208153870Y-33947440D01*
X207987560Y-33781130D01*
X207856891Y-33585571D01*
X207856890Y-33585569D01*
X207766884Y-33368276D01*
X207721000Y-33137600D01*
X207721000Y-32902400D01*
X207766884Y-32671724D01*
X207856890Y-32454431D01*
X207871976Y-32431854D01*
X207987560Y-32258870D01*
X208153870Y-32092560D01*
X208349429Y-31961891D01*
X208365780Y-31955118D01*
X208566724Y-31871884D01*
X208797400Y-31826000D01*
X209032600Y-31826000D01*
X209263276Y-31871884D01*
X209263276Y-31871884D01*
G37*
G36*
X266413276Y-31871884D02*
G01*
X266614220Y-31955118D01*
X266630571Y-31961891D01*
X266826130Y-32092560D01*
X266992440Y-32258870D01*
X267108025Y-32431854D01*
X267123110Y-32454431D01*
X267213116Y-32671724D01*
X267259000Y-32902400D01*
X267259000Y-33137600D01*
X267213116Y-33368276D01*
X267123110Y-33585569D01*
X267123109Y-33585571D01*
X266992440Y-33781130D01*
X266826130Y-33947440D01*
X266630571Y-34078109D01*
X266630570Y-34078110D01*
X266630569Y-34078110D01*
X266413276Y-34168116D01*
X266182600Y-34214000D01*
X265947400Y-34214000D01*
X265716724Y-34168116D01*
X265499431Y-34078110D01*
X265499430Y-34078110D01*
X265499429Y-34078109D01*
X265303870Y-33947440D01*
X265137560Y-33781130D01*
X265006891Y-33585571D01*
X265006890Y-33585569D01*
X264916884Y-33368276D01*
X264871000Y-33137600D01*
X264871000Y-32902400D01*
X264916884Y-32671724D01*
X265006890Y-32454431D01*
X265021976Y-32431854D01*
X265137560Y-32258870D01*
X265303870Y-32092560D01*
X265499429Y-31961891D01*
X265515780Y-31955118D01*
X265716724Y-31871884D01*
X265947400Y-31826000D01*
X266182600Y-31826000D01*
X266413276Y-31871884D01*
X266413276Y-31871884D01*
G37*
G36*
X133063276Y-31871884D02*
G01*
X133264220Y-31955118D01*
X133280571Y-31961891D01*
X133476130Y-32092560D01*
X133642440Y-32258870D01*
X133758025Y-32431854D01*
X133773110Y-32454431D01*
X133863116Y-32671724D01*
X133909000Y-32902400D01*
X133909000Y-33137600D01*
X133863116Y-33368276D01*
X133773110Y-33585569D01*
X133773109Y-33585571D01*
X133642440Y-33781130D01*
X133476130Y-33947440D01*
X133280571Y-34078109D01*
X133280570Y-34078110D01*
X133280569Y-34078110D01*
X133063276Y-34168116D01*
X132832600Y-34214000D01*
X132597400Y-34214000D01*
X132366724Y-34168116D01*
X132149431Y-34078110D01*
X132149430Y-34078110D01*
X132149429Y-34078109D01*
X131953870Y-33947440D01*
X131787560Y-33781130D01*
X131656891Y-33585571D01*
X131656890Y-33585569D01*
X131566884Y-33368276D01*
X131521000Y-33137600D01*
X131521000Y-32902400D01*
X131566884Y-32671724D01*
X131656890Y-32454431D01*
X131671976Y-32431854D01*
X131787560Y-32258870D01*
X131953870Y-32092560D01*
X132149429Y-31961891D01*
X132165780Y-31955118D01*
X132366724Y-31871884D01*
X132597400Y-31826000D01*
X132832600Y-31826000D01*
X133063276Y-31871884D01*
X133063276Y-31871884D01*
G37*
G36*
X94963276Y-31871884D02*
G01*
X95164220Y-31955118D01*
X95180571Y-31961891D01*
X95376130Y-32092560D01*
X95542440Y-32258870D01*
X95658025Y-32431854D01*
X95673110Y-32454431D01*
X95763116Y-32671724D01*
X95809000Y-32902400D01*
X95809000Y-33137600D01*
X95763116Y-33368276D01*
X95673110Y-33585569D01*
X95673109Y-33585571D01*
X95542440Y-33781130D01*
X95376130Y-33947440D01*
X95180571Y-34078109D01*
X95180570Y-34078110D01*
X95180569Y-34078110D01*
X94963276Y-34168116D01*
X94732600Y-34214000D01*
X94497400Y-34214000D01*
X94266724Y-34168116D01*
X94049431Y-34078110D01*
X94049430Y-34078110D01*
X94049429Y-34078109D01*
X93853870Y-33947440D01*
X93687560Y-33781130D01*
X93556891Y-33585571D01*
X93556890Y-33585569D01*
X93466884Y-33368276D01*
X93421000Y-33137600D01*
X93421000Y-32902400D01*
X93466884Y-32671724D01*
X93556890Y-32454431D01*
X93571976Y-32431854D01*
X93687560Y-32258870D01*
X93853870Y-32092560D01*
X94049429Y-31961891D01*
X94065780Y-31955118D01*
X94266724Y-31871884D01*
X94497400Y-31826000D01*
X94732600Y-31826000D01*
X94963276Y-31871884D01*
X94963276Y-31871884D01*
G37*
G36*
X37813276Y-31871884D02*
G01*
X38014220Y-31955118D01*
X38030571Y-31961891D01*
X38226130Y-32092560D01*
X38392440Y-32258870D01*
X38508025Y-32431854D01*
X38523110Y-32454431D01*
X38613116Y-32671724D01*
X38659000Y-32902400D01*
X38659000Y-33137600D01*
X38613116Y-33368276D01*
X38523110Y-33585569D01*
X38523109Y-33585571D01*
X38392440Y-33781130D01*
X38226130Y-33947440D01*
X38030571Y-34078109D01*
X38030570Y-34078110D01*
X38030569Y-34078110D01*
X37813276Y-34168116D01*
X37582600Y-34214000D01*
X37347400Y-34214000D01*
X37116724Y-34168116D01*
X36899431Y-34078110D01*
X36899430Y-34078110D01*
X36899429Y-34078109D01*
X36703870Y-33947440D01*
X36537560Y-33781130D01*
X36406891Y-33585571D01*
X36406890Y-33585569D01*
X36316884Y-33368276D01*
X36271000Y-33137600D01*
X36271000Y-32902400D01*
X36316884Y-32671724D01*
X36406890Y-32454431D01*
X36421976Y-32431854D01*
X36537560Y-32258870D01*
X36703870Y-32092560D01*
X36899429Y-31961891D01*
X36915780Y-31955118D01*
X37116724Y-31871884D01*
X37347400Y-31826000D01*
X37582600Y-31826000D01*
X37813276Y-31871884D01*
X37813276Y-31871884D01*
G37*
G36*
X56863276Y-31871884D02*
G01*
X57064220Y-31955118D01*
X57080571Y-31961891D01*
X57276130Y-32092560D01*
X57442440Y-32258870D01*
X57558025Y-32431854D01*
X57573110Y-32454431D01*
X57663116Y-32671724D01*
X57709000Y-32902400D01*
X57709000Y-33137600D01*
X57663116Y-33368276D01*
X57573110Y-33585569D01*
X57573109Y-33585571D01*
X57442440Y-33781130D01*
X57276130Y-33947440D01*
X57080571Y-34078109D01*
X57080570Y-34078110D01*
X57080569Y-34078110D01*
X56863276Y-34168116D01*
X56632600Y-34214000D01*
X56397400Y-34214000D01*
X56166724Y-34168116D01*
X55949431Y-34078110D01*
X55949430Y-34078110D01*
X55949429Y-34078109D01*
X55753870Y-33947440D01*
X55587560Y-33781130D01*
X55456891Y-33585571D01*
X55456890Y-33585569D01*
X55366884Y-33368276D01*
X55321000Y-33137600D01*
X55321000Y-32902400D01*
X55366884Y-32671724D01*
X55456890Y-32454431D01*
X55471976Y-32431854D01*
X55587560Y-32258870D01*
X55753870Y-32092560D01*
X55949429Y-31961891D01*
X55965780Y-31955118D01*
X56166724Y-31871884D01*
X56397400Y-31826000D01*
X56632600Y-31826000D01*
X56863276Y-31871884D01*
X56863276Y-31871884D01*
G37*
G36*
X75913276Y-31871884D02*
G01*
X76114220Y-31955118D01*
X76130571Y-31961891D01*
X76326130Y-32092560D01*
X76492440Y-32258870D01*
X76608025Y-32431854D01*
X76623110Y-32454431D01*
X76713116Y-32671724D01*
X76759000Y-32902400D01*
X76759000Y-33137600D01*
X76713116Y-33368276D01*
X76623110Y-33585569D01*
X76623109Y-33585571D01*
X76492440Y-33781130D01*
X76326130Y-33947440D01*
X76130571Y-34078109D01*
X76130570Y-34078110D01*
X76130569Y-34078110D01*
X75913276Y-34168116D01*
X75682600Y-34214000D01*
X75447400Y-34214000D01*
X75216724Y-34168116D01*
X74999431Y-34078110D01*
X74999430Y-34078110D01*
X74999429Y-34078109D01*
X74803870Y-33947440D01*
X74637560Y-33781130D01*
X74506891Y-33585571D01*
X74506890Y-33585569D01*
X74416884Y-33368276D01*
X74371000Y-33137600D01*
X74371000Y-32902400D01*
X74416884Y-32671724D01*
X74506890Y-32454431D01*
X74521976Y-32431854D01*
X74637560Y-32258870D01*
X74803870Y-32092560D01*
X74999429Y-31961891D01*
X75015780Y-31955118D01*
X75216724Y-31871884D01*
X75447400Y-31826000D01*
X75682600Y-31826000D01*
X75913276Y-31871884D01*
X75913276Y-31871884D01*
G37*
G36*
X190213276Y-31871884D02*
G01*
X190414220Y-31955118D01*
X190430571Y-31961891D01*
X190626130Y-32092560D01*
X190792440Y-32258870D01*
X190908025Y-32431854D01*
X190923110Y-32454431D01*
X191013116Y-32671724D01*
X191059000Y-32902400D01*
X191059000Y-33137600D01*
X191013116Y-33368276D01*
X190923110Y-33585569D01*
X190923109Y-33585571D01*
X190792440Y-33781130D01*
X190626130Y-33947440D01*
X190430571Y-34078109D01*
X190430570Y-34078110D01*
X190430569Y-34078110D01*
X190213276Y-34168116D01*
X189982600Y-34214000D01*
X189747400Y-34214000D01*
X189516724Y-34168116D01*
X189299431Y-34078110D01*
X189299430Y-34078110D01*
X189299429Y-34078109D01*
X189103870Y-33947440D01*
X188937560Y-33781130D01*
X188806891Y-33585571D01*
X188806890Y-33585569D01*
X188716884Y-33368276D01*
X188671000Y-33137600D01*
X188671000Y-32902400D01*
X188716884Y-32671724D01*
X188806890Y-32454431D01*
X188821976Y-32431854D01*
X188937560Y-32258870D01*
X189103870Y-32092560D01*
X189299429Y-31961891D01*
X189315780Y-31955118D01*
X189516724Y-31871884D01*
X189747400Y-31826000D01*
X189982600Y-31826000D01*
X190213276Y-31871884D01*
X190213276Y-31871884D01*
G37*
G36*
X171163276Y-31871884D02*
G01*
X171364220Y-31955118D01*
X171380571Y-31961891D01*
X171576130Y-32092560D01*
X171742440Y-32258870D01*
X171858025Y-32431854D01*
X171873110Y-32454431D01*
X171963116Y-32671724D01*
X172009000Y-32902400D01*
X172009000Y-33137600D01*
X171963116Y-33368276D01*
X171873110Y-33585569D01*
X171873109Y-33585571D01*
X171742440Y-33781130D01*
X171576130Y-33947440D01*
X171380571Y-34078109D01*
X171380570Y-34078110D01*
X171380569Y-34078110D01*
X171163276Y-34168116D01*
X170932600Y-34214000D01*
X170697400Y-34214000D01*
X170466724Y-34168116D01*
X170249431Y-34078110D01*
X170249430Y-34078110D01*
X170249429Y-34078109D01*
X170053870Y-33947440D01*
X169887560Y-33781130D01*
X169756891Y-33585571D01*
X169756890Y-33585569D01*
X169666884Y-33368276D01*
X169621000Y-33137600D01*
X169621000Y-32902400D01*
X169666884Y-32671724D01*
X169756890Y-32454431D01*
X169771976Y-32431854D01*
X169887560Y-32258870D01*
X170053870Y-32092560D01*
X170249429Y-31961891D01*
X170265780Y-31955118D01*
X170466724Y-31871884D01*
X170697400Y-31826000D01*
X170932600Y-31826000D01*
X171163276Y-31871884D01*
X171163276Y-31871884D01*
G37*
G36*
X154800862Y-30075898D02*
G01*
X154813114Y-30076500D01*
X154884244Y-30076500D01*
X154898164Y-30083940D01*
X154909706Y-30088070D01*
X155025332Y-30123145D01*
X155025335Y-30123146D01*
X155138425Y-30183594D01*
X155237554Y-30264946D01*
X155318906Y-30364075D01*
X155379354Y-30477164D01*
X155379355Y-30477168D01*
X155416580Y-30599882D01*
X155426000Y-30695527D01*
X155426000Y-31859473D01*
X155416580Y-31955118D01*
X155414525Y-31961891D01*
X155379354Y-32077836D01*
X155318906Y-32190925D01*
X155237554Y-32290053D01*
X155138424Y-32371406D01*
X155025334Y-32431854D01*
X155025331Y-32431855D01*
X154950915Y-32454429D01*
X154909714Y-32466927D01*
X154887075Y-32476305D01*
X154883790Y-32478500D01*
X154813114Y-32478500D01*
X154800862Y-32479102D01*
X154775000Y-32481649D01*
X154749138Y-32479102D01*
X154736886Y-32478500D01*
X154019000Y-32478500D01*
X154019000Y-30076500D01*
X154736886Y-30076500D01*
X154749138Y-30075898D01*
X154775000Y-30073351D01*
X154800862Y-30075898D01*
X154800862Y-30075898D01*
G37*
G36*
X143700862Y-30075898D02*
G01*
X143713114Y-30076500D01*
X144431000Y-30076500D01*
X144431000Y-32478500D01*
X143713114Y-32478500D01*
X143700862Y-32479102D01*
X143675000Y-32481649D01*
X143649138Y-32479102D01*
X143636886Y-32478500D01*
X143597382Y-32478500D01*
X143578387Y-32472738D01*
X143566262Y-32470939D01*
X143547382Y-32469080D01*
X143456596Y-32441540D01*
X143424664Y-32431854D01*
X143311575Y-32371406D01*
X143212447Y-32290054D01*
X143131094Y-32190924D01*
X143070646Y-32077835D01*
X143035475Y-31961890D01*
X143033420Y-31955117D01*
X143027140Y-31891354D01*
X143024000Y-31859473D01*
X143024001Y-30695526D01*
X143033421Y-30599884D01*
X143033421Y-30599882D01*
X143070646Y-30477168D01*
X143070647Y-30477164D01*
X143131095Y-30364075D01*
X143212447Y-30264946D01*
X143311576Y-30183594D01*
X143424665Y-30123146D01*
X143456597Y-30113460D01*
X143547383Y-30085920D01*
X143566256Y-30084061D01*
X143590285Y-30079282D01*
X143597002Y-30076500D01*
X143636886Y-30076500D01*
X143649138Y-30075898D01*
X143675000Y-30073351D01*
X143700862Y-30075898D01*
X143700862Y-30075898D01*
G37*
M02*
