M48
; DRILL file {KiCad (5.1.2)-2} date 2019/06/29 16:52:27
; FORMAT={-:-/ absolute / metric / decimal}
; #@! TF.CreationDate,2019-06-29T16:52:27+09:00
; #@! TF.GenerationSoftware,Kicad,Pcbnew,(5.1.2)-2
FMAT,2
METRIC
T1C0.102
T2C0.152
T3C0.400
T4C0.600
T5C1.499
T6C3.500
T7C3.988
%
G90
G05
T1
X145.415Y-41.021
X147.225Y-38.1
X148.844Y-38.1
X148.844Y-40.64
X149.225Y-39.37
X149.225Y-41.91
X149.606Y-38.1
X149.606Y-40.64
X151.225Y-38.1
T2
X139.7Y-62.36
X139.7Y-76.2
X140.335Y-95.25
X140.97Y-68.58
X141.605Y-49.53
X142.875Y-49.53
X142.875Y-71.755
X142.875Y-83.185
X144.145Y-59.69
X144.78Y-59.69
X145.415Y-49.53
X145.415Y-85.725
X146.05Y-69.85
X146.685Y-57.15
X146.685Y-67.945
X146.685Y-69.215
X147.32Y-64.135
X147.32Y-67.31
X147.955Y-66.675
X149.225Y-47.625
X149.225Y-74.295
X149.225Y-81.915
X150.495Y-66.04
X151.13Y-48.895
X151.13Y-66.675
X151.765Y-52.705
X151.765Y-67.31
X152.4Y-67.945
X153.035Y-68.58
X156.845Y-63.5
X158.75Y-43.31
T3
X147.225Y-35.877
X148.025Y-35.877
X148.825Y-35.877
X149.625Y-35.877
X150.425Y-35.877
X151.225Y-35.877
T5
X107.315Y-92.71
X113.665Y-90.17
X221.615Y-54.61
X227.965Y-52.07
X31.115Y-35.56
X37.465Y-33.02
X183.515Y-73.66
X189.865Y-71.12
X259.715Y-54.61
X266.065Y-52.07
X88.265Y-35.56
X94.615Y-33.02
X50.165Y-92.71
X56.515Y-90.17
X202.565Y-35.56
X208.915Y-33.02
X31.115Y-73.66
X37.465Y-71.12
X240.665Y-35.56
X247.015Y-33.02
X202.565Y-92.71
X208.915Y-90.17
X107.315Y-54.61
X113.665Y-52.07
X183.515Y-54.61
X189.865Y-52.07
X183.515Y-92.71
X189.865Y-90.17
X107.315Y-73.66
X113.665Y-71.12
X50.165Y-73.66
X56.515Y-71.12
X126.365Y-92.71
X132.715Y-90.17
X69.215Y-54.61
X75.565Y-52.07
X50.165Y-35.56
X56.515Y-33.02
X202.565Y-73.66
X208.915Y-71.12
X221.615Y-35.56
X227.965Y-33.02
X107.315Y-35.56
X113.665Y-33.02
X88.265Y-73.66
X94.615Y-71.12
X240.665Y-92.71
X247.015Y-90.17
X259.715Y-35.56
X266.065Y-33.02
X126.365Y-73.66
X132.715Y-71.12
X50.165Y-54.61
X56.515Y-52.07
X259.715Y-92.71
X266.065Y-90.17
X126.365Y-54.61
X132.715Y-52.07
X202.565Y-54.61
X208.915Y-52.07
X69.215Y-73.66
X75.565Y-71.12
X221.615Y-73.66
X227.965Y-71.12
X259.715Y-73.66
X266.065Y-71.12
X240.665Y-54.61
X247.015Y-52.07
X69.215Y-35.56
X75.565Y-33.02
X240.665Y-73.66
X247.015Y-71.12
X164.465Y-35.56
X170.815Y-33.02
X126.365Y-35.56
X132.715Y-33.02
X69.215Y-92.71
X75.565Y-90.17
X31.115Y-54.61
X37.465Y-52.07
X88.265Y-92.71
X94.615Y-90.17
X164.465Y-92.71
X170.815Y-90.17
X88.265Y-54.61
X94.615Y-52.07
X164.465Y-54.61
X170.815Y-52.07
X183.515Y-35.56
X189.865Y-33.02
X221.615Y-92.71
X227.965Y-90.17
X31.115Y-92.71
X37.465Y-90.17
X164.465Y-73.66
X170.815Y-71.12
T6
X254.0Y-85.725
X44.45Y-47.625
X44.45Y-85.725
X101.6Y-85.725
X254.0Y-47.625
X101.6Y-47.625
X196.85Y-85.725
X196.85Y-47.625
T7
X111.125Y-95.25
X225.425Y-57.15
X34.925Y-38.1
X187.325Y-76.2
X263.525Y-57.15
X92.075Y-38.1
X53.975Y-95.25
X206.375Y-38.1
X34.925Y-76.2
X244.475Y-38.1
X206.375Y-95.25
X111.125Y-57.15
X187.325Y-57.15
X187.325Y-95.25
X111.125Y-76.2
X53.975Y-76.2
X130.175Y-95.25
X73.025Y-57.15
X53.975Y-38.1
X206.375Y-76.2
X225.425Y-38.1
X111.125Y-38.1
X92.075Y-76.2
X244.475Y-95.25
X263.525Y-38.1
X130.175Y-76.2
X53.975Y-57.15
X263.525Y-95.25
X130.175Y-57.15
X206.375Y-57.15
X73.025Y-76.2
X225.425Y-76.2
X263.525Y-76.2
X244.475Y-57.15
X73.025Y-38.1
X244.475Y-76.2
X168.275Y-38.1
X130.175Y-38.1
X73.025Y-95.25
X34.925Y-57.15
X92.075Y-95.25
X168.275Y-95.25
X92.075Y-57.15
X168.275Y-57.15
X187.325Y-38.1
X225.425Y-95.25
X34.925Y-95.25
X168.275Y-76.2
T4
G00X143.675Y-31.827
M15
G01X143.675Y-30.727
M16
G05
G00X143.675Y-36.877
M15
G01X143.675Y-35.777
M16
G05
G00X154.775Y-31.827
M15
G01X154.775Y-30.727
M16
G05
G00X154.775Y-36.877
M15
G01X154.775Y-35.777
M16
G05
T0
M30
